<svg viewBox="0 0 100 100" xmlns="http://www.w3.org/2000/svg"><path d="M100 50c0 9.45-2.622 18.286-7.18 25.824a50.014 50.014 0 0 1-9.264 11.244 50.02 50.02 0 0 1-16.155 9.82h-.003a49.648 49.648 0 0 1-14.322 3.018 49.62 49.62 0 0 1-3.074.094h-.048c-1.018 0-2.027-.031-3.027-.094A49.729 49.729 0 0 1 23.8 92.594a50.196 50.196 0 0 1-16.623-16.77A49.77 49.77 0 0 1 0 50C0 22.388 22.385 0 50.002 0 77.618 0 100 22.388 100 50Z" fill="#FD853A"/><path d="M50.047 20.499v79.407h-3.118A49.733 49.733 0 0 1 23.8 92.594a50.13 50.13 0 0 1-7.356-5.526c.447-29.159 3.622-48.136 10.427-57.013 13.291-17.34 22.653-9.556 22.653-9.556h.522Z"/><path d="M83.559 87.068a50.007 50.007 0 0 1-16.155 9.82H67.4a49.645 49.645 0 0 1-14.322 3.018h-3.122V20.499h.522s9.361-7.784 22.652 9.556c6.806 8.877 9.981 27.854 10.428 57.013Z"/><path d="M54.583 76.339h-9.255v9.242h9.255v-9.242Zm-4.496 9.242v14.325h-3.159a49.73 49.73 0 0 1-23.127-7.312c3.357-2.351 8.302-4.709 15.504-6.123l.094-.02c.65-.125 1.324-.244 2.012-.358a71.4 71.4 0 0 1 3.917-.512h4.76Z" fill="#FDDCAB"/><path d="M76.209 92.588a48.32 48.32 0 0 1-2.524 1.455 49.232 49.232 0 0 1-6.284 2.845h-.003a49.645 49.645 0 0 1-14.322 3.018h-2.99V85.58h4.492c1.38.141 2.697.317 3.952.519.723.116 1.424.242 2.106.377 7.195 1.414 12.175 3.766 15.573 6.11Z" fill="#FFEAD5"/><path d="M49.985 96.382V100h-.028c-1.019 0-2.028-.031-3.028-.094a49.728 49.728 0 0 1-14.378-3.036c2.276-3.732 5.89-9.572 6.755-10.399l.095-.019c.326-.07 1.424-.292 2.011-.358 0 0-3.43 9.886 8.545 10.288h.028Z" fill="#97F8C0"/><path d="M67.4 96.888a49.645 49.645 0 0 1-14.321 3.018c-1.016.063-2.04.094-3.075.094h-.047v-3.618h.028c.035-.003.07-.003.104-.006 11.678-.446 8.535-10.002 8.444-10.276-.004-.003-.004-.006-.004-.006.698.078 2.104.377 2.104.377l.006.006c.874.849 4.492 6.686 6.762 10.411Z" fill="#CAFBDA"/><path d="M21.703 48.667c.556 6.379 4.59 6.762 4.59 6.762l.059-12.769s-5.212-.374-4.65 6.008Z" fill="#FDDCAB"/><path d="M26.164 28.47v26.4c0 13.167 10.676 23.84 23.84 23.84V28.47h-23.84Z" fill="#FDDCAB"/><path d="M78.2 48.475c-.556 6.378-4.59 6.762-4.59 6.762l-.06-12.769s5.213-.374 4.65 6.007Z" fill="#FFEAD5"/><path d="M50.008 28.47v50.243c13.168 0 23.84-10.675 23.84-23.84V28.47h-23.84Z" fill="#FFEAD5"/><path d="M75.55 35.257c0 1.273-.093 2.53-.276 3.754H24.902a25.484 25.484 0 0 1-.277-3.754c0-1.782.182-3.524.531-5.205 2.405-11.565 12.65-20.26 24.932-20.26 12.282 0 22.53 8.695 24.931 20.26a25.29 25.29 0 0 1 .535 5.205h-.003Z" fill="#CAFBDA"/><path d="M26.084 34.739c-2.17 3.09.082 7.915.082 7.915l15.073-5.57s-12.986-5.435-15.155-2.348v.003Z"/><path d="M75.6 30.055H24.5a2.461 2.461 0 0 0-2.46 2.461v4.036a2.461 2.461 0 0 0 2.46 2.462h51.1a2.461 2.461 0 0 0 2.46-2.462v-4.036a2.461 2.461 0 0 0-2.46-2.461Z" fill="#97F8C0"/></svg>