<svg width="24" height="24" viewBox="0 0 24 24" fill="none" xmlns="http://www.w3.org/2000/svg">
<g clip-path="url(#clip0_1_1522)">
<path d="M23.7101 16.29L15.5401 8.12C15.0756 7.65437 14.5239 7.28494 13.9164 7.03287C13.309 6.78081 12.6578 6.65106 12.0001 6.65106C11.3424 6.65106 10.6912 6.78081 10.0838 7.03287C9.47631 7.28494 8.92455 7.65437 8.46009 8.12L0.290094 16.29C0.10179 16.4783 -0.0039978 16.7337 -0.0039978 17C-0.0039978 17.2663 0.10179 17.5217 0.290094 17.71C0.478398 17.8983 0.733792 18.0041 1.00009 18.0041C1.2664 18.0041 1.52179 17.8983 1.71009 17.71L9.88009 9.54C10.4426 8.9782 11.2051 8.66264 12.0001 8.66264C12.7951 8.66264 13.5576 8.9782 14.1201 9.54L22.2901 17.71C22.3831 17.8037 22.4937 17.8781 22.6155 17.9289C22.7374 17.9797 22.8681 18.0058 23.0001 18.0058C23.1321 18.0058 23.2628 17.9797 23.3847 17.9289C23.5065 17.8781 23.6171 17.8037 23.7101 17.71C23.8038 17.617 23.8782 17.5064 23.929 17.3846C23.9798 17.2627 24.0059 17.132 24.0059 17C24.0059 16.868 23.9798 16.7373 23.929 16.6154C23.8782 16.4936 23.8038 16.383 23.7101 16.29Z" fill="#262626"/>
</g>
<defs>
<clipPath id="clip0_1_1522">
<rect width="24" height="24" fill="white"/>
</clipPath>
</defs>
</svg>
