<svg width="24" height="24" viewBox="0 0 24 24" fill="none" xmlns="http://www.w3.org/2000/svg">
<g clip-path="url(#clip0_1_1496)">
<path d="M12 24C11.8684 24.0008 11.7379 23.9755 11.6161 23.9258C11.4943 23.876 11.3834 23.8027 11.29 23.71L3.12 15.54C2.65437 15.0755 2.28494 14.5238 2.03287 13.9163C1.78081 13.3089 1.65106 12.6577 1.65106 12C1.65106 11.3423 1.78081 10.6911 2.03287 10.0837C2.28494 9.47621 2.65437 8.92446 3.12 8.46L11.29 0.290002C11.4783 0.101699 11.7337 -0.00408936 12 -0.00408936C12.2663 -0.00408936 12.5217 0.101699 12.71 0.290002C12.8983 0.478306 13.0041 0.733701 13.0041 1C13.0041 1.2663 12.8983 1.5217 12.71 1.71L4.54 9.88C3.9782 10.4425 3.66264 11.205 3.66264 12C3.66264 12.795 3.9782 13.5575 4.54 14.12L12.71 22.29C12.8037 22.383 12.8781 22.4936 12.9289 22.6154C12.9797 22.7373 13.0058 22.868 13.0058 23C13.0058 23.132 12.9797 23.2627 12.9289 23.3846C12.8781 23.5064 12.8037 23.617 12.71 23.71C12.6166 23.8027 12.5057 23.876 12.3839 23.9258C12.2621 23.9755 12.1316 24.0008 12 24Z" fill="#262626"/>
<path d="M22.0001 24C21.8685 24.0008 21.7381 23.9755 21.6162 23.9258C21.4944 23.876 21.3836 23.8027 21.2901 23.71L11.7101 14.12C11.1483 13.5575 10.8328 12.795 10.8328 12C10.8328 11.205 11.1483 10.4425 11.7101 9.88L21.2901 0.290002C21.4784 0.101699 21.7338 -0.00408936 22.0001 -0.00408936C22.2664 -0.00408936 22.5218 0.101699 22.7101 0.290002C22.8984 0.478306 23.0042 0.733701 23.0042 1C23.0042 1.2663 22.8984 1.5217 22.7101 1.71L13.1201 11.29C13.0264 11.383 12.952 11.4936 12.9012 11.6154C12.8505 11.7373 12.8243 11.868 12.8243 12C12.8243 12.132 12.8505 12.2627 12.9012 12.3846C12.952 12.5064 13.0264 12.617 13.1201 12.71L22.7101 22.29C22.8039 22.383 22.8782 22.4936 22.929 22.6154C22.9798 22.7373 23.0059 22.868 23.0059 23C23.0059 23.132 22.9798 23.2627 22.929 23.3846C22.8782 23.5064 22.8039 23.617 22.7101 23.71C22.6167 23.8027 22.5059 23.876 22.384 23.9258C22.2622 23.9755 22.1317 24.0008 22.0001 24Z" fill="#262626"/>
</g>
<defs>
<clipPath id="clip0_1_1496">
<rect width="24" height="24" fill="white"/>
</clipPath>
</defs>
</svg>
