<svg width="24" height="24" viewBox="0 0 24 24" fill="none" xmlns="http://www.w3.org/2000/svg">
<path d="M10.48 19C10.2177 18.9989 9.9663 18.8947 9.78004 18.71L5.19004 14.12C4.62824 13.5575 4.31268 12.795 4.31268 12C4.31268 11.205 4.62824 10.4425 5.19004 9.88L9.78004 5.29C9.96741 5.10375 10.2209 4.99921 10.485 4.99921C10.7492 4.99921 11.0027 5.10375 11.19 5.29C11.2838 5.38296 11.3582 5.49356 11.4089 5.61542C11.4597 5.73728 11.4858 5.86799 11.4858 6C11.4858 6.13201 11.4597 6.26272 11.4089 6.38458C11.3582 6.50644 11.2838 6.61704 11.19 6.71L6.60004 11.29C6.50632 11.383 6.43192 11.4936 6.38115 11.6154C6.33038 11.7373 6.30425 11.868 6.30425 12C6.30425 12.132 6.33038 12.2627 6.38115 12.3846C6.43192 12.5064 6.50632 12.617 6.60004 12.71L11.19 17.29C11.2838 17.383 11.3582 17.4936 11.4089 17.6154C11.4597 17.7373 11.4858 17.868 11.4858 18C11.4858 18.132 11.4597 18.2627 11.4089 18.3846C11.3582 18.5064 11.2838 18.617 11.19 18.71C11.0966 18.8027 10.9858 18.876 10.864 18.9258C10.7421 18.9755 10.6117 19.0008 10.48 19Z" fill="#262626"/>
<path d="M17.4799 19C17.2175 18.9989 16.9661 18.8947 16.7799 18.71L10.7799 12.71C10.6861 12.617 10.6117 12.5064 10.561 12.3846C10.5102 12.2627 10.4841 12.132 10.4841 12C10.4841 11.868 10.5102 11.7373 10.561 11.6154C10.6117 11.4936 10.6861 11.383 10.7799 11.29L16.7799 5.29C16.9672 5.10375 17.2207 4.99921 17.4849 4.99921C17.749 4.99921 18.0025 5.10375 18.1899 5.29C18.2836 5.38296 18.358 5.49356 18.4087 5.61542C18.4595 5.73728 18.4857 5.86799 18.4857 6C18.4857 6.13201 18.4595 6.26272 18.4087 6.38458C18.358 6.50644 18.2836 6.61704 18.1899 6.71L12.8999 12L18.1899 17.29C18.2836 17.383 18.358 17.4936 18.4087 17.6154C18.4595 17.7373 18.4857 17.868 18.4857 18C18.4857 18.132 18.4595 18.2627 18.4087 18.3846C18.358 18.5064 18.2836 18.617 18.1899 18.71C18.0964 18.8027 17.9856 18.876 17.8638 18.9258C17.7419 18.9755 17.6115 19.0008 17.4799 19Z" fill="#262626"/>
</svg>
