<svg width="24" height="24" viewBox="0 0 24 24" fill="none" xmlns="http://www.w3.org/2000/svg">
<g clip-path="url(#clip0_1_1593)">
<path d="M19.4999 9.00003H18.9999V7.00003C18.9999 6.73481 18.8945 6.48046 18.707 6.29292C18.5194 6.10538 18.2651 6.00003 17.9999 6.00003C18.0126 5.29071 17.8316 4.59135 17.4764 3.97727C17.1211 3.36318 16.6051 2.85762 15.9839 2.51503C15.2656 2.11525 14.4436 1.94102 13.6249 2.01503C13.5233 2.02763 13.4201 2.01372 13.3255 1.97464C13.2309 1.93556 13.148 1.87265 13.0849 1.79203C12.6496 1.22183 12.0846 0.763715 11.4368 0.455715C10.7889 0.147716 10.077 -0.00127452 9.35999 0.0211188C8.64301 0.0435122 7.94172 0.236643 7.31437 0.58447C6.68701 0.932298 6.15169 1.42478 5.75288 2.02103C4.73842 2.08211 3.78543 2.52771 3.08811 3.26703C2.39078 4.00634 2.0016 4.98374 1.99988 6.00003C1.73466 6.00003 1.48031 6.10538 1.29277 6.29292C1.10523 6.48046 0.999878 6.73481 0.999878 7.00003V19C1.00147 20.3256 1.52876 21.5965 2.4661 22.5338C3.40344 23.4711 4.67428 23.9984 5.99988 24H13.9999C15.3255 23.9984 16.5963 23.4711 17.5337 22.5338C18.471 21.5965 18.9983 20.3256 18.9999 19H19.4999C20.4281 19 21.3184 18.6313 21.9748 17.9749C22.6311 17.3185 22.9999 16.4283 22.9999 15.5V12.5C22.9999 11.5718 22.6311 10.6815 21.9748 10.0252C21.3184 9.36878 20.4281 9.00003 19.4999 9.00003ZM5.99988 4.00003C6.05739 4.0019 6.11462 4.00893 6.17088 4.02103C6.38638 4.05607 6.60744 4.01961 6.80028 3.91723C6.99313 3.81485 7.14717 3.65217 7.23888 3.45403C7.42171 3.06588 7.70136 2.73133 8.05092 2.48254C8.40047 2.23376 8.80818 2.07913 9.23479 2.03353C9.66141 1.98792 10.0926 2.05288 10.4868 2.22215C10.8811 2.39142 11.2251 2.6593 11.4859 3.00003C11.7539 3.35599 12.1096 3.63635 12.5183 3.81372C12.9271 3.9911 13.3748 4.05943 13.8179 4.01203C14.245 3.97838 14.6725 4.07273 15.0459 4.28303C15.3435 4.45827 15.5888 4.70984 15.7565 5.01171C15.9242 5.31358 16.0083 5.65479 15.9999 6.00003H11.9999C11.2042 6.00003 10.4412 6.3161 9.87856 6.87871C9.31595 7.44132 8.99988 8.20438 8.99988 9.00003V12C8.99988 12.2652 8.89452 12.5196 8.70698 12.7071C8.51945 12.8947 8.26509 13 7.99988 13C7.73466 13 7.48031 12.8947 7.29277 12.7071C7.10524 12.5196 6.99988 12.2652 6.99988 12V9.00003C6.99988 8.20438 6.68381 7.44132 6.1212 6.87871C5.55859 6.3161 4.79553 6.00003 3.99988 6.00003C3.99988 5.46959 4.21059 4.96089 4.58566 4.58581C4.96074 4.21074 5.46944 4.00003 5.99988 4.00003ZM16.9999 19C16.9999 19.7957 16.6838 20.5587 16.1212 21.1213C15.5586 21.684 14.7955 22 13.9999 22H5.99988C5.20423 22 4.44117 21.684 3.87856 21.1213C3.31595 20.5587 2.99988 19.7957 2.99988 19V8.00003H3.99988C4.26509 8.00003 4.51945 8.10538 4.70698 8.29292C4.89452 8.48046 4.99988 8.73481 4.99988 9.00003V12C4.99988 12.7957 5.31595 13.5587 5.87856 14.1213C6.44117 14.684 7.20423 15 7.99988 15C8.79553 15 9.55859 14.684 10.1212 14.1213C10.6838 13.5587 10.9999 12.7957 10.9999 12V9.00003C10.9999 8.73481 11.1052 8.48046 11.2928 8.29292C11.4803 8.10538 11.7347 8.00003 11.9999 8.00003H16.9999V19ZM20.9999 15.5C20.9999 15.8979 20.8418 16.2794 20.5605 16.5607C20.2792 16.842 19.8977 17 19.4999 17H18.9999V11H19.4999C19.8977 11 20.2792 11.1581 20.5605 11.4394C20.8418 11.7207 20.9999 12.1022 20.9999 12.5V15.5Z" fill="#262626"/>
</g>
<defs>
<clipPath id="clip0_1_1593">
<rect width="24" height="24" fill="white"/>
</clipPath>
</defs>
</svg>
