<svg width="24" height="24" viewBox="0 0 24 24" fill="none" xmlns="http://www.w3.org/2000/svg">
<path d="M20.0359 6.91159H20.0359H19.3251V4.56397V4.56391C19.3246 4.13602 19.1544 3.72578 18.8519 3.42322C18.5493 3.12065 18.139 2.95046 17.7112 2.95H17.7111L6.60068 2.95L6.60057 2.95C6.17298 2.95093 5.76319 3.12131 5.461 3.42383C5.15881 3.72635 4.98886 4.13632 4.9884 4.56391V4.56397V6.91159H4.2776H4.27754C3.92559 6.91206 3.5882 7.05207 3.33934 7.30094C3.09047 7.5498 2.95047 7.88719 2.95 8.23913V8.2392V10.6114V10.6614H3H3.84722H3.89722V10.6114V8.2392C3.89722 8.13832 3.9373 8.04156 4.00863 7.97023C4.07997 7.89889 4.17672 7.85881 4.2776 7.85881H4.9884V18.1822C4.98839 18.4263 5.06566 18.6642 5.20914 18.8618C5.34546 19.0495 5.53489 19.1916 5.75259 19.2701V19.8885C5.75259 20.0405 5.78256 20.1911 5.84076 20.3317C5.89896 20.4722 5.98427 20.5999 6.09181 20.7074C6.19936 20.8149 6.32704 20.9003 6.46755 20.9585C6.60807 21.0167 6.75867 21.0466 6.91076 21.0466H8.73397C9.04113 21.0466 9.33572 20.9246 9.55292 20.7074C9.77011 20.4902 9.89214 20.1956 9.89214 19.8885V19.3403H14.4213V19.8885C14.4213 20.0405 14.4513 20.1911 14.5095 20.3317C14.5677 20.4722 14.653 20.5999 14.7606 20.7074C14.8681 20.8149 14.9958 20.9003 15.1363 20.9585C15.2768 21.0167 15.4274 21.0466 15.5795 21.0466H17.4027C17.7099 21.0466 18.0045 20.9246 18.2217 20.7074C18.4388 20.4902 18.5609 20.1956 18.5609 19.8885V19.2701C18.7784 19.1914 18.9677 19.0492 19.104 18.8615C19.2474 18.664 19.3248 18.4263 19.3251 18.1822V18.1822V7.85881H20.0359C20.1367 7.85881 20.2335 7.89889 20.3048 7.97023C20.3762 8.04156 20.4163 8.13832 20.4163 8.2392V10.6114V10.6614H20.4663H21.3135H21.3635V10.6114V8.2392V8.23913C21.363 7.88719 21.223 7.5498 20.9741 7.30094C20.7253 7.05207 20.3879 6.91206 20.0359 6.91159ZM5.93562 6.58968H11.6831V12.8675H5.93562V6.58968ZM8.94492 19.8885C8.94492 19.9161 8.93946 19.9436 8.92886 19.9692C8.91825 19.9948 8.90272 20.018 8.88314 20.0376C8.86355 20.0572 8.84029 20.0727 8.8147 20.0833C8.78911 20.0939 8.76167 20.0994 8.73397 20.0994H6.91076C6.88306 20.0994 6.85563 20.0939 6.83003 20.0833C6.80444 20.0727 6.78118 20.0572 6.7616 20.0376C6.74201 20.018 6.72648 19.9948 6.71587 19.9692C6.70527 19.9436 6.69981 19.9162 6.69981 19.8885V19.3403H8.94492V19.8885ZM17.5519 20.0376C17.5123 20.0772 17.4587 20.0994 17.4027 20.0994H15.5795C15.5236 20.0994 15.4699 20.0772 15.4303 20.0376C15.3908 19.9981 15.3686 19.9444 15.3686 19.8885V19.3403H17.6137V19.8885C17.6137 19.9444 17.5914 19.9981 17.5519 20.0376ZM18.3778 18.1822C18.3778 18.1822 18.3778 18.1822 18.3778 18.1823C18.3778 18.2379 18.3558 18.2913 18.3165 18.3308C18.2773 18.3703 18.2241 18.3927 18.1684 18.3931C18.1684 18.3931 18.1683 18.3931 18.1683 18.3931H6.13842C6.13838 18.3931 6.13833 18.3931 6.13828 18.3931C6.08263 18.3927 6.02938 18.3703 5.99014 18.3308C5.95088 18.2913 5.92884 18.2379 5.92885 18.1822V13.8181H18.3678L18.3778 18.1822ZM18.3778 12.8675H12.6303V6.59307H18.3778V12.8675ZM18.3778 5.64246H5.93901V4.56058C5.93901 4.38402 6.00904 4.21467 6.13374 4.08967C6.25842 3.9647 6.42758 3.89427 6.60411 3.89383H17.7111C17.8879 3.89383 18.0575 3.96408 18.1826 4.08912C18.3076 4.21416 18.3778 4.38375 18.3778 4.56058V5.64246Z" fill="#222B34" stroke="#222B34" stroke-width="0.1"/>
<path d="M8.26461 17.4417C8.55785 17.4417 8.8445 17.3548 9.08831 17.1918C9.33213 17.0289 9.52217 16.7974 9.63438 16.5265C9.7466 16.2555 9.77596 15.9574 9.71875 15.6698C9.66155 15.3822 9.52034 15.118 9.313 14.9107C9.10565 14.7033 8.84146 14.5621 8.55386 14.5049C8.26626 14.4477 7.96815 14.4771 7.69723 14.5893C7.42631 14.7015 7.19476 14.8916 7.03185 15.1354C6.86893 15.3792 6.78198 15.6658 6.78198 15.9591C6.78243 16.3522 6.93878 16.729 7.21673 17.007C7.49468 17.2849 7.87153 17.4413 8.26461 17.4417ZM8.26461 15.3237C8.39029 15.3237 8.51314 15.3609 8.61763 15.4307C8.72212 15.5006 8.80357 15.5998 8.85166 15.7159C8.89975 15.832 8.91233 15.9598 8.88781 16.083C8.8633 16.2063 8.80278 16.3195 8.71391 16.4084C8.62505 16.4972 8.51183 16.5578 8.38857 16.5823C8.26532 16.6068 8.13756 16.5942 8.02145 16.5461C7.90535 16.498 7.8061 16.4166 7.73628 16.3121C7.66646 16.2076 7.6292 16.0847 7.6292 15.9591C7.6292 15.7906 7.69614 15.6289 7.81531 15.5098C7.93447 15.3906 8.09609 15.3237 8.26461 15.3237Z" fill="#222B34"/>
<path d="M16.0489 17.4417C16.3421 17.4414 16.6286 17.3541 16.8721 17.191C17.1157 17.0279 17.3055 16.7962 17.4175 16.5253C17.5294 16.2543 17.5585 15.9563 17.5011 15.6688C17.4437 15.3813 17.3024 15.1173 17.095 14.9101C16.8876 14.7029 16.6234 14.5619 16.3358 14.5048C16.0483 14.4477 15.7503 14.4772 15.4794 14.5895C15.2086 14.7017 14.9772 14.8918 14.8143 15.1355C14.6515 15.3793 14.5646 15.6659 14.5646 15.9591C14.5655 16.3523 14.7222 16.7292 15.0004 17.0071C15.2786 17.285 15.6557 17.4413 16.0489 17.4417ZM16.0489 15.3237C16.1745 15.324 16.2972 15.3615 16.4015 15.4316C16.5057 15.5016 16.5869 15.6009 16.6347 15.7171C16.6826 15.8332 16.6949 15.9609 16.6702 16.0841C16.6455 16.2072 16.5848 16.3203 16.4959 16.409C16.407 16.4977 16.2938 16.558 16.1705 16.5824C16.0473 16.6068 15.9197 16.5941 15.8037 16.546C15.6876 16.4978 15.5885 16.4164 15.5188 16.3119C15.449 16.2075 15.4118 16.0847 15.4118 15.9591C15.4122 15.7904 15.4796 15.6288 15.599 15.5097C15.7184 15.3906 15.8802 15.3237 16.0489 15.3237Z" fill="#222B34"/>
</svg>
