<svg width="24" height="24" viewBox="0 0 24 24" fill="none" xmlns="http://www.w3.org/2000/svg">
<path d="M23.9798 2.02298V6.02298C23.9798 6.2882 23.8745 6.54255 23.687 6.73009C23.4994 6.91762 23.2451 7.02298 22.9798 7.02298C22.7146 7.02298 22.4603 6.91762 22.2727 6.73009C22.0852 6.54255 21.9798 6.2882 21.9798 6.02298V3.45998L16.6798 8.73198C16.4907 8.91368 16.2378 9.01382 15.9756 9.01083C15.7134 9.00784 15.4628 8.90196 15.2779 8.716C15.093 8.53004 14.9885 8.27888 14.987 8.01664C14.9855 7.75439 15.0871 7.50205 15.2698 7.31398L20.5898 2.02298H17.9798C17.7146 2.02298 17.4603 1.91763 17.2727 1.73009C17.0852 1.54255 16.9798 1.2882 16.9798 1.02298C16.9798 0.757766 17.0852 0.503412 17.2727 0.315875C17.4603 0.128339 17.7146 0.0229821 17.9798 0.0229821H21.9798C22.5103 0.0229821 23.019 0.233696 23.3941 0.608769C23.7691 0.983841 23.9798 1.49255 23.9798 2.02298ZM23.0748 16.762C23.6544 17.3431 23.9798 18.1303 23.9798 18.951C23.9798 19.7717 23.6544 20.5589 23.0748 21.14L22.1628 22.19C13.9718 30.028 -5.95715 10.105 1.76285 1.88998L2.91185 0.889982C3.49394 0.326753 4.27419 0.015043 5.08413 0.0221527C5.89407 0.0292624 6.66873 0.354621 7.24085 0.927982C7.27085 0.958982 9.12385 3.36698 9.12385 3.36698C9.67352 3.94443 9.97959 4.71145 9.97847 5.50868C9.97735 6.30592 9.66913 7.07208 9.11785 7.64798L7.95885 9.10498C8.59969 10.6621 9.54191 12.0772 10.7314 13.2691C11.9208 14.4609 13.334 15.406 14.8898 16.05L16.3548 14.885C16.9307 14.334 17.6966 14.026 18.4936 14.0248C19.2906 14.0237 20.0574 14.3296 20.6348 14.879C20.6348 14.879 23.0438 16.732 23.0748 16.762ZM21.6998 18.216C21.6998 18.216 19.3068 16.374 19.2758 16.344C19.0698 16.1397 18.7915 16.0251 18.5013 16.0251C18.2112 16.0251 17.9329 16.1397 17.7268 16.344C17.6998 16.37 15.6828 17.978 15.6828 17.978C15.5469 18.0862 15.3852 18.1571 15.2135 18.1837C15.0418 18.2104 14.8662 18.1919 14.7038 18.13C12.6871 17.38 10.8552 16.2049 9.3327 14.6844C7.81016 13.164 6.63257 11.3337 5.87985 9.31798C5.81399 9.1541 5.79272 8.9757 5.81819 8.80093C5.84366 8.62616 5.91496 8.46125 6.02485 8.32298C6.02485 8.32298 7.63185 6.30598 7.65885 6.27898C7.86311 6.07297 7.97772 5.7946 7.97772 5.50448C7.97772 5.21437 7.86311 4.936 7.65885 4.72998C7.62885 4.69998 5.78685 2.30598 5.78685 2.30598C5.57787 2.11836 5.30505 2.01777 5.02429 2.02484C4.74354 2.0319 4.47612 2.14608 4.27685 2.34398L3.12785 3.34398C-2.51615 10.126 14.7568 26.442 20.6998 20.826L21.6118 19.776C21.8269 19.5787 21.9564 19.3052 21.9728 19.0139C21.9892 18.7225 21.8913 18.4362 21.6998 18.216Z" fill="#262626"/>
</svg>
