<svg width="24" height="24" viewBox="0 0 24 24" fill="none" xmlns="http://www.w3.org/2000/svg">
<g clip-path="url(#clip0_1_1677)">
<path d="M24.0002 11.9831C23.9981 11.169 23.7472 10.375 23.2813 9.70751C22.8154 9.03998 22.1566 8.53076 21.3932 8.24806L21.3552 8.15706C20.3631 5.7305 18.4639 3.78644 16.0612 2.73806L15.7322 2.59406C15.4489 1.83298 14.9397 1.17672 14.2728 0.71333C13.6059 0.249941 12.8133 0.00158691 12.0012 0.00158691C11.1891 0.00158691 10.3964 0.249941 9.72954 0.71333C9.06265 1.17672 8.55342 1.83298 8.27018 2.59406L7.85218 2.78206C5.47072 3.86371 3.59638 5.81969 2.61718 8.24506C1.85252 8.52366 1.19165 9.02997 0.723628 9.69575C0.255607 10.3615 0.00293514 11.1548 -0.000334082 11.9686C-0.00360331 12.7824 0.242687 13.5777 0.705344 14.2472C1.168 14.9167 1.82478 15.4283 2.58718 15.7131L2.71518 16.0131C3.71853 18.342 5.56122 20.2082 7.87718 21.2411L8.27018 21.4171C8.55422 22.1771 9.06364 22.8322 9.73025 23.2947C10.3969 23.7572 11.1888 24.005 12.0002 24.005C12.8115 24.005 13.6035 23.7572 14.2701 23.2947C14.9367 22.8322 15.4461 22.1771 15.7302 21.4171L16.0972 21.2541C18.5198 20.1708 20.4244 18.1855 21.4062 15.7201C22.167 15.4344 22.8227 14.9238 23.2861 14.2562C23.7495 13.5886 23.9986 12.7957 24.0002 11.9831ZM12.0002 2.00006C12.3957 2.00006 12.7824 2.11736 13.1113 2.33712C13.4402 2.55689 13.6966 2.86924 13.8479 3.2347C13.9993 3.60015 14.0389 4.00228 13.9617 4.39024C13.8846 4.77821 13.6941 5.13457 13.4144 5.41428C13.1347 5.69398 12.7783 5.88446 12.3904 5.96163C12.0024 6.0388 11.6003 5.9992 11.2348 5.84782C10.8694 5.69645 10.557 5.4401 10.3372 5.1112C10.1175 4.7823 10.0002 4.39563 10.0002 4.00006C10.0002 3.46963 10.2109 2.96092 10.586 2.58585C10.961 2.21078 11.4697 2.00006 12.0002 2.00006ZM3.98818 9.98506L4.07018 10.0161L4.08018 9.99106C4.58128 10.0359 5.04451 10.2764 5.36946 10.6605C5.69441 11.0446 5.85488 11.5413 5.81609 12.0429C5.7773 12.5445 5.54237 13.0106 5.16223 13.3401C4.78209 13.6697 4.28738 13.8361 3.78535 13.8034C3.28332 13.7707 2.81442 13.5414 2.4803 13.1652C2.14619 12.7891 1.97379 12.2964 2.00047 11.794C2.02716 11.2916 2.25078 10.82 2.62286 10.4814C2.99495 10.1428 3.4855 9.96444 3.98818 9.98506ZM12.0002 22.0001C11.6046 22.0001 11.2179 21.8828 10.889 21.663C10.5601 21.4432 10.3038 21.1309 10.1524 20.7654C10.001 20.4 9.96144 19.9978 10.0386 19.6099C10.1158 19.2219 10.3063 18.8656 10.586 18.5859C10.8657 18.3061 11.222 18.1157 11.61 18.0385C11.998 17.9613 12.4001 18.0009 12.7655 18.1523C13.131 18.3037 13.4434 18.56 13.6631 18.8889C13.8829 19.2178 14.0002 19.6045 14.0002 20.0001C14.0002 20.5305 13.7895 21.0392 13.4144 21.4143C13.0393 21.7894 12.5306 22.0001 12.0002 22.0001ZM15.8932 19.1141C15.6941 18.2301 15.2002 17.4402 14.4926 16.8742C13.7849 16.3082 12.9058 15.9998 11.9997 15.9998C11.0936 15.9998 10.2144 16.3082 9.5068 16.8742C8.79919 17.4402 8.30524 18.2301 8.10618 19.1141C6.74077 18.369 5.61901 17.2462 4.87518 15.8801C5.75639 15.681 6.54397 15.1888 7.10916 14.484C7.67434 13.7792 7.98367 12.9034 7.98657 12C7.98947 11.0966 7.68578 10.2189 7.12514 9.5105C6.5645 8.80208 5.78009 8.30483 4.90018 8.10006C5.64675 6.7532 6.75792 5.64411 8.10618 4.90006C8.30607 5.78306 8.80025 6.57185 9.50757 7.13695C10.2149 7.70204 11.0933 8.00986 11.9987 8.00986C12.904 8.00986 13.7825 7.70204 14.4898 7.13695C15.1971 6.57185 15.6913 5.78306 15.8912 4.90006C17.2384 5.64329 18.3502 6.74952 19.1002 8.09306C18.2176 8.29466 17.4297 8.79035 16.866 9.49876C16.3022 10.2072 15.9961 11.0862 15.9979 11.9916C15.9996 12.8969 16.3091 13.7747 16.8756 14.481C17.442 15.1872 18.2318 15.6799 19.1152 15.8781C18.3689 17.2398 17.2517 18.3619 15.8932 19.1141ZM20.0002 13.9831C19.6046 13.9831 19.2179 13.8658 18.889 13.646C18.5601 13.4262 18.3038 13.1139 18.1524 12.7484C18.001 12.383 17.9614 11.9808 18.0386 11.5929C18.1158 11.2049 18.3063 10.8486 18.586 10.5689C18.8657 10.2891 19.222 10.0987 19.61 10.0215C19.998 9.94432 20.4001 9.98393 20.7655 10.1353C21.131 10.2867 21.4434 10.543 21.6631 10.8719C21.8829 11.2008 22.0002 11.5875 22.0002 11.9831C22.0002 12.5135 21.7895 13.0222 21.4144 13.3973C21.0393 13.7724 20.5306 13.9831 20.0002 13.9831Z" fill="#262626"/>
</g>
<defs>
<clipPath id="clip0_1_1677">
<rect width="24" height="24" fill="white"/>
</clipPath>
</defs>
</svg>
