<svg width="20" height="20" viewBox="0 0 20 20" fill="none" xmlns="http://www.w3.org/2000/svg">
<g clip-path="url(#clip0_1524_28329)">
<path d="M4.4443 1.6853C6.08879 0.58649 8.02219 0 10 0C12.6513 0.00286757 15.1932 1.05736 17.0679 2.9321C18.9426 4.80684 19.9971 7.34872 20 10C20 11.9778 19.4135 13.9112 18.3147 15.5557C17.2159 17.2002 15.6541 18.4819 13.8268 19.2388C11.9996 19.9957 9.98891 20.1937 8.0491 19.8079C6.10929 19.422 4.32746 18.4696 2.92894 17.0711C1.53041 15.6725 0.578004 13.8907 0.192152 11.9509C-0.193701 10.0111 0.00433286 8.00043 0.761209 6.17317C1.51809 4.3459 2.79981 2.78412 4.4443 1.6853Z" fill="#36CFC9"/>
<path d="M8.75181 14.1665C8.53268 14.1667 8.31566 14.1237 8.11319 14.0399C7.91071 13.9561 7.72674 13.8332 7.57181 13.6782L4.41848 10.5957C4.26045 10.441 4.17036 10.2298 4.16802 10.0087C4.16567 9.78756 4.25127 9.57454 4.40598 9.41652C4.56069 9.25849 4.77184 9.1684 4.99297 9.16606C5.21411 9.16371 5.42712 9.24931 5.58515 9.40402L8.74598 12.4932L14.4176 6.90985C14.5776 6.76912 14.7854 6.69499 14.9983 6.70269C15.2112 6.71039 15.413 6.79934 15.5624 6.95126C15.7117 7.10317 15.7972 7.30652 15.8013 7.51952C15.8054 7.73252 15.7277 7.93899 15.5843 8.09652L9.92348 13.6857C9.76939 13.8389 9.58659 13.9603 9.38554 14.0428C9.18449 14.1253 8.96913 14.1674 8.75181 14.1665Z" fill="white"/>
</g>
<defs>
<clipPath id="clip0_1524_28329">
<rect width="20" height="20" fill="white"/>
</clipPath>
</defs>
</svg>