<svg width="24" height="24" viewBox="0 0 24 24" fill="none" xmlns="http://www.w3.org/2000/svg">
<g clip-path="url(#clip0_1_1724)">
<path d="M5.88873 2.85383C7.69767 1.64514 9.82441 1 12 1C14.9174 1 17.7153 2.15893 19.7782 4.22183C21.8411 6.28473 23 9.08262 23 12C23 14.1756 22.3549 16.3023 21.1462 18.1113C19.9375 19.9202 18.2195 21.3301 16.2095 22.1627C14.1995 22.9952 11.9878 23.2131 9.85401 22.7886C7.72022 22.3642 5.76021 21.3166 4.22183 19.7782C2.68345 18.2398 1.6358 16.2798 1.21137 14.146C0.78693 12.0122 1.00477 9.80047 1.83733 7.79048C2.66989 5.7805 4.07979 4.06253 5.88873 2.85383Z" stroke="#262626" stroke-width="2"/>
</g>
<defs>
<clipPath id="clip0_1_1724">
<rect width="24" height="24" fill="white"/>
</clipPath>
</defs>
</svg>
