<svg width="24" height="24" viewBox="0 0 24 24" fill="none" xmlns="http://www.w3.org/2000/svg">
<g clip-path="url(#clip0_1_1753)">
<path d="M10.4999 16.9999C10.2369 17.0001 9.97649 16.9485 9.73352 16.8479C9.49054 16.7474 9.26978 16.5999 9.08387 16.4139L5.29987 12.7149C5.11024 12.5293 5.00213 12.2759 4.99931 12.0105C4.9965 11.7452 5.09922 11.4896 5.28487 11.2999C5.47052 11.1103 5.7239 11.0022 5.98926 10.9994C6.25463 10.9966 6.51024 11.0993 6.69987 11.2849L10.4929 14.9919L17.2989 8.29192C17.4908 8.12305 17.7401 8.03409 17.9956 8.04333C18.2511 8.05257 18.4933 8.15931 18.6725 8.34161C18.8518 8.52391 18.9544 8.76792 18.9593 9.02352C18.9642 9.27912 18.871 9.52689 18.6989 9.71592L11.9059 16.4229C11.721 16.6068 11.5016 16.7525 11.2603 16.8515C11.0191 16.9505 10.7607 17.0009 10.4999 16.9999ZM23.9999 18.9999V12.3399C24.0372 9.25737 22.907 6.27482 20.8362 3.99109C18.7654 1.70737 15.9074 0.291558 12.8359 0.0279206C11.1215 -0.0920218 9.4014 0.15766 7.79191 0.760073C6.18241 1.36249 4.72108 2.30358 3.50679 3.51967C2.29249 4.73576 1.35357 6.19849 0.753545 7.80888C0.153518 9.41927 -0.0936135 11.1398 0.0288701 12.8539C0.47087 19.2079 6.08187 23.9999 13.0829 23.9999H18.9999C20.3255 23.9983 21.5963 23.471 22.5337 22.5337C23.471 21.5964 23.9983 20.3255 23.9999 18.9999ZM12.6999 2.02392C15.2663 2.25096 17.6518 3.44083 19.377 5.35448C21.1021 7.26812 22.0392 9.76374 21.9999 12.3399V18.9999C21.9999 19.7956 21.6838 20.5586 21.1212 21.1212C20.5586 21.6839 19.7955 21.9999 18.9999 21.9999H13.0829C7.04887 21.9999 2.39987 18.0999 2.02487 12.7159C1.92642 11.3445 2.11184 9.96752 2.56955 8.67099C3.02726 7.37446 3.74742 6.18625 4.68504 5.18059C5.62266 4.17493 6.7576 3.37343 8.01894 2.82617C9.28028 2.2789 10.6409 1.99763 12.0159 1.99992C12.2429 1.99992 12.4719 2.00892 12.6999 2.02392Z" fill="#262626"/>
</g>
<defs>
<clipPath id="clip0_1_1753">
<rect width="24" height="24" fill="white"/>
</clipPath>
</defs>
</svg>
