<svg width="24" height="24" viewBox="0 0 24 24" fill="none" xmlns="http://www.w3.org/2000/svg">
<path d="M18.6743 5.32569C18.4657 5.11715 18.1828 5 17.8879 5C17.5929 5 17.31 5.11715 17.1014 5.32569L12 10.4271L6.8986 5.32569C6.69 5.11715 6.40711 5 6.11215 5C5.81718 5 5.53429 5.11715 5.32569 5.32569C5.11715 5.53429 5 5.81718 5 6.11215C5 6.40711 5.11715 6.69 5.32569 6.8986L10.4271 12L5.32569 17.1014C5.11715 17.31 5 17.5929 5 17.8879C5 18.1828 5.11715 18.4657 5.32569 18.6743C5.53429 18.8829 5.81718 19 6.11215 19C6.40711 19 6.69 18.8829 6.8986 18.6743L12 13.5729L17.1014 18.6743C17.31 18.8829 17.5929 19 17.8879 19C18.1828 19 18.4657 18.8829 18.6743 18.6743C18.8829 18.4657 19 18.1828 19 17.8879C19 17.5929 18.8829 17.31 18.6743 17.1014L13.5729 12L18.6743 6.8986C18.8829 6.69 19 6.40711 19 6.11215C19 5.81718 18.8829 5.53429 18.6743 5.32569Z"/>
</svg>
