<svg width="24" height="24" viewBox="0 0 24 24" fill="none" xmlns="http://www.w3.org/2000/svg">
<path d="M17.9808 11.5174C17.8096 11.1402 17.365 10.9732 16.9878 11.1445C16.6107 11.3157 16.4437 11.7602 16.615 12.1374L17.9808 11.5174ZM20.0273 13.5736L20.0372 12.8237C20.0323 12.8236 20.0274 12.8236 20.0225 12.8236L20.0273 13.5736ZM23 10.6793L23.75 10.6894V10.6793H23ZM23 4.88776H23.7501L23.7499 4.87588L23 4.88776ZM20.0273 2.00026L20.0213 2.75023C20.0266 2.75028 20.0319 2.75026 20.0372 2.75019L20.0273 2.00026ZM16.4882 3.76003C16.3536 4.15178 16.5621 4.57843 16.9539 4.71297C17.3457 4.84751 17.7723 4.63899 17.9068 4.24724L16.4882 3.76003ZM16.6126 12.1323C16.7811 12.5107 17.2244 12.681 17.6028 12.5126C17.9812 12.3442 18.1515 11.9009 17.9831 11.5224L16.6126 12.1323ZM17.0545 10.6792L17.8045 10.6799V10.6792H17.0545ZM17.0545 4.88774H17.8045L17.8045 4.88254L17.0545 4.88774ZM17.9054 4.2295C18.0332 3.83549 17.8174 3.41249 17.4234 3.2847C17.0294 3.15691 16.6064 3.37272 16.4786 3.76673L17.9054 4.2295ZM17.9693 12.1615C18.1539 11.7907 18.0029 11.3405 17.632 11.1559C17.2612 10.9714 16.811 11.1224 16.6264 11.4932L17.9693 12.1615ZM16.3244 13.0222L16.7672 13.6276C16.774 13.6226 16.7807 13.6175 16.7873 13.6123L16.3244 13.0222ZM15.8046 13.7592L15.0858 13.5453C15.0831 13.5543 15.0806 13.5633 15.0783 13.5723L15.8046 13.7592ZM14.3182 19.5342L15.0384 19.7438C15.0406 19.7363 15.0426 19.7288 15.0446 19.7212L14.3182 19.5342ZM11.4046 21.1705L11.6005 20.4465C11.5948 20.445 11.589 20.4435 11.5833 20.4421L11.4046 21.1705ZM9.96912 20.1064L10.6141 19.7237V19.7237L9.96912 20.1064ZM9.723 18.3366L8.9999 18.1374L8.99805 18.1444L9.723 18.3366ZM10.5727 15.2525L11.2959 15.4517L11.2988 15.4403L10.5727 15.2525ZM10.3598 14.2397L10.9487 13.7754V13.7753L10.3598 14.2397ZM9.42462 13.7964V14.5465L9.4379 14.5463L9.42462 13.7964ZM4.56812 13.7964V13.0463L4.5578 13.0464L4.56812 13.7964ZM2.06443 12.799L1.5413 13.3365L1.5413 13.3365L2.06443 12.799ZM0.999996 10.3231H0.249931L0.250061 10.333L0.999996 10.3231ZM0.999996 5.6935L0.249996 5.68331V5.6935H0.999996ZM2.06491 3.21848L2.58794 3.75601V3.75601L2.06491 3.21848ZM4.56812 2.22162L4.5578 2.97162H4.56812V2.22162ZM14.0817 2.22162V2.97163L14.0855 2.97161L14.0817 2.22162ZM16.5491 4.38063C16.7574 4.73871 17.2164 4.8602 17.5745 4.65198C17.9326 4.44377 18.0541 3.9847 17.8459 3.62662L16.5491 4.38063ZM16.615 12.1374C17.2229 13.4765 18.5614 14.3329 20.032 14.3236L20.0225 12.8236C19.1438 12.8292 18.344 12.3175 17.9808 11.5174L16.615 12.1374ZM20.0173 14.3236C22.0515 14.3504 23.7225 12.7235 23.7499 10.6894L22.2501 10.6691C22.2338 11.8751 21.2431 12.8396 20.0372 12.8237L20.0173 14.3236ZM23.75 10.6793V4.88776H22.25V10.6793H23.75ZM23.7499 4.87588C23.7177 2.84511 22.0482 1.22342 20.0173 1.25032L20.0372 2.75019C21.2412 2.73424 22.231 3.69568 22.2501 4.89964L23.7499 4.87588ZM20.0332 1.25028C18.4348 1.23769 17.0073 2.24829 16.4882 3.76003L17.9068 4.24724C18.2165 3.34552 19.068 2.74272 20.0213 2.75023L20.0332 1.25028ZM17.9831 11.5224C17.8651 11.2573 17.8042 10.9702 17.8045 10.6799L16.3045 10.6785C16.304 11.1794 16.409 11.6747 16.6126 12.1323L17.9831 11.5224ZM17.8045 10.6792V4.88774H16.3045V10.6792H17.8045ZM17.8045 4.88254C17.8029 4.66086 17.837 4.44037 17.9054 4.2295L16.4786 3.76673C16.3606 4.13039 16.3019 4.51064 16.3045 4.89295L17.8045 4.88254ZM16.6264 11.4932C16.4443 11.8591 16.183 12.1799 15.8614 12.4322L16.7873 13.6123C17.2842 13.2225 17.6879 12.7269 17.9693 12.1615L16.6264 11.4932ZM15.8816 12.4169C15.5001 12.696 15.2206 13.0923 15.0858 13.5453L16.5235 13.9731C16.5648 13.8344 16.6504 13.713 16.7672 13.6276L15.8816 12.4169ZM15.0783 13.5723L13.5919 19.3473L15.0446 19.7212L16.5309 13.9462L15.0783 13.5723ZM13.5981 19.3247C13.3491 20.1804 12.4608 20.6793 11.6005 20.4465L11.2088 21.8945C12.858 22.3407 14.561 21.3843 15.0384 19.7438L13.5981 19.3247ZM11.5833 20.4421C11.1769 20.3424 10.8276 20.0835 10.6141 19.7237L9.32413 20.4892C9.74316 21.1953 10.4285 21.7033 11.226 21.8989L11.5833 20.4421ZM10.6141 19.7237C10.4006 19.3639 10.3407 18.9333 10.4479 18.5288L8.99805 18.1444C8.7876 18.9381 8.90511 19.783 9.32413 20.4892L10.6141 19.7237ZM10.4461 18.5358L11.2958 15.4517L9.84969 15.0533L8.99994 18.1374L10.4461 18.5358ZM11.2988 15.4403C11.4487 14.8611 11.3192 14.2452 10.9487 13.7754L9.77083 14.7041C9.85105 14.8058 9.8791 14.9392 9.84665 15.0647L11.2988 15.4403ZM10.9487 13.7753C10.5783 13.3055 10.0095 13.0359 9.41134 13.0465L9.4379 14.5463C9.56744 14.544 9.69061 14.6024 9.77083 14.7041L10.9487 13.7753ZM9.42462 13.0464H4.56812V14.5464H9.42462V13.0464ZM4.5578 13.0464C3.82295 13.0566 3.1142 12.7742 2.58757 12.2616L1.5413 13.3365C2.3531 14.1267 3.44565 14.5619 4.57844 14.5463L4.5578 13.0464ZM2.58757 12.2616C2.06095 11.749 1.75962 11.0481 1.74993 10.3132L0.250061 10.333C0.264999 11.4658 0.729498 12.5462 1.5413 13.3365L2.58757 12.2616ZM1.75 10.3231V5.6935H0.249996V10.3231H1.75ZM1.74993 5.70368C1.7599 4.96901 2.06135 4.2684 2.58794 3.75601L1.54188 2.68095C0.730131 3.4708 0.265442 4.55081 0.250065 5.68331L1.74993 5.70368ZM2.58794 3.75601C3.11454 3.24362 3.82313 2.96144 4.5578 2.97155L4.57844 1.47169C3.44594 1.4561 2.35364 1.89109 1.54188 2.68095L2.58794 3.75601ZM4.56812 2.97162H14.0817V1.47162H4.56812V2.97162ZM14.0855 2.97161C15.0997 2.96649 16.0393 3.50386 16.5491 4.38063L17.8459 3.62662C17.0661 2.28567 15.6291 1.46379 14.078 1.47163L14.0855 2.97161Z" fill="#262626"/>
</svg>
