<svg width="24" height="24" viewBox="0 0 24 24" fill="none" xmlns="http://www.w3.org/2000/svg">
<g clip-path="url(#clip0_1_1876)">
<path d="M21.5 2.50001C19.8937 0.908417 17.7238 0.0155029 15.4625 0.0155029C13.2012 0.0155029 11.0314 0.908417 9.42501 2.50001C7.04801 4.877 6.26801 10.409 6.01501 13.5C5.94544 14.3685 6.15005 15.2369 6.60001 15.983L2.80001 19.783C2.65891 19.5249 2.44503 19.314 2.18499 19.1765C1.92494 19.039 1.63021 18.981 1.33746 19.0097C1.0447 19.0384 0.766853 19.1525 0.538473 19.3379C0.310093 19.5233 0.141264 19.7718 0.0529904 20.0524C-0.0352835 20.333 -0.0391058 20.6333 0.0419989 20.9161C0.123104 21.1989 0.285555 21.4515 0.509143 21.6427C0.732732 21.8338 1.00759 21.955 1.29951 21.9911C1.59144 22.0273 1.88755 21.9768 2.15101 21.846C2.02018 22.1094 1.9697 22.4056 2.00585 22.6975C2.042 22.9894 2.16319 23.2643 2.35433 23.4879C2.54548 23.7114 2.79815 23.8739 3.0809 23.955C3.36366 24.0361 3.66402 24.0323 3.94462 23.944C4.22522 23.8557 4.47367 23.6869 4.65906 23.4585C4.84446 23.2301 4.95861 22.9523 4.98732 22.6595C5.01603 22.3668 4.95803 22.0721 4.82053 21.812C4.68304 21.552 4.47212 21.3381 4.21401 21.197L8.01401 17.397C8.75885 17.8514 9.6283 18.0586 10.498 17.989C13.584 17.736 19.115 16.957 21.498 14.579C23.0913 12.9729 23.9855 10.8023 23.9859 8.53991C23.9863 6.27755 23.0928 4.10666 21.5 2.50001ZM20.085 13.162C18.698 14.547 15.056 15.606 10.341 15.993C10.0277 16.0201 9.71219 15.9784 9.4167 15.8707C9.1212 15.763 8.85284 15.5919 8.63045 15.3696C8.40806 15.1472 8.23701 14.8788 8.12932 14.5833C8.02162 14.2878 7.97988 13.9723 8.00701 13.659C8.39401 8.944 9.45301 5.3 10.838 3.915C11.4428 3.297 12.1641 2.80508 12.9602 2.4677C13.7564 2.13033 14.6115 1.9542 15.4762 1.94952C16.3408 1.94484 17.1978 2.11169 17.9976 2.44042C18.7973 2.76915 19.524 3.25323 20.1354 3.86465C20.7468 4.47607 21.2309 5.20267 21.5596 6.00242C21.8883 6.80217 22.0552 7.65917 22.0505 8.52383C22.0458 9.38849 21.8697 10.2436 21.5323 11.0398C21.1949 11.8359 20.703 12.5572 20.085 13.162Z" fill="#262626"/>
</g>
<defs>
<clipPath id="clip0_1_1876">
<rect width="24" height="24" fill="white"/>
</clipPath>
</defs>
</svg>
