<svg width="24" height="24" viewBox="0 0 24 24" fill="none" xmlns="http://www.w3.org/2000/svg">
<g clip-path="url(#clip0_1_1927)">
<path d="M16.0002 16C16.0002 16.2652 15.8948 16.5196 15.7073 16.7071C15.5197 16.8946 15.2654 17 15.0002 17H13.0002V19C13.0002 19.2652 12.8948 19.5196 12.7073 19.7071C12.5197 19.8946 12.2654 20 12.0002 20C11.7349 20 11.4806 19.8946 11.293 19.7071C11.1055 19.5196 11.0002 19.2652 11.0002 19V17H9.00015C8.73494 17 8.48058 16.8946 8.29305 16.7071C8.10551 16.5196 8.00015 16.2652 8.00015 16C8.00015 15.7348 8.10551 15.4804 8.29305 15.2929C8.48058 15.1053 8.73494 15 9.00015 15H11.0002V13C11.0002 12.7348 11.1055 12.4804 11.293 12.2929C11.4806 12.1053 11.7349 12 12.0002 12C12.2654 12 12.5197 12.1053 12.7073 12.2929C12.8948 12.4804 13.0002 12.7348 13.0002 13V15H15.0002C15.2654 15 15.5197 15.1053 15.7073 15.2929C15.8948 15.4804 16.0002 15.7348 16.0002 16ZM22.0002 10.485V19C21.9986 20.3256 21.4713 21.5964 20.5339 22.5338C19.5966 23.4711 18.3257 23.9984 17.0002 24H7.00015C5.67456 23.9984 4.40371 23.4711 3.46637 22.5338C2.52903 21.5964 2.00174 20.3256 2.00015 19V4.99999C2.00174 3.6744 2.52903 2.40355 3.46637 1.46621C4.40371 0.528874 5.67456 0.00158039 7.00015 -7.4689e-06H11.5152C12.4348 -0.00237439 13.3457 0.17758 14.1954 0.529452C15.045 0.881323 15.8165 1.39813 16.4652 2.04999L19.9492 5.53599C20.6014 6.18423 21.1185 6.95545 21.4706 7.80497C21.8226 8.65448 22.0026 9.56542 22.0002 10.485ZM15.0512 3.46399C14.7364 3.15915 14.3831 2.89692 14.0002 2.68399V6.99999C14.0002 7.26521 14.1055 7.51956 14.293 7.7071C14.4806 7.89464 14.7349 7.99999 15.0002 7.99999H19.3162C19.1031 7.61718 18.8405 7.26414 18.5352 6.94999L15.0512 3.46399ZM20.0002 10.485C20.0002 10.32 19.9682 10.162 19.9532 9.99999H15.0002C14.2045 9.99999 13.4414 9.68392 12.8788 9.12131C12.3162 8.5587 12.0002 7.79564 12.0002 6.99999V2.04699C11.8382 2.03199 11.6792 1.99999 11.5152 1.99999H7.00015C6.2045 1.99999 5.44144 2.31606 4.87883 2.87867C4.31622 3.44128 4.00015 4.20434 4.00015 4.99999V19C4.00015 19.7956 4.31622 20.5587 4.87883 21.1213C5.44144 21.6839 6.2045 22 7.00015 22H17.0002C17.7958 22 18.5589 21.6839 19.1215 21.1213C19.6841 20.5587 20.0002 19.7956 20.0002 19V10.485Z" fill="#262626"/>
</g>
<defs>
<clipPath id="clip0_1_1927">
<rect width="24" height="24" fill="white"/>
</clipPath>
</defs>
</svg>
