<svg width="24" height="24" viewBox="0 0 24 24" fill="none" xmlns="http://www.w3.org/2000/svg">
<g clip-path="url(#clip0_1_1972)">
<path d="M23.5351 14.7255C23.328 14.4739 23.0623 14.2771 22.7614 14.1523C22.4604 14.0274 22.1334 13.9784 21.8091 14.0094C20.0668 14.1472 18.3756 14.6641 16.8539 15.524C15.3323 16.3839 14.017 17.5659 13.0001 18.9874V13.9104C14.3966 13.6732 15.6644 12.9499 16.5793 11.8685C17.4942 10.787 17.9975 9.417 18.0001 8.00045C18.0001 5.20745 16.0571 2.84845 14.1561 0.90945C13.5797 0.346296 12.8059 0.0310059 12.0001 0.0310059C11.1943 0.0310059 10.4205 0.346296 9.84411 0.90945C7.94311 2.84845 6.00011 5.20745 6.00011 8.00045C6.00274 9.417 6.50598 10.787 7.42091 11.8685C8.33583 12.9499 9.60357 13.6732 11.0001 13.9104V18.9874C9.98322 17.5659 8.66792 16.3839 7.14628 15.524C5.62465 14.6641 3.93346 14.1472 2.19111 14.0094C1.8668 13.9786 1.53986 14.0277 1.23894 14.1525C0.938028 14.2773 0.672321 14.4741 0.465108 14.7255C0.259221 14.9699 0.115867 15.2608 0.0474026 15.5729C-0.0210618 15.8851 -0.0125832 16.2093 0.0721076 16.5175C2.11111 23.8554 11.5911 24.0005 11.9941 24.0005H12.0061C12.4061 24.0005 21.8901 23.8554 23.9291 16.5175C24.0133 16.2092 24.0215 15.885 23.9528 15.5729C23.8842 15.2608 23.7409 14.97 23.5351 14.7255ZM8.00011 8.00045C8.00011 5.34645 11.3181 2.28145 11.3381 2.26445C10.9731 3.20045 8.69311 8.90045 11.0001 9.00045C11.2653 9.00045 11.5197 8.89509 11.7072 8.70756C11.8948 8.52002 12.0001 8.26567 12.0001 8.00045C12.0756 6.22189 12.5028 4.47592 13.2571 2.86345C14.6881 4.39345 16.0001 6.15445 16.0001 8.00045C16.0001 9.06132 15.5787 10.0787 14.8285 10.8289C14.0784 11.579 13.061 12.0005 12.0001 12.0005C10.9392 12.0005 9.92183 11.579 9.17168 10.8289C8.42153 10.0787 8.00011 9.06132 8.00011 8.00045ZM2.00611 16.0005C3.80784 16.1464 5.53912 16.7654 7.02496 17.7949C8.5108 18.8243 9.69853 20.2278 10.4681 21.8635C7.97111 21.5175 3.20011 20.3004 2.00611 16.0005ZM13.5451 21.8615C14.321 20.2304 15.509 18.83 16.9919 17.7988C18.4747 16.7676 20.201 16.1411 22.0001 15.9815C20.8061 20.2835 16.0461 21.5114 13.5451 21.8615Z" fill="#262626"/>
</g>
<defs>
<clipPath id="clip0_1_1972">
<rect width="24" height="24" fill="white"/>
</clipPath>
</defs>
</svg>
