<svg
viewBox="0 0 16 17"
xmlns="http://www.w3.org/2000/svg"
>
<g clip-path="url(#clip0_703_20597)">
<path
d="M14.6667 0.44043H12C11.8232 0.44043 11.6536 0.510668 11.5286 0.635692C11.4036 0.760716 11.3334 0.930285 11.3334 1.1071C11.3334 1.28391 11.4036 1.45348 11.5286 1.5785C11.6536 1.70353 11.8232 1.77376 12 1.77376H13.724L12.124 3.37376C11.3944 2.82275 10.5178 2.50026 9.60505 2.44698C8.69226 2.39371 7.78416 2.61204 6.99536 3.07443C6.40084 2.7309 5.73774 2.52301 5.05351 2.46564C4.36928 2.40827 3.68082 2.50284 3.0374 2.74258C2.39398 2.98232 1.8115 3.3613 1.33163 3.85241C0.851766 4.34353 0.486375 4.93463 0.261603 5.58343C0.0368316 6.23223 -0.0417647 6.92269 0.0314376 7.60541C0.10464 8.28813 0.327832 8.94624 0.685044 9.53264C1.04226 10.119 1.52466 10.6192 2.09774 10.9975C2.67081 11.3757 3.3204 11.6226 4.00002 11.7204V13.1071H2.66669C2.48988 13.1071 2.32031 13.1773 2.19528 13.3024C2.07026 13.4274 2.00002 13.597 2.00002 13.7738C2.00002 13.9506 2.07026 14.1201 2.19528 14.2452C2.32031 14.3702 2.48988 14.4404 2.66669 14.4404H4.00002V15.7738C4.00002 15.9506 4.07026 16.1201 4.19528 16.2452C4.32031 16.3702 4.48988 16.4404 4.66669 16.4404C4.8435 16.4404 5.01307 16.3702 5.13809 16.2452C5.26312 16.1201 5.33336 15.9506 5.33336 15.7738V14.4404H6.66669C6.8435 14.4404 7.01307 14.3702 7.13809 14.2452C7.26312 14.1201 7.33336 13.9506 7.33336 13.7738C7.33336 13.597 7.26312 13.4274 7.13809 13.3024C7.01307 13.1773 6.8435 13.1071 6.66669 13.1071H5.33336V11.7251C5.91939 11.6378 6.48318 11.4386 6.99402 11.1384C7.92283 11.6817 9.01109 11.8866 10.0739 11.7183C11.1366 11.55 12.1083 11.0189 12.8238 10.2152C13.5394 9.41159 13.9545 8.38498 13.9988 7.30988C14.0431 6.23478 13.7137 5.17751 13.0667 4.31776L14.6667 2.71776V4.44043C14.6667 4.61724 14.7369 4.78681 14.862 4.91183C14.987 5.03686 15.1565 5.1071 15.3334 5.1071C15.5102 5.1071 15.6797 5.03686 15.8048 4.91183C15.9298 4.78681 16 4.61724 16 4.44043V1.77376C16 1.42014 15.8595 1.081 15.6095 0.830954C15.3595 0.580905 15.0203 0.44043 14.6667 0.44043V0.44043ZM1.33336 7.1071C1.3302 6.56566 1.45975 6.0317 1.71067 5.55191C1.9616 5.07212 2.32626 4.66113 2.77276 4.35486C3.21926 4.0486 3.73401 3.8564 4.27197 3.79508C4.80992 3.73376 5.35472 3.80518 5.85869 4.0031C5.09132 4.85484 4.66665 5.96065 4.66665 7.1071C4.66665 8.25354 5.09132 9.35935 5.85869 10.2111C5.35472 10.409 4.80992 10.4804 4.27197 10.4191C3.73401 10.3578 3.21926 10.1656 2.77276 9.85933C2.32626 9.55307 1.9616 9.14207 1.71067 8.66228C1.45975 8.18249 1.3302 7.64853 1.33336 7.1071ZM9.33336 10.4404C8.67409 10.4404 8.02962 10.2449 7.48146 9.87866C6.93329 9.51239 6.50605 8.99179 6.25376 8.38271C6.00147 7.77362 5.93545 7.1034 6.06407 6.4568C6.19269 5.81019 6.51016 5.21625 6.97633 4.75007C7.44251 4.2839 8.03645 3.96643 8.68306 3.83781C9.32966 3.70919 9.99988 3.77521 10.609 4.0275C11.2181 4.27979 11.7387 4.70703 12.1049 5.2552C12.4712 5.80336 12.6667 6.44783 12.6667 7.1071C12.6656 7.99083 12.3141 8.83806 11.6892 9.46295C11.0643 10.0878 10.2171 10.4394 9.33336 10.4404Z"
/>
</g>
</svg>
