<svg width="24" height="24" viewBox="0 0 24 24" fill="none" xmlns="http://www.w3.org/2000/svg">
<g clip-path="url(#clip0_8_15731)">
<path d="M14.3068 2.82781C15.2724 2.24839 16.3739 1.93405 17.5 1.91653C19.295 1.99453 20.9863 2.77979 22.2042 4.10077C23.4221 5.42175 24.0677 7.17106 24 8.96653C24 13.5135 19.214 18.4795 15.2 21.8465C14.3038 22.5997 13.1706 23.0126 12 23.0126C10.8293 23.0126 9.69621 22.5997 8.79999 21.8465C4.78599 18.4795 -1.11917e-05 13.5135 -1.11917e-05 8.96653C-0.0677617 7.17106 0.577848 5.42175 1.79577 4.10077C3.01369 2.77979 4.70493 1.99453 6.49999 1.91653C7.62604 1.93405 8.72753 2.24839 9.69323 2.82781C10.6589 3.40722 11.4546 4.2312 12 5.21653C12.5453 4.2312 13.3411 3.40722 14.3068 2.82781Z" fill="#F5222D"/>
</g>
<defs>
<clipPath id="clip0_8_15731">
<rect width="24" height="24" fill="white"/>
</clipPath>
</defs>
</svg>
