<svg width="24" height="24" viewBox="0 0 24 24" fill="none" xmlns="http://www.w3.org/2000/svg">
<g clip-path="url(#clip0_1_2118)">
<path d="M7.50504 23.9996C5.69479 23.9984 3.94604 23.3426 2.58149 22.153C1.21694 20.9635 0.328675 19.3206 0.0806015 17.5274C-0.167472 15.7342 0.24139 13.9118 1.23174 12.3965C2.22209 10.8812 3.72709 9.77519 5.46904 9.28261C6.73516 8.92003 8.07533 8.90346 9.35004 9.23461L17.258 1.32861C17.6778 0.90589 18.1774 0.570741 18.7278 0.342603C19.2781 0.114465 19.8683 -0.00212179 20.464 -0.00039304C21.4016 0.000401392 22.3005 0.373198 22.9635 1.03615C23.6264 1.69911 23.9992 2.59805 24 3.53561C24.0016 4.1314 23.885 4.72158 23.6571 5.27205C23.4291 5.82251 23.0943 6.32233 22.672 6.74261L22 7.41461C21.624 7.78805 21.116 7.99823 20.586 7.99961H19V8.99961C19 9.53004 18.7893 10.0387 18.4143 10.4138C18.0392 10.7889 17.5305 10.9996 17 10.9996H16V12.5856C16.0008 12.8483 15.9493 13.1086 15.8487 13.3513C15.7481 13.594 15.6004 13.8144 15.414 13.9996L14.764 14.6496C15.097 15.9237 15.0808 17.264 14.717 18.5296C14.3078 19.9716 13.4774 21.2586 12.3322 22.2258C11.187 23.193 9.77919 23.7964 8.28904 23.9586C8.02858 23.9857 7.7669 23.9994 7.50504 23.9996ZM7.50504 10.9996C6.48119 10.9986 5.47739 11.2834 4.60663 11.822C3.73587 12.3606 3.03272 13.1315 2.57634 14.048C2.11996 14.9645 1.92847 15.9902 2.02341 17.0096C2.11836 18.0291 2.49598 19.0018 3.11376 19.8182C3.73154 20.6347 4.56496 21.2625 5.5202 21.631C6.47543 21.9995 7.51457 22.0941 8.52063 21.904C9.52668 21.714 10.4597 21.2469 11.2147 20.5553C11.9697 19.8637 12.5167 18.9752 12.794 17.9896C13.106 16.9061 13.0711 15.7522 12.694 14.6896C12.6325 14.5121 12.6222 14.3209 12.6643 14.1379C12.7064 13.9549 12.7992 13.7874 12.932 13.6546L14 12.5856V10.9996C14 10.4692 14.2108 9.96047 14.5858 9.58539C14.9609 9.21032 15.4696 8.99961 16 8.99961H17V7.99961C17 7.46917 17.2108 6.96047 17.5858 6.58539C17.9609 6.21032 18.4696 5.99961 19 5.99961H20.586L21.258 5.32761C21.494 5.09276 21.6811 4.81347 21.8084 4.50588C21.9358 4.1983 22.0009 3.86852 22 3.53561C21.9998 3.12849 21.838 2.73811 21.5502 2.45014C21.2624 2.16217 20.8722 2.00014 20.465 1.99961C20.1319 1.99879 19.8019 2.06403 19.4941 2.19157C19.1864 2.3191 18.907 2.50639 18.672 2.74261L10.341 11.0726C10.2081 11.2055 10.0404 11.2982 9.85713 11.3401C9.67389 11.382 9.48254 11.3715 9.30504 11.3096C8.72511 11.1054 8.11486 11.0006 7.50004 10.9996H7.50504ZM5.00004 17.9996C5.00004 18.1974 5.05869 18.3907 5.16857 18.5552C5.27845 18.7196 5.43463 18.8478 5.61736 18.9235C5.80008 18.9992 6.00115 19.019 6.19513 18.9804C6.38911 18.9418 6.56729 18.8466 6.70715 18.7067C6.847 18.5669 6.94224 18.3887 6.98082 18.1947C7.01941 18.0007 6.99961 17.7997 6.92392 17.6169C6.84823 17.4342 6.72006 17.278 6.55561 17.1681C6.39116 17.0583 6.19782 16.9996 6.00004 16.9996C5.73482 16.9996 5.48047 17.105 5.29293 17.2925C5.1054 17.48 5.00004 17.7344 5.00004 17.9996Z" fill="#262626"/>
</g>
<defs>
<clipPath id="clip0_1_2118">
<rect width="24" height="24" fill="white"/>
</clipPath>
</defs>
</svg>
