<svg width="24" height="24" viewBox="0 0 24 24" fill="none" xmlns="http://www.w3.org/2000/svg">
<g clip-path="url(#clip0_1_2139)">
<path d="M22.4852 10.9753L12.0002 17.2673L1.51515 10.9753C1.28773 10.8389 1.01541 10.7983 0.758115 10.8627C0.500815 10.927 0.279606 11.0909 0.143152 11.3183C0.00669825 11.5457 -0.0338234 11.818 0.0305016 12.0753C0.0948266 12.3326 0.258729 12.5539 0.486152 12.6903L11.4862 19.2903C11.6417 19.3837 11.8197 19.4331 12.0012 19.4331C12.1826 19.4331 12.3606 19.3837 12.5162 19.2903L23.5162 12.6903C23.7436 12.5539 23.9075 12.3326 23.9718 12.0753C24.0361 11.818 23.9956 11.5457 23.8592 11.3183C23.7227 11.0909 23.5015 10.927 23.2442 10.8627C22.9869 10.7983 22.7146 10.8389 22.4872 10.9753H22.4852Z" fill="#262626"/>
<path d="M22.4852 15.5428L12.0002 21.8338L1.51521 15.5428C1.4026 15.4753 1.27779 15.4305 1.1479 15.4112C1.018 15.3919 0.885575 15.3983 0.758173 15.4302C0.630771 15.462 0.51089 15.5187 0.405374 15.5968C0.299859 15.675 0.210775 15.7732 0.14321 15.8858C0.0756451 15.9984 0.0309215 16.1233 0.0115929 16.2531C-0.00773575 16.383 -0.00129082 16.5155 0.0305597 16.6429C0.0948847 16.9002 0.258787 17.1214 0.48621 17.2578L11.4862 23.8579C11.6417 23.9513 11.8198 24.0007 12.0012 24.0007C12.1827 24.0007 12.3607 23.9513 12.5162 23.8579L23.5162 17.2578C23.7436 17.1214 23.9075 16.9002 23.9719 16.6429C24.0362 16.3856 23.9957 16.1133 23.8592 15.8858C23.7228 15.6584 23.5016 15.4945 23.2442 15.4302C22.9869 15.3658 22.7146 15.4064 22.4872 15.5428H22.4852Z" fill="#262626"/>
<path d="M11.9999 14.7734C11.4605 14.7731 10.9313 14.6262 10.4689 14.3484L0.484897 8.35741C0.337045 8.2685 0.214708 8.14286 0.129778 7.99269C0.0448479 7.84252 0.000213623 7.67293 0.000213623 7.50041C0.000213623 7.32788 0.0448479 7.1583 0.129778 7.00813C0.214708 6.85795 0.337045 6.73231 0.484897 6.64341L10.4689 0.652407C10.9313 0.374636 11.4605 0.22789 11.9999 0.22789C12.5393 0.22789 13.0685 0.374636 13.5309 0.652407L23.5149 6.64341C23.6627 6.73231 23.7851 6.85795 23.87 7.00813C23.9549 7.1583 23.9996 7.32788 23.9996 7.50041C23.9996 7.67293 23.9549 7.84252 23.87 7.99269C23.7851 8.14286 23.6627 8.2685 23.5149 8.35741L13.5309 14.3484C13.0685 14.6262 12.5393 14.7731 11.9999 14.7734ZM2.9439 7.50041L11.4999 12.6334C11.651 12.7238 11.8238 12.7715 11.9999 12.7715C12.176 12.7715 12.3488 12.7238 12.4999 12.6334L21.0559 7.50041L12.4999 2.36741C12.3488 2.27701 12.176 2.22928 11.9999 2.22928C11.8238 2.22928 11.651 2.27701 11.4999 2.36741L2.9439 7.50041Z" fill="#262626"/>
</g>
<defs>
<clipPath id="clip0_1_2139">
<rect width="24" height="24" fill="white"/>
</clipPath>
</defs>
</svg>
