<svg width="24" height="24" viewBox="0 0 24 24" fill="none" xmlns="http://www.w3.org/2000/svg">
<g clip-path="url(#clip0_1_2161)">
<path d="M17.0001 13.1841V10.0001C17.0001 9.73484 16.8948 9.48049 16.7072 9.29295C16.5197 9.10541 16.2653 9.00006 16.0001 9.00006V2.41406C16.0002 2.00277 15.8951 1.59829 15.6947 1.23907C15.4944 0.879853 15.2056 0.577821 14.8557 0.361677C14.5058 0.145533 14.1064 0.0224577 13.6955 0.00414671C13.2846 -0.0141643 12.8759 0.072897 12.5081 0.257058L9.88612 1.56706C9.31832 1.84943 8.84081 2.28497 8.50753 2.82447C8.17426 3.36397 7.9985 3.98592 8.00012 4.62006V9.00006C7.73491 9.00006 7.48055 9.10541 7.29302 9.29295C7.10548 9.48049 7.00012 9.73484 7.00012 10.0001V13.1841C6.41721 13.3901 5.91221 13.7713 5.55421 14.2754C5.19621 14.7794 5.00269 15.3818 5.00012 16.0001V19.0001C5.00171 20.3257 5.529 21.5965 6.46634 22.5338C7.40368 23.4712 8.67453 23.9985 10.0001 24.0001H14.0001C15.3257 23.9985 16.5966 23.4712 17.5339 22.5338C18.4712 21.5965 18.9985 20.3257 19.0001 19.0001V16.0001C18.9976 15.3818 18.804 14.7794 18.446 14.2754C18.088 13.7713 17.583 13.3901 17.0001 13.1841ZM9.00012 13.0001V11.0001H15.0001V13.0001H9.00012ZM10.0001 4.62006C9.99939 4.35748 10.0721 4.09994 10.2102 3.87656C10.3482 3.65318 10.546 3.47288 10.7811 3.35606L13.4001 2.04606C13.463 2.01349 13.5332 1.99773 13.604 2.00029C13.6748 2.00285 13.7437 2.02364 13.804 2.06067C13.8644 2.09769 13.9141 2.14968 13.9485 2.21159C13.9829 2.27351 14.0006 2.34325 14.0001 2.41406V9.00006H10.0001V4.62006ZM17.0001 19.0001C17.0001 19.7957 16.6841 20.5588 16.1214 21.1214C15.5588 21.684 14.7958 22.0001 14.0001 22.0001H10.0001C9.20447 22.0001 8.44141 21.684 7.8788 21.1214C7.31619 20.5588 7.00012 19.7957 7.00012 19.0001V16.0001C7.00012 15.7348 7.10548 15.4805 7.29302 15.293C7.48055 15.1054 7.73491 15.0001 8.00012 15.0001H16.0001C16.2653 15.0001 16.5197 15.1054 16.7072 15.293C16.8948 15.4805 17.0001 15.7348 17.0001 16.0001V19.0001Z" fill="#262626"/>
</g>
<defs>
<clipPath id="clip0_1_2161">
<rect width="24" height="24" fill="white"/>
</clipPath>
</defs>
</svg>
