<svg width="24" height="24" viewBox="0 0 24 24" fill="none" xmlns="http://www.w3.org/2000/svg">
<g clip-path="url(#clip0_1_2181)">
<path d="M17.9999 9.06375C18 8.66151 17.9206 8.26322 17.7661 7.89182C17.6117 7.52042 17.3852 7.18326 17.0999 6.89975C16.516 6.3426 15.7399 6.03175 14.9329 6.03175C14.1258 6.03175 13.3498 6.3426 12.7659 6.89975L0.899887 18.7688C0.358306 19.3495 0.0633283 20.1178 0.0771231 20.9117C0.0909179 21.7057 0.412407 22.4633 0.973835 23.0248C1.53526 23.5864 2.29278 23.908 3.08672 23.922C3.88067 23.936 4.64904 23.6412 5.22989 23.0998L17.0999 11.2308C17.3857 10.947 17.6124 10.6093 17.7668 10.2374C17.9213 9.86541 18.0005 9.46651 17.9999 9.06375ZM3.81589 21.6878C3.61373 21.8804 3.34517 21.9879 3.06589 21.9879C2.78661 21.9879 2.51804 21.8804 2.31589 21.6878C2.1173 21.4887 2.00578 21.2189 2.00578 20.9378C2.00578 20.6566 2.1173 20.3868 2.31589 20.1878L10.0849 12.4178L11.5899 13.9228L3.81589 21.6878ZM15.6879 9.81575L12.9999 12.5048L11.4999 10.9998L14.1889 8.31175C14.2847 8.20225 14.4021 8.11359 14.5336 8.05128C14.6651 7.98897 14.808 7.95432 14.9535 7.94949C15.0989 7.94466 15.2438 7.96976 15.3792 8.02321C15.5145 8.07667 15.6375 8.15735 15.7404 8.26025C15.8433 8.36316 15.924 8.4861 15.9774 8.62146C16.0309 8.75683 16.056 8.90172 16.0511 9.04717C16.0463 9.19263 16.0117 9.33554 15.9494 9.46706C15.887 9.59857 15.7984 9.7159 15.6889 9.81175L15.6879 9.81575ZM4.86289 2.85475L6.41289 2.41275L6.85489 0.862753C6.92609 0.614037 7.07634 0.39527 7.28293 0.239533C7.48951 0.0837953 7.74118 -0.000442505 7.99989 -0.000442505C8.25859 -0.000442505 8.51027 0.0837953 8.71685 0.239533C8.92343 0.39527 9.07368 0.614037 9.14489 0.862753L9.58689 2.41275L11.1369 2.85475C11.3856 2.92596 11.6044 3.07621 11.7601 3.28279C11.9158 3.48937 12.0001 3.74104 12.0001 3.99975C12.0001 4.25846 11.9158 4.51013 11.7601 4.71671C11.6044 4.92329 11.3856 5.07355 11.1369 5.14475L9.58689 5.58675L9.14489 7.13675C9.07368 7.38547 8.92343 7.60424 8.71685 7.75997C8.51027 7.91571 8.25859 7.99995 7.99989 7.99995C7.74118 7.99995 7.48951 7.91571 7.28293 7.75997C7.07634 7.60424 6.92609 7.38547 6.85489 7.13675L6.41289 5.58675L4.86289 5.14475C4.61417 5.07355 4.3954 4.92329 4.23967 4.71671C4.08393 4.51013 3.99969 4.25846 3.99969 3.99975C3.99969 3.74104 4.08393 3.48937 4.23967 3.28279C4.3954 3.07621 4.61417 2.92596 4.86289 2.85475ZM23.1369 17.1448L21.5869 17.5868L21.1449 19.1368C21.0737 19.3855 20.9234 19.6042 20.7168 19.76C20.5103 19.9157 20.2586 19.9999 19.9999 19.9999C19.7412 19.9999 19.4895 19.9157 19.2829 19.76C19.0763 19.6042 18.9261 19.3855 18.8549 19.1368L18.4129 17.5868L16.8629 17.1448C16.6142 17.0735 16.3954 16.9233 16.2397 16.7167C16.0839 16.5101 15.9997 16.2585 15.9997 15.9998C15.9997 15.741 16.0839 15.4894 16.2397 15.2828C16.3954 15.0762 16.6142 14.926 16.8629 14.8548L18.4129 14.4128L18.8549 12.8628C18.9261 12.614 19.0763 12.3953 19.2829 12.2395C19.4895 12.0838 19.7412 11.9996 19.9999 11.9996C20.2586 11.9996 20.5103 12.0838 20.7168 12.2395C20.9234 12.3953 21.0737 12.614 21.1449 12.8628L21.5869 14.4128L23.1369 14.8548C23.3856 14.926 23.6044 15.0762 23.7601 15.2828C23.9158 15.4894 24.0001 15.741 24.0001 15.9998C24.0001 16.2585 23.9158 16.5101 23.7601 16.7167C23.6044 16.9233 23.3856 17.0735 23.1369 17.1448ZM17.7549 2.49975L19.1109 2.11275L19.4999 0.754753C19.5632 0.53857 19.6949 0.348724 19.8751 0.213666C20.0554 0.0786066 20.2746 0.00560759 20.4999 0.00560759C20.7252 0.00560759 20.9443 0.0786066 21.1246 0.213666C21.3049 0.348724 21.4366 0.53857 21.4999 0.754753L21.8869 2.11075L23.2429 2.49775C23.4591 2.56106 23.6489 2.69273 23.784 2.87301C23.919 3.05329 23.992 3.27249 23.992 3.49775C23.992 3.72302 23.919 3.94221 23.784 4.1225C23.6489 4.30278 23.4591 4.43444 23.2429 4.49775L21.8869 4.88475L21.4999 6.24375C21.4366 6.45994 21.3049 6.64978 21.1246 6.78484C20.9443 6.9199 20.7252 6.9929 20.4999 6.9929C20.2746 6.9929 20.0554 6.9199 19.8751 6.78484C19.6949 6.64978 19.5632 6.45994 19.4999 6.24375L19.1129 4.88875L17.7549 4.49975C17.5387 4.43644 17.3489 4.30478 17.2138 4.1245C17.0787 3.94421 17.0057 3.72502 17.0057 3.49975C17.0057 3.27449 17.0787 3.05529 17.2138 2.87501C17.3489 2.69473 17.5387 2.56306 17.7549 2.49975Z" fill="#262626"/>
</g>
<defs>
<clipPath id="clip0_1_2181">
<rect width="24" height="24" fill="white"/>
</clipPath>
</defs>
</svg>
