<svg width="24" height="24" viewBox="0 0 24 24" fill="none" xmlns="http://www.w3.org/2000/svg">
<g clip-path="url(#clip0_1_2185)">
<path d="M14.5 13.0004C14.2034 13.0004 13.9134 12.9124 13.6667 12.7476C13.42 12.5828 13.2278 12.3485 13.1142 12.0744C13.0007 11.8004 12.971 11.4988 13.0289 11.2078C13.0867 10.9168 13.2296 10.6495 13.4394 10.4398C13.6492 10.23 13.9164 10.0871 14.2074 10.0292C14.4984 9.97137 14.8 10.0011 15.0741 10.1146C15.3482 10.2281 15.5824 10.4204 15.7472 10.6671C15.9121 10.9137 16 11.2038 16 11.5004C16 11.8982 15.842 12.2798 15.5607 12.5611C15.2794 12.8424 14.8979 13.0004 14.5 13.0004ZM21.851 8.27442C21.4496 5.95452 20.2404 3.8514 18.4376 2.33717C16.6348 0.822939 14.3544 -0.00479462 12 0.000421229C5.10004 0.000421229 3.12404 4.67442 1.81904 7.76742C1.55442 8.64257 1.10457 9.45053 0.500043 10.1364C0.319452 10.2417 0.176413 10.401 0.0910359 10.5919C0.00565876 10.7827 -0.0177625 10.9955 0.0240651 11.2003C0.0658926 11.4051 0.170865 11.5917 0.324225 11.7338C0.477584 11.8759 0.671617 11.9663 0.879043 11.9924C3.35085 12.2003 5.83687 11.8235 8.13604 10.8924C8.00919 11.1735 7.97208 11.4869 8.02976 11.7899C8.08744 12.0929 8.23711 12.3707 8.45839 12.5856C8.67967 12.8004 8.96179 12.9418 9.26634 12.9905C9.57089 13.0393 9.88305 12.9929 10.1603 12.8578C10.4376 12.7227 10.6664 12.5055 10.8158 12.2356C10.9651 11.9657 11.0276 11.6564 10.9948 11.3497C10.9619 11.0431 10.8354 10.754 10.6323 10.5218C10.4293 10.2897 10.1596 10.1258 9.86004 10.0524C11.8247 8.95187 13.518 7.42556 14.816 5.58542C14.8984 5.47903 14.9585 5.35711 14.9926 5.22697C15.0267 5.09682 15.0343 4.96113 15.0147 4.828C14.9952 4.69488 14.949 4.56707 14.8789 4.45222C14.8088 4.33738 14.7162 4.23786 14.6068 4.15963C14.4973 4.0814 14.3732 4.02606 14.2418 3.99694C14.1104 3.96781 13.9746 3.9655 13.8423 3.99012C13.71 4.01475 13.5841 4.06582 13.472 4.14028C13.3599 4.21473 13.264 4.31103 13.19 4.42342C12.0239 6.06527 10.5016 7.42217 8.73694 8.39262C6.97234 9.36306 5.01113 9.92194 3.00004 10.0274C3.22704 9.57442 3.43804 9.07142 3.66204 8.54442C4.89204 5.62842 6.42304 2.00042 12 2.00042C13.9759 1.9957 15.8832 2.72432 17.3526 4.04521C18.822 5.3661 19.749 7.18526 19.954 9.15042C19.9769 9.36529 20.0688 9.56695 20.2159 9.72523C20.363 9.88351 20.5574 9.98988 20.77 10.0284C21.1344 10.0997 21.4593 10.3035 21.6821 10.6005C21.9049 10.8975 22.0096 11.2665 21.976 11.6362C21.9424 12.006 21.7729 12.3501 21.5003 12.6021C21.2276 12.8541 20.8713 12.996 20.5 13.0004C20.4155 12.9981 20.3312 12.989 20.248 12.9734C20.0148 12.9309 19.7741 12.9731 19.5692 13.0925C19.3644 13.2119 19.209 13.4005 19.131 13.6244C18.215 16.2214 15.132 19.0004 12 19.0004C9.10004 19.0004 6.40004 16.7174 5.23404 14.4614C5.11204 14.2259 4.90148 14.0485 4.64868 13.9682C4.39589 13.888 4.12156 13.9114 3.88604 14.0334C3.65053 14.1554 3.47313 14.366 3.39286 14.6188C3.3126 14.8716 3.33604 15.1459 3.45804 15.3814C4.49446 17.3153 6.07308 18.9043 8.00004 19.9534V23.0004C8.00004 23.2656 8.1054 23.52 8.29294 23.7075C8.48047 23.8951 8.73483 24.0004 9.00004 24.0004C9.26526 24.0004 9.51961 23.8951 9.70715 23.7075C9.89469 23.52 10 23.2656 10 23.0004V20.7384C11.3101 21.0904 12.6899 21.0904 14 20.7384V23.0004C14 23.2656 14.1054 23.52 14.2929 23.7075C14.4805 23.8951 14.7348 24.0004 15 24.0004C15.2653 24.0004 15.5196 23.8951 15.7072 23.7075C15.8947 23.52 16 23.2656 16 23.0004V19.9544C18.0642 18.8447 19.7215 17.1069 20.732 14.9924C21.5178 14.9388 22.2626 14.6217 22.8459 14.0924C23.4291 13.5631 23.8168 12.8525 23.9462 12.0756C24.0756 11.2987 23.9392 10.5008 23.559 9.81103C23.1788 9.12124 22.577 8.57986 21.851 8.27442Z" fill="#262626"/>
</g>
<defs>
<clipPath id="clip0_1_2185">
<rect width="24" height="24" fill="white"/>
</clipPath>
</defs>
</svg>
