<svg width="24" height="24" viewBox="0 0 24 24" fill="none" xmlns="http://www.w3.org/2000/svg">
<g clip-path="url(#clip0_1_2189)">
<path d="M12.0002 0C9.82125 4.93792e-05 7.69142 0.647215 5.88081 1.85942C4.0702 3.07162 2.66039 4.79425 1.83018 6.80882C0.999974 8.82339 0.78677 11.0391 1.21761 13.175C1.64846 15.311 2.70393 17.2708 4.25018 18.806L8.19318 22.447C9.20667 23.4391 10.5674 23.9963 11.9856 24C13.4038 24.0038 14.7675 23.4537 15.7862 22.467L19.7782 18.778C21.3165 17.2396 22.3641 15.2796 22.7885 13.1459C23.2129 11.0122 22.9951 8.80047 22.1625 6.79053C21.33 4.78059 19.9201 3.06265 18.1113 1.85395C16.3024 0.645245 14.1757 6.9059e-05 12.0002 0V0ZM18.3922 17.337L14.4082 21.018C13.7531 21.6352 12.8861 21.9774 11.9861 21.9741C11.0861 21.9707 10.2217 21.6221 9.57118 21L5.63618 17.364C4.58963 16.3174 3.81734 15.0289 3.38771 13.6126C2.95808 12.1963 2.88437 10.6959 3.17312 9.24424C3.46187 7.79263 4.10416 6.43463 5.04309 5.29053C5.98203 4.14644 7.18863 3.25156 8.55602 2.68517C9.92341 2.11877 11.4094 1.89835 12.8823 2.04341C14.3552 2.18848 15.7697 2.69456 17.0003 3.51683C18.2309 4.33909 19.2397 5.45217 19.9374 6.75745C20.6351 8.06274 21.0002 9.51995 21.0002 11C21.0046 12.176 20.7764 13.3413 20.3288 14.4289C19.8813 15.5164 19.2231 16.5047 18.3922 17.337ZM16.7102 7.663L13.7102 5.582C13.2076 5.23469 12.6111 5.04867 12.0002 5.04867C11.3892 5.04867 10.7928 5.23469 10.2902 5.582L7.29018 7.663C6.89209 7.93917 6.56681 8.30765 6.34216 8.73692C6.11751 9.1662 6.00017 9.6435 6.00018 10.128V13.5C6.00018 14.163 6.26357 14.7989 6.73242 15.2678C7.20126 15.7366 7.83714 16 8.50018 16H15.5002C16.1632 16 16.7991 15.7366 17.268 15.2678C17.7368 14.7989 18.0002 14.163 18.0002 13.5V10.128C18.0002 9.6435 17.8829 9.1662 17.6582 8.73692C17.4336 8.30765 17.1083 7.93917 16.7102 7.663ZM16.0002 13.5C16.0002 13.6326 15.9475 13.7598 15.8537 13.8536C15.76 13.9473 15.6328 14 15.5002 14H14.0002V12C14.0002 11.7348 13.8948 11.4804 13.7073 11.2929C13.5198 11.1054 13.2654 11 13.0002 11H11.0002C10.735 11 10.4806 11.1054 10.2931 11.2929C10.1055 11.4804 10.0002 11.7348 10.0002 12V14H8.50018C8.36757 14 8.2404 13.9473 8.14663 13.8536C8.05286 13.7598 8.00018 13.6326 8.00018 13.5V10.128C8.00013 9.96644 8.03921 9.80728 8.1141 9.66412C8.18898 9.52097 8.29744 9.39809 8.43018 9.306L11.4302 7.225C11.5979 7.10968 11.7966 7.04794 12.0002 7.04794C12.2037 7.04794 12.4025 7.10968 12.5702 7.225L15.5702 9.306C15.7029 9.39809 15.8114 9.52097 15.8863 9.66412C15.9612 9.80728 16.0002 9.96644 16.0002 10.128V13.5Z" fill="#262626"/>
</g>
<defs>
<clipPath id="clip0_1_2189">
<rect width="24" height="24" fill="white"/>
</clipPath>
</defs>
</svg>
