<svg width="24" height="24" viewBox="0 0 24 24" fill="none" xmlns="http://www.w3.org/2000/svg">
<path d="M8.33701 13.3223L10.6234 11.0359L8.33701 8.74956C7.94092 8.36701 7.9299 7.73575 8.31249 7.33965C8.69504 6.94356 9.32631 6.93255 9.7224 7.31514C9.7307 7.32315 9.7389 7.33136 9.74692 7.33965L12.0333 9.62603L14.3197 7.33965C14.7023 6.94356 15.3335 6.93259 15.7296 7.31519C16.1257 7.69778 16.1366 8.329 15.754 8.72509C15.746 8.73339 15.7379 8.74154 15.7296 8.74956L13.4432 11.0359L15.7296 13.3223C16.1257 13.7049 16.1366 14.3361 15.754 14.7322C15.3714 15.1283 14.7402 15.1393 14.3441 14.7567C14.3358 14.7487 14.3277 14.7405 14.3197 14.7322L12.0333 12.4458L9.74692 14.7322C9.35082 15.1148 8.7196 15.1038 8.33701 14.7077C7.96379 14.3214 7.96379 13.7087 8.33701 13.3223ZM4.30571 18.8184C-0.0289601 14.587 -0.112772 7.64289 4.11859 3.30817C8.34995 -1.02655 15.2941 -1.11031 19.6288 3.12105C19.6826 3.17364 19.736 3.2268 19.7888 3.28047C24.0719 7.56376 24.0719 14.5082 19.7888 18.7915L15.8083 22.4698C13.6962 24.5154 10.3392 24.507 8.23731 22.4508L4.30571 18.8184ZM3.05935 11.036C3.05284 13.4173 3.99929 15.7023 5.68773 17.3815L9.61135 21.007C10.9584 22.2943 13.0772 22.3027 14.4344 21.0259L18.4068 17.3546C21.9039 13.8423 21.8917 8.16006 18.3794 4.66295C14.8671 1.16584 9.18488 1.17808 5.68777 4.69037C3.99924 6.36962 3.05284 8.65464 3.05935 11.036Z" fill="#262626"/>
</svg>
