<svg width="24" height="24" viewBox="0 0 24 24" fill="none" xmlns="http://www.w3.org/2000/svg">
<g clip-path="url(#clip0_1_2212)">
<path d="M16 6.99972L15.977 5.82272C16.648 5.59323 17.2158 5.13282 17.5789 4.52362C17.942 3.91443 18.0769 3.19605 17.9595 2.49662C17.8422 1.79719 17.4802 1.16219 16.9381 0.704868C16.3961 0.247545 15.7092 -0.00236061 15 -0.000276992H9C8.29317 -0.00161632 7.60868 0.247242 7.06776 0.702222C6.52683 1.1572 6.16439 1.78894 6.04461 2.48555C5.92484 3.18215 6.05547 3.89867 6.41336 4.50819C6.77126 5.11771 7.33332 5.5809 8 5.81572V6.99972C6.67441 7.00131 5.40356 7.52861 4.46622 8.46594C3.52888 9.40328 3.00159 10.6741 3 11.9997V18.9997C3.00159 20.3253 3.52888 21.5962 4.46622 22.5335C5.40356 23.4708 6.67441 23.9981 8 23.9997H16C17.3256 23.9981 18.5964 23.4708 19.5338 22.5335C20.4711 21.5962 20.9984 20.3253 21 18.9997V11.9997C20.9984 10.6741 20.4711 9.40328 19.5338 8.46594C18.5964 7.52861 17.3256 7.00131 16 6.99972ZM9 1.99972H15C15.2652 1.99972 15.5196 2.10508 15.7071 2.29262C15.8946 2.48015 16 2.73451 16 2.99972C16 3.26494 15.8946 3.51929 15.7071 3.70683C15.5196 3.89437 15.2652 3.99972 15 3.99972H9C8.73478 3.99972 8.48043 3.89437 8.29289 3.70683C8.10536 3.51929 8 3.26494 8 2.99972C8 2.73451 8.10536 2.48015 8.29289 2.29262C8.48043 2.10508 8.73478 1.99972 9 1.99972ZM19 18.9997C19 19.7954 18.6839 20.5584 18.1213 21.121C17.5587 21.6837 16.7956 21.9997 16 21.9997H8C7.20435 21.9997 6.44129 21.6837 5.87868 21.121C5.31607 20.5584 5 19.7954 5 18.9997V11.9997C5 11.2041 5.31607 10.441 5.87868 9.8784C6.44129 9.31579 7.20435 8.99972 8 8.99972H9C9.26522 8.99972 9.51957 8.89437 9.70711 8.70683C9.89464 8.51929 10 8.26494 10 7.99972V5.99972H13.973L14 8.01372C14.0037 8.27651 14.1107 8.52728 14.2978 8.7118C14.4849 8.89632 14.7372 8.99975 15 8.99972H16C16.7956 8.99972 17.5587 9.31579 18.1213 9.8784C18.6839 10.441 19 11.2041 19 11.9997V18.9997ZM16 14.9997C16 15.2649 15.8946 15.5193 15.7071 15.7068C15.5196 15.8944 15.2652 15.9997 15 15.9997H13V17.9997C13 18.2649 12.8946 18.5193 12.7071 18.7068C12.5196 18.8944 12.2652 18.9997 12 18.9997C11.7348 18.9997 11.4804 18.8944 11.2929 18.7068C11.1054 18.5193 11 18.2649 11 17.9997V15.9997H9C8.73478 15.9997 8.48043 15.8944 8.29289 15.7068C8.10536 15.5193 8 15.2649 8 14.9997C8 14.7345 8.10536 14.4802 8.29289 14.2926C8.48043 14.1051 8.73478 13.9997 9 13.9997H11V11.9997C11 11.7345 11.1054 11.4802 11.2929 11.2926C11.4804 11.1051 11.7348 10.9997 12 10.9997C12.2652 10.9997 12.5196 11.1051 12.7071 11.2926C12.8946 11.4802 13 11.7345 13 11.9997V13.9997H15C15.2652 13.9997 15.5196 14.1051 15.7071 14.2926C15.8946 14.4802 16 14.7345 16 14.9997Z" fill="#262626"/>
</g>
<defs>
<clipPath id="clip0_1_2212">
<rect width="24" height="24" fill="white"/>
</clipPath>
</defs>
</svg>
