<svg width="24" height="24" viewBox="0 0 24 24" fill="none" xmlns="http://www.w3.org/2000/svg">
<g clip-path="url(#clip0_1_2312)">
<path d="M23.7 0.307385C23.5126 0.12022 23.2585 0.0150981 22.9935 0.0150981C22.7286 0.0150981 22.4745 0.12022 22.287 0.307385L10.093 12.4944C9.23123 11.4637 8.52013 10.316 7.98104 9.08539L9.13904 7.63139C9.68929 7.05581 9.99695 6.29057 9.99825 5.49429C9.99956 4.69801 9.6944 3.93176 9.14604 3.35439C9.14604 3.35439 7.29404 0.950385 7.26404 0.920385C6.69396 0.346124 5.9208 0.0192691 5.11167 0.0104742C4.30255 0.00167937 3.52246 0.311651 2.94004 0.873385L1.79104 1.87339C-2.22496 6.32139 1.15304 12.5874 5.34004 17.2444L0.300037 22.2804C0.125286 22.4703 0.0306941 22.7203 0.0360392 22.9783C0.0413843 23.2363 0.146252 23.4822 0.328718 23.6647C0.511184 23.8472 0.757121 23.952 1.01511 23.9574C1.2731 23.9627 1.52317 23.8681 1.71304 23.6934L23.7 1.72039C23.8872 1.5329 23.9923 1.2788 23.9923 1.01389C23.9923 0.748966 23.8872 0.494872 23.7 0.307385ZM2.00704 6.24539C1.99154 5.16273 2.40328 4.11757 3.15304 3.33639L4.30204 2.33639C4.50113 2.13864 4.76827 2.02445 5.04879 2.0172C5.32931 2.00995 5.60199 2.11019 5.81104 2.29739C5.81104 2.29739 7.65204 4.68639 7.68204 4.71639C7.88716 4.92154 8.00239 5.19978 8.00239 5.48989C8.00239 5.78 7.88716 6.05823 7.68204 6.26339C7.65604 6.28939 6.04804 8.30039 6.04804 8.30039C5.93676 8.43889 5.86439 8.60455 5.83837 8.78031C5.81236 8.95607 5.83365 9.13558 5.90004 9.30039C6.56128 10.9816 7.49587 12.542 8.66604 13.9184L6.75204 15.8334C3.80904 12.6744 2.00704 9.08739 2.00704 6.24539ZM23.085 16.7334C23.663 17.3143 23.9875 18.1004 23.9875 18.9199C23.9875 19.7394 23.663 20.5255 23.085 21.1064L22.175 22.1544C18.3 25.6814 13.6 23.6184 9.20004 20.6454C9.09498 20.5666 9.00647 20.4679 8.93956 20.3549C8.87265 20.2419 8.82866 20.1168 8.81009 19.9868C8.77258 19.7243 8.84091 19.4576 9.00004 19.2454C9.15917 19.0332 9.39606 18.8929 9.65862 18.8554C9.92117 18.8179 10.1879 18.8863 10.4 19.0454C13.909 21.3604 17.732 23.3874 20.72 20.7944L21.631 19.7454C21.8455 19.548 21.9744 19.2747 21.9903 18.9837C22.0061 18.6926 21.9077 18.4069 21.716 18.1874C21.716 18.1874 19.324 16.3474 19.294 16.3174C19.0881 16.1134 18.8099 15.999 18.52 15.999C18.2302 15.999 17.952 16.1134 17.746 16.3174C17.719 16.3444 15.703 17.9504 15.703 17.9504C15.5695 18.0573 15.4105 18.128 15.2417 18.1555C15.0728 18.183 14.8996 18.1664 14.739 18.1074C14.0824 17.8576 13.4436 17.5633 12.827 17.2264C12.6138 17.092 12.4593 16.882 12.3942 16.6385C12.3292 16.395 12.3585 16.1359 12.4763 15.9131C12.5941 15.6903 12.7917 15.5202 13.0295 15.4368C13.2673 15.3534 13.5279 15.3629 13.759 15.4634C14.13 15.6634 14.515 15.8544 14.915 16.0244L16.377 14.8614C16.9528 14.311 17.7183 14.0033 18.5148 14.0022C19.3114 14.0011 20.0777 14.3066 20.655 14.8554C20.655 14.8554 23.054 16.7004 23.085 16.7334Z" fill="#262626"/>
</g>
<defs>
<clipPath id="clip0_1_2312">
<rect width="24" height="24" fill="white"/>
</clipPath>
</defs>
</svg>
