<svg width="24" height="24" viewBox="0 0 24 24" fill="none" xmlns="http://www.w3.org/2000/svg">
<g clip-path="url(#clip0_1_2379)">
<path d="M19 2.99999H5C3.67392 2.99999 2.40215 3.52678 1.46447 4.46446C0.526784 5.40214 0 6.67391 0 7.99999L0 16C0 17.3261 0.526784 18.5978 1.46447 19.5355C2.40215 20.4732 3.67392 21 5 21H19C19.6566 21 20.3068 20.8707 20.9134 20.6194C21.52 20.3681 22.0712 19.9998 22.5355 19.5355C22.9998 19.0712 23.3681 18.52 23.6194 17.9134C23.8707 17.3068 24 16.6566 24 16V7.99999C24 7.34338 23.8707 6.6932 23.6194 6.08658C23.3681 5.47995 22.9998 4.92875 22.5355 4.46446C22.0712 4.00017 21.52 3.63187 20.9134 3.38059C20.3068 3.12932 19.6566 2.99999 19 2.99999ZM22 16C22 16.7956 21.6839 17.5587 21.1213 18.1213C20.5587 18.6839 19.7956 19 19 19H5C4.20435 19 3.44129 18.6839 2.87868 18.1213C2.31607 17.5587 2 16.7956 2 16V7.99999C2 7.20434 2.31607 6.44128 2.87868 5.87867C3.44129 5.31606 4.20435 4.99999 5 4.99999H19C19.7956 4.99999 20.5587 5.31606 21.1213 5.87867C21.6839 6.44128 22 7.20434 22 7.99999V16Z" fill="#262626"/>
</g>
<defs>
<clipPath id="clip0_1_2379">
<rect width="24" height="24" fill="white"/>
</clipPath>
</defs>
</svg>
