<svg width="24" height="24" viewBox="0 0 24 24" fill="none" xmlns="http://www.w3.org/2000/svg">
<g clip-path="url(#clip0_1_2389)">
<path d="M23 13.0006H1C0.734784 13.0006 0.48043 12.8952 0.292893 12.7077C0.105357 12.5202 0 12.2658 0 12.0006C0 11.7354 0.105357 11.481 0.292893 11.2935C0.48043 11.1059 0.734784 11.0006 1 11.0006H23C23.2652 11.0006 23.5196 11.1059 23.7071 11.2935C23.8946 11.481 24 11.7354 24 12.0006C24 12.2658 23.8946 12.5202 23.7071 12.7077C23.5196 12.8952 23.2652 13.0006 23 13.0006ZM18.934 7.12659C19.0597 6.59327 19.0012 6.03312 18.7681 5.53726C18.5349 5.04141 18.1409 4.63903 17.65 4.39559L9.668 0.428589C9.16973 0.14562 8.60635 -0.00272679 8.03334 -0.00185008C7.46032 -0.00097337 6.89741 0.149096 6.4 0.433589C5.96664 0.684752 5.60832 1.04722 5.36216 1.48345C5.116 1.91967 4.99096 2.41378 5 2.91459V6.00059C5 6.79624 5.31607 7.5593 5.87868 8.12191C6.44129 8.68452 7.20435 9.00059 8 9.00059H16.318C16.9035 9.03872 17.484 8.87284 17.961 8.53118C18.4379 8.18952 18.7817 7.69318 18.934 7.12659ZM8.737 2.20059L16.749 6.18059C16.838 6.22008 16.9105 6.2892 16.9543 6.37617C16.9981 6.46314 17.0103 6.56259 16.989 6.65759C16.915 6.96559 16.495 6.99859 16.318 6.99859H8C7.73513 6.99859 7.48108 6.89351 7.2936 6.7064C7.10612 6.5193 7.00053 6.26546 7 6.00059V2.91459C6.99262 2.76192 7.02779 2.61021 7.1016 2.47636C7.17541 2.34252 7.28495 2.23181 7.418 2.15659C7.59825 2.05271 7.80297 1.99885 8.011 2.00059C8.26607 2.00444 8.51594 2.07327 8.737 2.20059ZM9.628 23.5946L17.661 19.6006C18.1491 19.3559 18.5403 18.9536 18.7713 18.4589C19.0024 17.9641 19.0597 17.4059 18.934 16.8746C18.7817 16.308 18.4379 15.8117 17.961 15.47C17.484 15.1283 16.9035 14.9625 16.318 15.0006H8C7.20435 15.0006 6.44129 15.3167 5.87868 15.8793C5.31607 16.4419 5 17.2049 5 18.0006V21.0856C4.99086 21.5864 5.11585 22.0806 5.36202 22.5168C5.60819 22.9531 5.96657 23.3155 6.4 23.5666C6.89555 23.8542 7.45903 24.0041 8.032 24.0006C8.59001 24.0023 9.13926 23.8619 9.628 23.5926V23.5946ZM16.318 17.0006C16.495 17.0006 16.918 17.0336 16.989 17.3416C17.0106 17.4346 16.9997 17.5322 16.958 17.6181C16.9163 17.704 16.8464 17.773 16.76 17.8136L8.7 21.8226C8.5062 21.9347 8.28696 21.9954 8.0631 21.9989C7.83924 22.0024 7.61821 21.9486 7.421 21.8426C7.28731 21.7679 7.1771 21.6573 7.10274 21.5234C7.02837 21.3895 6.99279 21.2376 7 21.0846V18.0006C7 17.7354 7.10536 17.481 7.29289 17.2935C7.48043 17.1059 7.73478 17.0006 8 17.0006H16.318Z" fill="#262626"/>
</g>
<defs>
<clipPath id="clip0_1_2389">
<rect width="24" height="24" fill="white"/>
</clipPath>
</defs>
</svg>
