<svg width="24" height="24" viewBox="0 0 24 24" fill="none" xmlns="http://www.w3.org/2000/svg">
<path d="M11.9999 23.9271C11.3433 23.928 10.693 23.7994 10.0862 23.5485C9.4794 23.2976 8.9281 22.9294 8.46388 22.4651L1.53388 15.5341C0.596523 14.5965 0.0699463 13.3249 0.0699463 11.9991C0.0699463 10.6733 0.596523 9.40173 1.53388 8.46409L8.46388 1.53309C9.40264 0.59708 10.6742 0.0714645 11.9999 0.0714645C13.3255 0.0714645 14.5971 0.59708 15.5359 1.53309L22.4659 8.46409C23.4032 9.40173 23.9298 10.6733 23.9298 11.9991C23.9298 13.3249 23.4032 14.5965 22.4659 15.5341L15.5359 22.4651C15.0717 22.9294 14.5204 23.2976 13.9136 23.5485C13.3068 23.7994 12.6565 23.928 11.9999 23.9271ZM11.9999 2.07009C11.6059 2.06934 11.2156 2.14643 10.8514 2.29694C10.4873 2.44744 10.1564 2.66838 9.87788 2.94709L2.94788 9.87809C2.38547 10.4407 2.06952 11.2036 2.06952 11.9991C2.06952 12.7946 2.38547 13.5575 2.94788 14.1201L9.87788 21.0511C10.1565 21.3299 10.4873 21.551 10.8514 21.7019C11.2155 21.8528 11.6058 21.9305 11.9999 21.9305C12.394 21.9305 12.7843 21.8528 13.1484 21.7019C13.5125 21.551 13.8433 21.3299 14.1219 21.0511L21.0519 14.1201C21.6143 13.5575 21.9302 12.7946 21.9302 11.9991C21.9302 11.2036 21.6143 10.4407 21.0519 9.87809L14.1219 2.94709C13.8433 2.66838 13.5125 2.44744 13.1484 2.29694C12.7842 2.14643 12.3939 2.06934 11.9999 2.07009Z" fill="#262626"/>
</svg>
