<svg width="24" height="24" viewBox="0 0 24 24" fill="none" xmlns="http://www.w3.org/2000/svg">
<g clip-path="url(#clip0_1_2419)">
<path d="M23.1939 11.6002C22.6625 10.8907 21.9076 10.3809 21.0509 10.1532C21.4684 8.93943 21.777 7.69083 21.9729 6.42224C22.0369 5.96111 21.993 5.49141 21.8446 5.05013C21.6962 4.60885 21.4475 4.20802 21.1179 3.87921C20.7883 3.5504 20.3869 3.30259 19.9453 3.15527C19.5036 3.00795 19.0338 2.96515 18.5729 3.03024C18.4469 3.04724 18.0729 3.10224 17.5619 3.20124C17.8783 2.5007 18.0282 1.7364 17.9999 0.96824C17.9957 0.836918 17.9656 0.70771 17.9115 0.587992C17.8574 0.468275 17.7802 0.360393 17.6843 0.270506C17.5885 0.180618 17.4759 0.110487 17.353 0.0641143C17.23 0.017742 17.0992 -0.00396262 16.9679 0.000239684C16.8365 0.00444198 16.7073 0.0344689 16.5876 0.088606C16.4679 0.142743 16.36 0.21993 16.2701 0.31576C16.1802 0.41159 16.1101 0.524187 16.0637 0.64712C16.0174 0.770054 15.9957 0.900918 15.9999 1.03224C16.0169 1.51531 15.9178 1.99541 15.7109 2.43224C15.5662 2.0419 15.3599 1.67727 15.0999 1.35224C14.6578 0.849137 14.0967 0.464891 13.4678 0.234643C12.8389 0.00439519 12.1623 -0.0645063 11.4999 0.0342397C10.7735 0.0925407 10.0793 0.358436 9.49986 0.80024C8.8448 0.307433 8.05232 0.0312698 7.23286 0.0102397C6.19304 -0.0905399 5.15566 0.224809 4.34786 0.88724C3.93768 1.25241 3.60652 1.6976 3.3747 2.19545C3.14289 2.69329 3.01533 3.23329 2.99986 3.78224C2.97241 4.66126 3.22834 5.52581 3.72986 6.24824C3.11976 6.77134 2.64616 7.43509 2.34998 8.18217C2.05379 8.92925 1.94392 9.7372 2.02986 10.5362C1.23901 10.9769 0.622698 11.6749 0.283264 12.5142C-0.0561706 13.3535 -0.0983059 14.2837 0.163855 15.1502C0.848864 17.5338 2.12383 19.7061 3.87086 21.4662C5.54686 23.1005 7.798 24.0106 10.1389 24.0002H13.8609C16.2014 24.0107 18.4523 23.1006 20.1279 21.4662C21.8755 19.7064 23.1509 17.534 23.8359 15.1502C24.0144 14.5496 24.0493 13.9154 23.9378 13.2988C23.8263 12.6821 23.5715 12.1003 23.1939 11.6002ZM18.8509 5.01024C19.0056 4.98936 19.1631 5.00454 19.311 5.05459C19.4589 5.10465 19.5933 5.18822 19.7036 5.29879C19.8138 5.40935 19.897 5.54391 19.9467 5.69196C19.9964 5.84001 20.0111 5.99754 19.9899 6.15224C19.7801 7.46543 19.4401 8.75446 18.9749 10.0002H16.4139L17.7069 8.70724C17.889 8.51864 17.9898 8.26604 17.9875 8.00384C17.9853 7.74164 17.8801 7.49083 17.6947 7.30542C17.5093 7.12001 17.2585 7.01484 16.9963 7.01257C16.7341 7.01029 16.4815 7.11108 16.2929 7.29324L13.5859 10.0002H12.0369C11.9638 9.47429 12.014 8.93856 12.1833 8.4353C12.3527 7.93204 12.6367 7.47501 13.0129 7.10024C13.4399 6.66924 15.0769 5.50024 18.8509 5.01024ZM4.99986 3.84924C5.00587 3.57394 5.06794 3.30275 5.18227 3.05224C5.29661 2.80173 5.46081 2.57716 5.66486 2.39224C6.07743 2.08728 6.58997 1.94942 7.09986 2.00624C7.34614 1.99611 7.59178 2.03819 7.82065 2.1297C8.04952 2.22122 8.25645 2.3601 8.42786 2.53724C8.56279 2.688 8.72801 2.8086 8.91274 2.89114C9.09746 2.97368 9.29753 3.01631 9.49986 3.01624C9.70171 3.01524 9.90111 2.97182 10.0851 2.88878C10.2691 2.80574 10.4336 2.68495 10.5679 2.53424C10.717 2.37647 10.896 2.24989 11.0944 2.16182C11.2929 2.07376 11.5068 2.02598 11.7239 2.02124C12.0544 1.96236 12.3944 1.98635 12.7134 2.09105C13.0324 2.19576 13.3205 2.37792 13.5519 2.62124C13.8554 3.00988 14.0139 3.49228 13.9999 3.98524C13.9999 4.05024 13.9999 4.19224 13.9999 4.19224C12.6724 4.67026 11.5384 5.57065 10.7719 6.75524C10.1404 6.00772 9.30023 5.46564 8.35889 5.19842C7.41755 4.9312 6.41788 4.95098 5.48786 5.25524C5.156 4.86357 4.98201 4.36229 4.99986 3.84924ZM3.99986 10.0002C3.99986 9.20459 4.31593 8.44153 4.87854 7.87892C5.44114 7.31631 6.20421 7.00024 6.99986 7.00024C7.79551 7.00024 8.55857 7.31631 9.12118 7.87892C9.68379 8.44153 9.99986 9.20459 9.99986 10.0002H3.99986ZM21.9159 14.5892C21.3184 16.6464 20.2187 18.5227 18.7159 20.0492C17.4164 21.3118 15.6726 22.0125 13.8609 22.0002H10.1389C8.32664 22.0121 6.58232 21.3114 5.28186 20.0492C3.77894 18.5227 2.67927 16.6464 2.08186 14.5892C1.99221 14.2865 1.97482 13.9669 2.03109 13.6562C2.08736 13.3455 2.21572 13.0523 2.40585 12.8002C2.59034 12.5514 2.8307 12.3493 3.10757 12.2104C3.38444 12.0714 3.69008 11.9995 3.99986 12.0002H19.9999C20.3106 11.9985 20.6175 12.07 20.8955 12.209C21.1734 12.348 21.4148 12.5506 21.5999 12.8002C21.7886 13.053 21.9156 13.3465 21.9704 13.6572C22.0253 13.9679 22.0066 14.2871 21.9159 14.5892Z" fill="#262626"/>
</g>
<defs>
<clipPath id="clip0_1_2419">
<rect width="24" height="24" fill="white"/>
</clipPath>
</defs>
</svg>
