<svg width="24" height="24" viewBox="0 0 24 24" fill="none" xmlns="http://www.w3.org/2000/svg">
<g clip-path="url(#clip0_1_2429)">
<path d="M19 2.99999H5C3.67441 3.00158 2.40356 3.52887 1.46622 4.46621C0.528882 5.40355 0.00158786 6.6744 0 7.99999L0 14C0.00158786 15.3256 0.528882 16.5964 1.46622 17.5338C2.40356 18.4711 3.67441 18.9984 5 19H11V20H8C7.73478 20 7.48043 20.1053 7.29289 20.2929C7.10536 20.4804 7 20.7348 7 21C7 21.2652 7.10536 21.5196 7.29289 21.7071C7.48043 21.8946 7.73478 22 8 22H16C16.2652 22 16.5196 21.8946 16.7071 21.7071C16.8946 21.5196 17 21.2652 17 21C17 20.7348 16.8946 20.4804 16.7071 20.2929C16.5196 20.1053 16.2652 20 16 20H13V19H19C20.3256 18.9984 21.5964 18.4711 22.5338 17.5338C23.4711 16.5964 23.9984 15.3256 24 14V7.99999C23.9984 6.6744 23.4711 5.40355 22.5338 4.46621C21.5964 3.52887 20.3256 3.00158 19 2.99999ZM22 14C22 14.7956 21.6839 15.5587 21.1213 16.1213C20.5587 16.6839 19.7956 17 19 17H5C4.20435 17 3.44129 16.6839 2.87868 16.1213C2.31607 15.5587 2 14.7956 2 14V7.99999C2 7.20434 2.31607 6.44128 2.87868 5.87867C3.44129 5.31606 4.20435 4.99999 5 4.99999H19C19.7956 4.99999 20.5587 5.31606 21.1213 5.87867C21.6839 6.44128 22 7.20434 22 7.99999V14Z" fill="#262626"/>
</g>
<defs>
<clipPath id="clip0_1_2429">
<rect width="24" height="24" fill="white"/>
</clipPath>
</defs>
</svg>
