<svg width="24" height="24" viewBox="0 0 24 24" fill="none" xmlns="http://www.w3.org/2000/svg">
<g clip-path="url(#clip0_1_2453)">
<path d="M18.5811 2.14068L12.3161 0.0516833C12.111 -0.0166378 11.8893 -0.0166378 11.6841 0.0516833L5.41912 2.14068C4.42303 2.47156 3.55654 3.10794 2.94277 3.95939C2.329 4.81085 1.99916 5.83407 2.00012 6.88368V12.0007C2.00012 19.5637 11.2001 23.7407 11.5941 23.9147C11.7219 23.9715 11.8603 24.0008 12.0001 24.0008C12.14 24.0008 12.2783 23.9715 12.4061 23.9147C12.8001 23.7407 22.0001 19.5637 22.0001 12.0007V6.88368C22.0011 5.83407 21.6713 4.81085 21.0575 3.95939C20.4437 3.10794 19.5772 2.47156 18.5811 2.14068ZM20.0001 12.0007C20.0001 17.4557 13.6811 21.0337 12.0001 21.8897C10.3171 21.0367 4.00012 17.4697 4.00012 12.0007V6.88368C4.00018 6.25396 4.1984 5.64022 4.56669 5.12943C4.93498 4.61863 5.45467 4.23668 6.05212 4.03768L12.0001 2.05468L17.9481 4.03768C18.5456 4.23668 19.0653 4.61863 19.4336 5.12943C19.8018 5.64022 20.0001 6.25396 20.0001 6.88368V12.0007Z" fill="#262626"/>
<path d="M15.0001 9.99937H13.0001V7.99937C13.0001 7.73416 12.8948 7.4798 12.7072 7.29227C12.5197 7.10473 12.2653 6.99937 12.0001 6.99937C11.7349 6.99937 11.4805 7.10473 11.293 7.29227C11.1055 7.4798 11.0001 7.73416 11.0001 7.99937V9.99937H9.00012C8.7349 9.99937 8.48055 10.1047 8.29301 10.2923C8.10548 10.4798 8.00012 10.7342 8.00012 10.9994C8.00012 11.2646 8.10548 11.5189 8.29301 11.7065C8.48055 11.894 8.7349 11.9994 9.00012 11.9994H11.0001V13.9994C11.0001 14.2646 11.1055 14.5189 11.293 14.7065C11.4805 14.894 11.7349 14.9994 12.0001 14.9994C12.2653 14.9994 12.5197 14.894 12.7072 14.7065C12.8948 14.5189 13.0001 14.2646 13.0001 13.9994V11.9994H15.0001C15.2653 11.9994 15.5197 11.894 15.7072 11.7065C15.8948 11.5189 16.0001 11.2646 16.0001 10.9994C16.0001 10.7342 15.8948 10.4798 15.7072 10.2923C15.5197 10.1047 15.2653 9.99937 15.0001 9.99937Z" fill="#262626"/>
</g>
<defs>
<clipPath id="clip0_1_2453">
<rect width="24" height="24" fill="white"/>
</clipPath>
</defs>
</svg>
