<svg width="24" height="24" viewBox="0 0 24 24" fill="none" xmlns="http://www.w3.org/2000/svg">
<g clip-path="url(#clip0_92_14527)">
<path d="M22.6702 7.17435C23.2226 7.57523 23.6312 8.14322 23.8358 8.79432C24.0549 9.44058 24.0601 10.1402 23.8507 10.7897C23.6412 11.4391 23.2282 12.0039 22.6728 12.4003L19.1128 15.0003L20.4648 19.1873C20.6745 19.8369 20.6729 20.5362 20.4601 21.1848C20.2473 21.8334 19.8343 22.3978 19.2806 22.7968C18.7268 23.1959 18.0607 23.4091 17.3782 23.4058C16.6956 23.4025 16.0317 23.1828 15.4818 22.7783L11.9998 20.2193L8.5188 22.7813C7.97204 23.1936 7.30671 23.4182 6.62195 23.4216C5.93719 23.425 5.26965 23.2071 4.7188 22.8003C4.15834 22.4062 3.74027 21.8415 3.52691 21.1904C3.31354 20.5393 3.31631 19.8367 3.5348 19.1873L4.8868 15.0003L1.3308 12.4003C0.781657 11.9988 0.37344 11.4341 0.164453 10.7867C-0.0445344 10.1394 -0.0436018 9.44251 0.167118 8.79571C0.377837 8.14891 0.787564 7.58525 1.33778 7.18523C1.88799 6.7852 2.55054 6.56929 3.2308 6.56832H7.5998L8.9268 2.43232C9.13547 1.78128 9.54553 1.21333 10.0978 0.810386C10.6501 0.407437 11.3161 0.190308 11.9998 0.190308C12.6835 0.190308 13.3495 0.407437 13.9018 0.810386C14.4541 1.21333 14.8641 1.78128 15.0728 2.43232L16.3998 6.56832H20.7688C21.4512 6.56099 22.1179 6.77348 22.6702 7.17435Z" fill="#FA8C16"/>
</g>
<defs>
<clipPath id="clip0_92_14527">
<rect width="24" height="24" fill="white"/>
</clipPath>
</defs>
</svg>
