<svg width="24" height="24" viewBox="0 0 24 24" fill="none" xmlns="http://www.w3.org/2000/svg">
<path d="M21.77 8.94835C21.6068 8.89001 21.4577 8.79806 21.3323 8.67845C21.2069 8.55884 21.108 8.41423 21.042 8.25398C20.9761 8.09374 20.9445 7.92143 20.9493 7.7482C20.9541 7.57497 20.9952 7.40468 21.07 7.24835C21.357 6.64441 21.45 5.96644 21.3364 5.30751C21.2227 4.64858 20.9079 4.04098 20.4351 3.56811C19.9623 3.09524 19.3548 2.78027 18.6959 2.66644C18.037 2.55261 17.359 2.6455 16.755 2.93235C16.5987 3.00698 16.4284 3.04798 16.2552 3.05272C16.082 3.05746 15.9098 3.02583 15.7496 2.95986C15.5894 2.8939 15.4448 2.79507 15.3251 2.66976C15.2055 2.54444 15.1135 2.39543 15.055 2.23235C14.8302 1.60343 14.4165 1.05938 13.8705 0.67472C13.3245 0.290057 12.6729 0.0835876 12.005 0.0835876C11.3371 0.0835876 10.6856 0.290057 10.1396 0.67472C9.59356 1.05938 9.17982 1.60343 8.95501 2.23235C8.89667 2.39553 8.80472 2.54464 8.68511 2.67004C8.5655 2.79544 8.42089 2.89433 8.26065 2.96032C8.1004 3.0263 7.92809 3.05791 7.75486 3.05309C7.58163 3.04827 7.41134 3.00714 7.25501 2.93235C6.65069 2.64322 5.97158 2.54859 5.31123 2.6615C4.65089 2.77441 4.0418 3.0893 3.56787 3.56279C3.09394 4.03628 2.77849 4.64508 2.66497 5.30532C2.55145 5.96556 2.64545 6.64476 2.93401 7.24935C3.00896 7.40565 3.05022 7.57596 3.05512 7.74924C3.06001 7.92251 3.02844 8.09488 2.96244 8.25517C2.89644 8.41546 2.79749 8.56009 2.672 8.67967C2.54651 8.79926 2.39729 8.89114 2.23401 8.94935C1.60554 9.17461 1.062 9.58852 0.67773 10.1345C0.293458 10.6804 0.0872192 11.3317 0.0872192 11.9993C0.0872192 12.667 0.293458 13.3183 0.67773 13.8642C1.062 14.4102 1.60554 14.8241 2.23401 15.0494C2.39763 15.1072 2.54727 15.1988 2.67321 15.3181C2.79915 15.4375 2.89859 15.5821 2.96507 15.7424C3.03155 15.9027 3.06358 16.0751 3.05909 16.2486C3.0546 16.4221 3.01369 16.5927 2.93901 16.7494C2.65185 17.3529 2.55851 18.0306 2.67179 18.6893C2.78508 19.348 3.09944 19.9555 3.57174 20.4285C4.04404 20.9015 4.65113 21.2167 5.3097 21.3309C5.96827 21.4451 6.64605 21.3527 7.25001 21.0664C7.40634 20.9916 7.57663 20.9504 7.74986 20.9456C7.92309 20.9408 8.0954 20.9724 8.25565 21.0384C8.41589 21.1044 8.5605 21.2033 8.68011 21.3287C8.79972 21.4541 8.89167 21.6032 8.95001 21.7664C9.17482 22.3953 9.58856 22.9393 10.1346 23.324C10.6806 23.7086 11.3321 23.9151 12 23.9151C12.6679 23.9151 13.3195 23.7086 13.8655 23.324C14.4115 22.9393 14.8252 22.3953 15.05 21.7664C15.1084 21.6032 15.2003 21.4541 15.3199 21.3287C15.4395 21.2033 15.5841 21.1044 15.7444 21.0384C15.9046 20.9724 16.0769 20.9408 16.2502 20.9456C16.4234 20.9504 16.5937 20.9916 16.75 21.0664C17.354 21.3533 18.0319 21.4464 18.6909 21.3327C19.3498 21.219 19.9574 20.9042 20.4303 20.4314C20.9031 19.9587 21.2181 19.3512 21.3319 18.6923C21.4458 18.0333 21.3529 17.3554 21.066 16.7514C20.9914 16.595 20.9504 16.4247 20.9456 16.2515C20.9409 16.0784 20.9725 15.9061 21.0385 15.7459C21.1045 15.5857 21.2033 15.4411 21.3286 15.3215C21.4539 15.2018 21.6029 15.1098 21.766 15.0514C22.3949 14.8265 22.939 14.4128 23.3236 13.8668C23.7083 13.3208 23.9148 12.6692 23.9148 12.0014C23.9148 11.3335 23.7083 10.6819 23.3236 10.1359C22.939 9.5899 22.3949 9.17616 21.766 8.95135L21.77 8.94835ZM21.1 13.1674C20.6731 13.3192 20.2827 13.559 19.9543 13.8711C19.6258 14.1833 19.3664 14.5609 19.193 14.9795C19.0196 15.3982 18.936 15.8485 18.9475 16.3015C18.959 16.7545 19.0655 17.2001 19.26 17.6094C19.3701 17.8405 19.4058 18.1001 19.3624 18.3524C19.3189 18.6047 19.1983 18.8374 19.0172 19.0184C18.8361 19.1994 18.6034 19.3198 18.351 19.3632C18.0987 19.4065 17.8391 19.3706 17.608 19.2604C17.1988 19.0659 16.7533 18.9594 16.3004 18.9479C15.8475 18.9363 15.3972 19.02 14.9786 19.1934C14.56 19.3668 14.1825 19.6262 13.8705 19.9547C13.5584 20.2831 13.3188 20.6734 13.167 21.1004C13.0816 21.3416 12.9235 21.5504 12.7145 21.6981C12.5055 21.8458 12.2559 21.9251 12 21.9251C11.7441 21.9251 11.4945 21.8458 11.2855 21.6981C11.0765 21.5504 10.9184 21.3416 10.833 21.1004C10.681 20.6735 10.4412 20.2833 10.129 19.9549C9.81685 19.6265 9.43927 19.3672 9.02066 19.1938C8.60206 19.0204 8.15174 18.9367 7.69878 18.9482C7.24583 18.9597 6.80031 19.066 6.39101 19.2604C6.15988 19.3701 5.90045 19.4056 5.64834 19.3619C5.39623 19.3183 5.16381 19.1977 4.983 19.0167C4.80219 18.8356 4.68186 18.6031 4.63853 18.3509C4.5952 18.0987 4.631 17.8393 4.74101 17.6084C4.93549 17.1991 5.0419 16.7536 5.05336 16.3006C5.06483 15.8476 4.98109 15.3973 4.80757 14.9787C4.63405 14.5601 4.3746 14.1826 4.04601 13.8706C3.71743 13.5586 3.32701 13.319 2.90001 13.1674C2.65923 13.0815 2.45091 12.9232 2.3036 12.7143C2.1563 12.5054 2.07722 12.256 2.07722 12.0003C2.07722 11.7447 2.1563 11.4953 2.3036 11.2864C2.45091 11.0775 2.65923 10.9192 2.90001 10.8334C3.32715 10.6818 3.71769 10.4422 4.04635 10.13C4.37501 9.81794 4.63446 9.4403 4.80791 9.02157C4.98136 8.60283 5.06495 8.15234 5.05325 7.69925C5.04155 7.24616 4.93484 6.80058 4.74001 6.39135C4.63014 6.16028 4.5945 5.90087 4.63798 5.64873C4.68146 5.3966 4.80193 5.16411 4.98285 4.98319C5.16377 4.80227 5.39626 4.6818 5.6484 4.63832C5.90053 4.59484 6.15995 4.63048 6.39101 4.74035C6.80029 4.93485 7.24583 5.04132 7.69882 5.05286C8.15182 5.06439 8.6022 4.98075 9.02085 4.80734C9.4395 4.63392 9.8171 4.37459 10.1293 4.0461C10.4414 3.71762 10.6812 3.32729 10.833 2.90035C10.9184 2.65912 11.0765 2.45028 11.2855 2.30258C11.4945 2.15488 11.7441 2.07557 12 2.07557C12.2559 2.07557 12.5055 2.15488 12.7145 2.30258C12.9235 2.45028 13.0816 2.65912 13.167 2.90035C13.3189 3.32729 13.5586 3.71762 13.8708 4.0461C14.1829 4.37459 14.5605 4.63392 14.9792 4.80734C15.3978 4.98075 15.8482 5.06439 16.3012 5.05286C16.7542 5.04132 17.1997 4.93485 17.609 4.74035C17.8402 4.63027 18.0998 4.59452 18.3521 4.638C18.6044 4.68148 18.8371 4.80206 19.0181 4.98316C19.199 5.16426 19.3195 5.39699 19.3628 5.64933C19.4061 5.90168 19.3702 6.16125 19.26 6.39235C19.0655 6.80155 18.9591 7.24702 18.9475 7.69995C18.936 8.15288 19.0197 8.60319 19.1931 9.02176C19.3665 9.44033 19.6258 9.81785 19.9543 10.1299C20.2828 10.442 20.6731 10.6816 21.1 10.8334C21.3412 10.9188 21.5501 11.0768 21.6978 11.2858C21.8455 11.4948 21.9248 11.7444 21.9248 12.0003C21.9248 12.2563 21.8455 12.5059 21.6978 12.7149C21.5501 12.9239 21.3412 13.0819 21.1 13.1674Z" fill="#262626"/>
</svg>
