<svg width="24" height="24" viewBox="0 0 24 24" fill="none" xmlns="http://www.w3.org/2000/svg">
<path d="M23.1119 8.8288L23.1144 8.83685L23.1171 8.84485C23.2845 9.33854 23.2885 9.87301 23.1285 10.3691C22.9685 10.8653 22.653 11.2967 22.2287 11.5996L22.2286 11.5995L22.2221 11.6043L18.6621 14.2043L18.224 14.5243L18.3907 15.0405L19.7427 19.2275C19.9037 19.726 19.9024 20.2628 19.7391 20.7607C19.5757 21.2585 19.2587 21.6917 18.8337 21.9981C18.4086 22.3044 17.8974 22.468 17.3734 22.4655C16.8495 22.4629 16.3399 22.2943 15.9178 21.9839L15.9176 21.9837L12.4356 19.4247L11.9911 19.098L11.5468 19.425L8.06584 21.987L8.06581 21.9869L8.05886 21.9922C7.64118 22.3071 7.13292 22.4787 6.60981 22.4813C6.0867 22.4839 5.57675 22.3174 5.15593 22.0067L5.14894 22.0015L5.14183 21.9965C4.71364 21.6954 4.39423 21.264 4.23122 20.7665C4.06821 20.2691 4.07032 19.7323 4.23725 19.2362L4.2373 19.2362L4.24012 19.2275L5.59212 15.0405L5.75871 14.5246L5.32107 14.2046L1.76507 11.6046L1.76506 11.6046C1.34355 11.2964 1.03021 10.8629 0.86979 10.366C0.709374 9.86909 0.71009 9.3342 0.871835 8.83772C1.03358 8.34125 1.34808 7.90859 1.77042 7.60154L1.32938 6.99492L1.77042 7.60154C2.19259 7.29461 2.70092 7.12889 3.22286 7.12801H7.5914H8.13843L8.30555 6.60714L9.63255 2.47114L9.63261 2.47094C9.79279 1.97121 10.1075 1.53526 10.5315 1.22596C10.9554 0.916666 11.4666 0.75 11.9914 0.75C12.5162 0.75 13.0274 0.916666 13.4513 1.22596C13.8753 1.53526 14.19 1.97121 14.3502 2.47094L14.3503 2.47114L15.6773 6.60714L15.8444 7.12801H16.3914H20.7604V7.12806L20.7685 7.12797C21.2899 7.12237 21.7993 7.28472 22.2213 7.59103C22.6433 7.89733 22.9556 8.33131 23.1119 8.8288Z" stroke="#FA8C16" stroke-width="1.5"/>
<path d="M10.0894 0.620078C10.6417 0.21713 11.3077 0 11.9914 0V20.029L8.5104 22.591C7.96365 23.0033 7.29832 23.2279 6.61356 23.2313C5.9288 23.2347 5.26126 23.0168 4.7104 22.61C4.14995 22.2159 3.73188 21.6512 3.51851 21.0001C3.30515 20.349 3.30792 19.6464 3.5264 18.997L4.8784 14.81L1.3224 12.21C0.773265 11.8085 0.365048 11.2438 0.15606 10.5964C-0.0529268 9.94904 -0.0519941 9.2522 0.158725 8.6054C0.369445 7.9586 0.779172 7.39494 1.32938 6.99492C1.8796 6.5949 2.54215 6.37898 3.2224 6.37801H7.5914L8.9184 2.24201C9.12708 1.59097 9.53714 1.02303 10.0894 0.620078Z" fill="#FA8C16"/>
</svg>
