<svg width="24" height="24" viewBox="0 0 24 24" fill="none" xmlns="http://www.w3.org/2000/svg">
<path d="M3.24174 5.66659C3.252 5.62688 3.2623 5.58789 3.2726 5.54963C4.2123 6.58556 5.3373 7.44298 6.59381 8.07543C8.27456 8.9214 10.1384 9.33858 12.0194 9.2898C12.4259 9.27926 12.75 8.9467 12.75 8.54006V7.54006H12.7501L12.7499 7.53C12.7397 6.76596 12.9643 6.01721 13.3935 5.38502C13.8227 4.75282 14.4356 4.26768 15.1495 3.99521C15.8634 3.72273 16.6437 3.67608 17.385 3.86155C18.1262 4.04702 18.7926 4.45567 19.2941 5.03223C19.4877 5.25483 19.7938 5.34326 20.0763 5.2582C20.5635 5.11147 21.0399 4.93319 21.5025 4.72481C21.1973 5.24212 20.8251 5.72028 20.3934 6.14605C20.2151 6.32184 20.1363 6.57497 20.1833 6.82087C20.2268 7.0485 20.2492 7.27967 20.25 7.51142C20.2496 12.9982 17.6398 16.8602 14.0226 18.7855C11.1191 20.3309 7.51784 20.654 3.99875 19.5069C5.57179 19.1779 7.07551 18.5441 8.42122 17.6306C8.64654 17.4777 8.77125 17.2146 8.74703 16.9433C8.7228 16.6721 8.55346 16.4353 8.3046 16.3247C6.17453 15.378 4.85834 14.1577 4.05549 12.89C3.24962 11.6176 2.93221 10.2516 2.87423 8.976C2.81609 7.69709 3.01983 6.52463 3.24174 5.66659Z" stroke="#222B34" stroke-width="1.5" stroke-linecap="round" stroke-linejoin="round"/>
</svg>
