<svg width="24" height="24" viewBox="0 0 24 24" fill="none" xmlns="http://www.w3.org/2000/svg">
<g clip-path="url(#clip0_1_1567)">
<path d="M20.5368 12.7L19.4068 12L20.5378 11.3C21.3231 10.8331 21.9312 10.1188 22.2668 9.26905C22.4768 8.70719 22.5551 8.10461 22.4956 7.50773C22.4361 6.91084 22.2404 6.33558 21.9235 5.82626C21.6067 5.31694 21.1771 4.88716 20.6679 4.57003C20.1588 4.25289 19.5836 4.05686 18.9868 3.99705C18.0761 3.92256 17.1665 4.1526 16.4008 4.65105L15.9998 4.90005V4.17205C16.0167 3.1568 15.6577 2.17114 14.9919 1.40453C14.3261 0.637919 13.4004 0.144474 12.3928 0.0190481C11.837 -0.0358204 11.2759 0.026293 10.7456 0.20139C10.2153 0.376487 9.72756 0.660687 9.31375 1.0357C8.89993 1.4107 8.56922 1.86821 8.34291 2.37876C8.11661 2.88931 7.99972 3.44159 7.99977 4.00005V4.90005L7.59977 4.65005C6.83417 4.15019 5.9241 3.91907 5.01277 3.99305C4.41581 4.05234 3.84044 4.24792 3.331 4.56471C2.82157 4.88149 2.39169 5.31103 2.07449 5.82021C1.7573 6.32939 1.56126 6.9046 1.50149 7.50151C1.44172 8.09843 1.51982 8.70109 1.72977 9.26305C2.0654 10.1131 2.67394 10.8275 3.45977 11.294L4.59277 12L3.46177 12.7C2.67647 13.167 2.06834 13.8813 1.73277 14.731C1.52241 15.2933 1.44408 15.8965 1.50383 16.4938C1.56359 17.0912 1.75982 17.6668 2.07738 18.1763C2.39493 18.6858 2.82533 19.1155 3.33533 19.4322C3.84533 19.749 4.4213 19.9443 5.01877 20.003C5.92741 20.0773 6.83504 19.8484 7.59977 19.352L7.99977 19.1V20C7.99977 21.0609 8.42119 22.0783 9.17134 22.8285C9.92148 23.5786 10.9389 24.0001 11.9998 24.0001C13.0606 24.0001 14.078 23.5786 14.8282 22.8285C15.5783 22.0783 15.9998 21.0609 15.9998 20V19.1L16.3998 19.351C17.164 19.8477 18.0712 20.0773 18.9798 20.004C19.5771 19.945 20.1528 19.7495 20.6625 19.4326C21.1723 19.1158 21.6025 18.6861 21.9198 18.1766C22.2371 17.6672 22.4332 17.0916 22.4928 16.4944C22.5525 15.8971 22.4741 15.2942 22.2638 14.732C21.9288 13.8823 21.3214 13.1677 20.5368 12.7ZM20.2258 17.118C19.9571 17.5492 19.5281 17.856 19.0332 17.971C18.5383 18.086 18.018 17.9996 17.5868 17.7311L15.5278 16.449C15.3762 16.3548 15.2022 16.3029 15.0238 16.2986C14.8454 16.2943 14.6691 16.3378 14.5132 16.4246C14.3573 16.5115 14.2275 16.6384 14.1372 16.7924C14.0469 16.9463 13.9995 17.1216 13.9998 17.3V20C13.9998 20.5305 13.7891 21.0392 13.414 21.4143C13.0389 21.7893 12.5302 22 11.9998 22C11.4693 22 10.9606 21.7893 10.5856 21.4143C10.2105 21.0392 9.99977 20.5305 9.99977 20V17.3C9.99972 17.1218 9.95202 16.9467 9.86159 16.7931C9.77116 16.6394 9.6413 16.5128 9.48546 16.4262C9.32961 16.3396 9.15345 16.2962 8.97522 16.3006C8.79699 16.305 8.62317 16.3569 8.47177 16.451L6.41277 17.7351C6.19924 17.868 5.96161 17.9576 5.71345 17.9987C5.46529 18.0399 5.21146 18.0317 4.96646 17.9748C4.72145 17.9178 4.49006 17.8131 4.28551 17.6667C4.08095 17.5203 3.90723 17.3351 3.77427 17.1215C3.6413 16.908 3.5517 16.6704 3.51057 16.4222C3.46944 16.1741 3.4776 15.9202 3.53456 15.6752C3.59153 15.4302 3.6962 15.1988 3.84259 14.9943C3.98899 14.7897 4.17424 14.616 4.38777 14.483L7.01277 12.849C7.15748 12.7594 7.27689 12.6342 7.35971 12.4855C7.44252 12.3367 7.48598 12.1693 7.48598 11.999C7.48598 11.8288 7.44252 11.6614 7.35971 11.5126C7.27689 11.3639 7.15748 11.2387 7.01277 11.149L4.38777 9.51605C3.95652 9.24752 3.64962 8.81867 3.53456 8.32386C3.41951 7.82904 3.50573 7.30879 3.77427 6.87755C4.0428 6.44631 4.47164 6.1394 4.96646 6.02435C5.46127 5.90929 5.98152 5.99552 6.41277 6.26405L8.47177 7.54605C8.62296 7.64005 8.7965 7.69198 8.97448 7.69649C9.15245 7.70099 9.3284 7.6579 9.48415 7.57167C9.6399 7.48543 9.76981 7.35918 9.86045 7.20595C9.9511 7.05273 9.99919 6.87808 9.99977 6.70005V4.10705C9.98897 3.6202 10.1497 3.14506 10.454 2.7648C10.7582 2.38454 11.1864 2.12338 11.6638 2.02705C11.9508 1.97813 12.2451 1.99248 12.526 2.06911C12.807 2.14573 13.0678 2.28279 13.2903 2.47068C13.5127 2.65858 13.6915 2.8928 13.814 3.15695C13.9366 3.42111 14 3.70885 13.9998 4.00005V6.70005C14 6.87825 14.0478 7.05315 14.1383 7.20666C14.2288 7.36017 14.3587 7.48671 14.5145 7.57318C14.6703 7.65965 14.8464 7.70292 15.0246 7.6985C15.2027 7.69408 15.3764 7.64214 15.5278 7.54805L17.5868 6.26705C17.8003 6.13409 18.0379 6.04448 18.2861 6.00335C18.5342 5.96223 18.7881 5.97038 19.0331 6.02735C19.2781 6.08432 19.5095 6.18898 19.714 6.33538C19.9186 6.48177 20.0923 6.66702 20.2253 6.88055C20.3582 7.09408 20.4478 7.33171 20.489 7.57986C20.5301 7.82802 20.5219 8.08185 20.465 8.32686C20.408 8.57187 20.3033 8.80325 20.1569 9.00781C20.0105 9.21237 19.8253 9.38609 19.6118 9.51905L16.9868 11.153C16.8421 11.2427 16.7226 11.3679 16.6398 11.5166C16.557 11.6654 16.5135 11.8328 16.5135 12.003C16.5135 12.1733 16.557 12.3407 16.6398 12.4895C16.7226 12.6382 16.8421 12.7634 16.9868 12.853L19.6118 14.4871C19.8254 14.6198 20.0108 14.7934 20.1573 14.9979C20.3038 15.2024 20.4086 15.4338 20.4656 15.6788C20.5226 15.9238 20.5308 16.1776 20.4896 16.4258C20.4485 16.6739 20.3588 16.9116 20.2258 17.125V17.118Z" fill="#262626"/>
</g>
<defs>
<clipPath id="clip0_1_1567">
<rect width="24" height="24" fill="white"/>
</clipPath>
</defs>
</svg>
