<svg width="24" height="24" viewBox="0 0 24 24" fill="none" xmlns="http://www.w3.org/2000/svg">
<g clip-path="url(#clip0_1_1686)">
<path d="M20 12C19.3866 11.9999 18.7813 12.1411 18.2312 12.4127C17.6811 12.6843 17.201 13.0789 16.828 13.566L16.758 13.536C17.0331 12.6841 17.0743 11.7739 16.8774 10.9005C16.6805 10.0272 16.2528 9.22268 15.6388 8.5711C15.0248 7.91953 14.2472 7.44475 13.387 7.19637C12.5269 6.94798 11.6159 6.93509 10.749 7.15905L10.658 6.98705C11.3844 6.34077 11.8502 5.45178 11.9681 4.48669C12.0859 3.5216 11.8478 2.54664 11.2983 1.74455C10.7488 0.942455 9.92567 0.368275 8.98315 0.129617C8.04064 -0.10904 7.04344 0.00420544 6.17844 0.448132C5.31344 0.892058 4.64001 1.63619 4.28437 2.54108C3.92873 3.44596 3.91529 4.44948 4.24656 5.36357C4.57783 6.27766 5.23107 7.03957 6.08387 7.50651C6.93667 7.97345 7.93048 8.11337 8.87905 7.90005L8.95205 8.03705C7.9521 8.80437 7.27944 9.92156 7.0691 11.1643C6.85876 12.4071 7.12631 13.6834 7.81805 14.737L5.93305 16.5C5.08102 16.0293 4.08656 15.8854 3.13604 16.0953C2.18552 16.3053 1.34417 16.8546 0.769646 17.6404C0.195126 18.4262 -0.0731302 19.3945 0.0151468 20.364C0.103424 21.3334 0.542175 22.2373 1.24918 22.9064C1.95619 23.5755 2.88293 23.9639 3.85573 23.9987C4.82854 24.0334 5.78064 23.7123 6.53363 23.0954C7.28662 22.4785 7.78882 21.6082 7.9461 20.6475C8.10339 19.6869 7.90498 18.7019 7.38805 17.877L9.22605 16.159C10.2355 16.8338 11.4563 17.1175 12.6599 16.9572C13.8635 16.7969 14.9674 16.2035 15.7651 15.288L16.0441 15.407C15.923 16.2145 16.052 17.0397 16.4136 17.7717C16.7752 18.5037 17.3522 19.1076 18.067 19.5021C18.7819 19.8966 19.6003 20.0629 20.4124 19.9787C21.2246 19.8945 21.9915 19.5638 22.6101 19.031C23.2288 18.4981 23.6696 17.7888 23.8733 16.9981C24.0771 16.2075 24.0339 15.3734 23.7498 14.608C23.4656 13.8425 22.9541 13.1824 22.2837 12.7162C21.6134 12.25 20.8165 12.0001 20 12ZM6.00005 4.00005C6.00005 3.60448 6.11735 3.2178 6.33711 2.88891C6.55687 2.56001 6.86923 2.30366 7.23468 2.15229C7.60013 2.00091 8.00227 1.9613 8.39023 2.03848C8.77819 2.11565 9.13456 2.30613 9.41426 2.58583C9.69397 2.86554 9.88445 3.2219 9.96162 3.60987C10.0388 3.99783 9.99918 4.39996 9.84781 4.76541C9.69643 5.13087 9.44009 5.44322 9.11119 5.66298C8.78229 5.88275 8.39561 6.00005 8.00005 6.00005C7.46962 6.00005 6.96091 5.78933 6.58584 5.41426C6.21076 5.03919 6.00005 4.53048 6.00005 4.00005ZM4.00005 22C3.60449 22 3.21781 21.8827 2.88891 21.663C2.56001 21.4432 2.30366 21.1309 2.15229 20.7654C2.00091 20.4 1.96131 19.9978 2.03848 19.6099C2.11565 19.2219 2.30613 18.8655 2.58583 18.5858C2.86554 18.3061 3.22191 18.1156 3.60987 18.0385C3.99783 17.9613 4.39996 18.0009 4.76542 18.1523C5.13087 18.3037 5.44322 18.56 5.66299 18.8889C5.88275 19.2178 6.00005 19.6045 6.00005 20C6.00005 20.5305 5.78934 21.0392 5.41426 21.4143C5.03919 21.7893 4.53048 22 4.00005 22ZM12.0001 15C11.3507 14.9988 10.7194 14.7869 10.2008 14.3962C9.68215 14.0055 9.3043 13.4571 9.12395 12.8333C8.94361 12.2095 8.97051 11.5441 9.20061 10.9369C9.43071 10.3297 9.8516 9.81361 10.4 9.46605L10.807 9.24905C11.216 9.07115 11.6595 8.98668 12.1052 9.00177C12.5509 9.01685 12.9877 9.13113 13.3837 9.33627C13.7796 9.54141 14.1249 9.83225 14.3944 10.1876C14.6638 10.543 14.8506 10.954 14.9412 11.3907C15.0318 11.8274 15.0238 12.2788 14.918 12.712C14.8122 13.1452 14.6111 13.5494 14.3294 13.8951C14.0476 14.2409 13.6924 14.5194 13.2894 14.7106C12.8865 14.9017 12.446 15.0006 12.0001 15ZM20 18C19.6045 18 19.2178 17.8827 18.8889 17.663C18.56 17.4432 18.3037 17.1309 18.1523 16.7654C18.0009 16.4 17.9613 15.9978 18.0385 15.6099C18.1157 15.2219 18.3061 14.8655 18.5858 14.5858C18.8655 14.3061 19.2219 14.1156 19.6099 14.0385C19.9978 13.9613 20.4 14.0009 20.7654 14.1523C21.1309 14.3037 21.4432 14.56 21.663 14.8889C21.8828 15.2178 22 15.6045 22 16C22 16.5305 21.7893 17.0392 21.4143 17.4143C21.0392 17.7893 20.5305 18 20 18Z" fill="#262626"/>
</g>
<defs>
<clipPath id="clip0_1_1686">
<rect width="24" height="24" fill="white"/>
</clipPath>
</defs>
</svg>
