<svg width="24" height="24" viewBox="0 0 24 24" fill="none" xmlns="http://www.w3.org/2000/svg">
<g clip-path="url(#clip0_107_18866)">
<path d="M10.4999 16.9999C10.2369 17.0001 9.9765 16.9485 9.73353 16.8479C9.49055 16.7474 9.26979 16.5999 9.08388 16.4139L5.29988 12.7149C5.11025 12.5293 5.00214 12.2759 4.99932 12.0105C4.99651 11.7452 5.09923 11.4895 5.28488 11.2999C5.47053 11.1103 5.72391 11.0022 5.98927 10.9994C6.25464 10.9965 6.51025 11.0993 6.69988 11.2849L10.4929 14.9919L17.2989 8.29191C17.4908 8.12303 17.7401 8.03408 17.9956 8.04332C18.2511 8.05256 18.4933 8.15929 18.6726 8.34159C18.8518 8.52389 18.9544 8.76791 18.9593 9.02351C18.9642 9.27911 18.871 9.52688 18.6989 9.71591L11.9059 16.4229C11.721 16.6068 11.5016 16.7524 11.2604 16.8515C11.0191 16.9505 10.7607 17.0009 10.4999 16.9999Z" fill="#262626"/>
<path d="M12 0C9.62663 0 7.30655 0.703788 5.33316 2.02236C3.35977 3.34094 1.8217 5.21509 0.913451 7.4078C0.00519943 9.60051 -0.232441 12.0133 0.230582 14.3411C0.693605 16.6689 1.83649 18.8071 3.51472 20.4853C5.19295 22.1635 7.33115 23.3064 9.65892 23.7694C11.9867 24.2324 14.3995 23.9948 16.5922 23.0866C18.7849 22.1783 20.6591 20.6402 21.9776 18.6668C23.2962 16.6935 24 14.3734 24 12C23.9966 8.81846 22.7312 5.76821 20.4815 3.51852C18.2318 1.26883 15.1815 0.00344108 12 0V0ZM12 22C10.0222 22 8.08879 21.4135 6.4443 20.3147C4.79981 19.2159 3.51809 17.6541 2.76121 15.8268C2.00433 13.9996 1.8063 11.9889 2.19215 10.0491C2.578 8.10929 3.53041 6.32746 4.92894 4.92893C6.32746 3.53041 8.10929 2.578 10.0491 2.19215C11.9889 1.8063 13.9996 2.00433 15.8268 2.7612C17.6541 3.51808 19.2159 4.79981 20.3147 6.4443C21.4135 8.08879 22 10.0222 22 12C21.9971 14.6513 20.9426 17.1931 19.0679 19.0679C17.1931 20.9426 14.6513 21.9971 12 22Z" fill="#262626"/>
</g>
<defs>
<clipPath id="clip0_107_18866">
<rect width="24" height="24" fill="white"/>
</clipPath>
</defs>
</svg>
