<svg width="24" height="24" viewBox="0 0 24 24" fill="none" xmlns="http://www.w3.org/2000/svg">
<path d="M9.22215 7.84265C10.0444 7.29324 11.0111 7 12 7C13.3261 7 14.5979 7.52678 15.5355 8.46447C16.4732 9.40215 17 10.6739 17 12C17 12.9889 16.7068 13.9556 16.1573 14.7778C15.6079 15.6001 14.827 16.241 13.9134 16.6194C12.9998 16.9978 11.9945 17.0968 11.0245 16.9039C10.0546 16.711 9.16373 16.2348 8.46447 15.5355C7.76521 14.8363 7.289 13.9454 7.09608 12.9754C6.90315 12.0055 7.00217 11.0002 7.3806 10.0866C7.75904 9.17295 8.39991 8.39206 9.22215 7.84265Z" fill="#262626" stroke="#262626" stroke-width="1.2"/>
</svg>
