<svg width="24" height="24" viewBox="0 0 24 24" fill="none" xmlns="http://www.w3.org/2000/svg">
<g clip-path="url(#clip0_1_1733)">
<path d="M18.7462 20.3341C18.8337 20.4321 18.9011 20.5465 18.9444 20.6706C18.9877 20.7947 19.0062 20.9262 18.9986 21.0574C18.9911 21.1886 18.9578 21.3171 18.9006 21.4354C18.8434 21.5538 18.7634 21.6597 18.6652 21.7471L17.0792 23.1611C16.8074 23.4301 16.4852 23.6427 16.131 23.7867C15.7767 23.9307 15.3975 24.0032 15.0152 24.0001C14.6186 24.0009 14.2258 23.9234 13.8593 23.772C13.4927 23.6207 13.1597 23.3984 12.8792 23.1181L11.3352 21.7441C11.2371 21.6568 11.1571 21.551 11.0999 21.4328C11.0427 21.3145 11.0094 21.1862 11.0017 21.0551C10.9864 20.7903 11.0768 20.5302 11.2532 20.3321C11.4296 20.134 11.6774 20.014 11.9422 19.9987C12.0733 19.991 12.2046 20.0093 12.3287 20.0525C12.4527 20.0956 12.5671 20.1628 12.6652 20.2501L14.0002 21.4441V14.0001C14.0002 13.7349 14.1055 13.4805 14.2931 13.293C14.4806 13.1055 14.735 13.0001 15.0002 13.0001C15.2654 13.0001 15.5198 13.1055 15.7073 13.293C15.8948 13.4805 16.0002 13.7349 16.0002 14.0001V21.4451L17.3352 20.2531C17.5331 20.0769 17.7929 19.9864 18.0574 20.0016C18.322 20.0168 18.5697 20.1364 18.7462 20.3341ZM18.3562 7.3611C18.1845 7.30778 18.0287 7.21274 17.9027 7.08448C17.7767 6.95621 17.6844 6.79873 17.6342 6.6261C17.1047 4.92619 16.0233 3.45148 14.5611 2.43551C13.099 1.41953 11.3397 0.920342 9.56188 1.01699C7.78404 1.11363 6.08925 1.80059 4.74586 2.96908C3.40248 4.13757 2.48728 5.72081 2.14518 7.4681C1.79417 9.23511 2.07744 11.0693 2.94518 12.6481C1.93363 13.1703 1.11109 13.9964 0.593099 15.0101C0.0751089 16.0238 -0.112305 17.1744 0.0571826 18.3001C0.317834 19.6079 1.018 20.7872 2.0414 21.6422C3.0648 22.4971 4.34986 22.9763 5.68318 23.0001H8.00018C8.2654 23.0001 8.51975 22.8947 8.70729 22.7072C8.89482 22.5197 9.00018 22.2653 9.00018 22.0001C9.00018 21.7349 8.89482 21.4805 8.70729 21.293C8.51975 21.1055 8.2654 21.0001 8.00018 21.0001H5.68318C4.82914 20.9837 4.00538 20.6808 3.34417 20.14C2.68296 19.5992 2.22266 18.8519 2.03718 18.0181C1.92859 17.3017 2.04708 16.5692 2.37601 15.9235C2.70493 15.2779 3.22779 14.7514 3.87118 14.4181C4.32977 14.1646 4.67011 13.7408 4.81852 13.2383C4.96694 12.7358 4.91149 12.195 4.66418 11.7331C4.27589 10.9925 4.04668 10.179 3.99124 9.34468C3.9358 8.51035 4.05537 7.67364 4.34227 6.88823C4.62916 6.10282 5.07706 5.38604 5.65723 4.78389C6.23739 4.18173 6.93701 3.70749 7.71121 3.39158C8.48541 3.07567 9.31709 2.92507 10.1529 2.94944C10.9887 2.97381 11.8102 3.17261 12.5647 3.53309C13.3192 3.89357 13.99 4.40777 14.5341 5.04271C15.0782 5.67765 15.4835 6.4193 15.7242 7.2201C15.8722 7.7028 16.1358 8.14206 16.4922 8.49968C16.8486 8.85729 17.287 9.12245 17.7692 9.2721C19.0755 9.66959 20.2061 10.5028 20.9725 11.6328C21.739 12.7628 22.095 14.1214 21.9812 15.4821C21.9059 16.5401 21.5193 17.5522 20.8702 18.3911C20.7085 18.6014 20.6371 18.8673 20.6715 19.1304C20.7059 19.3934 20.8434 19.6319 21.0537 19.7936C21.264 19.9552 21.5299 20.0267 21.7929 19.9923C22.056 19.9579 22.2945 19.8204 22.4562 19.6101C23.3372 18.4615 23.8653 17.0815 23.9762 15.6381C24.1272 13.8238 23.6517 12.0125 22.629 10.5063C21.6064 9.00013 20.0982 7.89002 18.3562 7.3611Z" fill="#262626"/>
</g>
<defs>
<clipPath id="clip0_1_1733">
<rect width="24" height="24" fill="white"/>
</clipPath>
</defs>
</svg>
