<svg width="24" height="24" viewBox="0 0 24 24" fill="none" xmlns="http://www.w3.org/2000/svg">
<g clip-path="url(#clip0_1_1757)">
<path d="M13.4999 6.49992C13.4999 6.89775 13.3418 7.27928 13.0605 7.56058C12.7792 7.84189 12.3977 7.99992 11.9999 7.99992C11.602 7.99992 11.2205 7.84189 10.9392 7.56058C10.6579 7.27928 10.4999 6.89775 10.4999 6.49992C10.4999 6.1021 10.6579 5.72057 10.9392 5.43926C11.2205 5.15796 11.602 4.99992 11.9999 4.99992C12.3977 4.99992 12.7792 5.15796 13.0605 5.43926C13.3418 5.72057 13.4999 6.1021 13.4999 6.49992ZM23.9999 18.9999V12.3399C24.0372 9.25737 22.907 6.27482 20.8362 3.99109C18.7654 1.70737 15.9074 0.291558 12.8359 0.0279206C11.1215 -0.0920218 9.4014 0.15766 7.79191 0.760073C6.18241 1.36249 4.72108 2.30358 3.50679 3.51967C2.29249 4.73576 1.35357 6.19849 0.753545 7.80888C0.153518 9.41927 -0.0936135 11.1398 0.0288701 12.8539C0.47087 19.2079 6.08187 23.9999 13.0829 23.9999H18.9999C20.3255 23.9983 21.5963 23.471 22.5337 22.5337C23.471 21.5964 23.9983 20.3255 23.9999 18.9999ZM12.6999 2.02392C15.2663 2.25096 17.6518 3.44083 19.377 5.35448C21.1021 7.26812 22.0392 9.76374 21.9999 12.3399V18.9999C21.9999 19.7956 21.6838 20.5586 21.1212 21.1212C20.5586 21.6839 19.7955 21.9999 18.9999 21.9999H13.0829C7.04887 21.9999 2.39987 18.0999 2.02487 12.7159C1.92642 11.3445 2.11184 9.96752 2.56955 8.67099C3.02726 7.37446 3.74742 6.18625 4.68504 5.18059C5.62266 4.17493 6.7576 3.37343 8.01894 2.82617C9.28028 2.2789 10.6409 1.99763 12.0159 1.99992C12.2429 1.99992 12.4719 2.00892 12.6999 2.02392ZM13.9999 17.9999V11.9999C13.9999 11.4695 13.7892 10.9608 13.4141 10.5857C13.039 10.2106 12.5303 9.99992 11.9999 9.99992H10.9999C10.7347 9.99992 10.4803 10.1053 10.2928 10.2928C10.1052 10.4804 9.99987 10.7347 9.99987 10.9999C9.99987 11.2651 10.1052 11.5195 10.2928 11.707C10.4803 11.8946 10.7347 11.9999 10.9999 11.9999H11.9999V17.9999C11.9999 18.2651 12.1052 18.5195 12.2928 18.707C12.4803 18.8946 12.7347 18.9999 12.9999 18.9999C13.2651 18.9999 13.5194 18.8946 13.707 18.707C13.8945 18.5195 13.9999 18.2651 13.9999 17.9999Z" fill="#262626"/>
</g>
<defs>
<clipPath id="clip0_1_1757">
<rect width="24" height="24" fill="white"/>
</clipPath>
</defs>
</svg>
