<svg width="24" height="24" viewBox="0 0 24 24" fill="none" xmlns="http://www.w3.org/2000/svg">
<g clip-path="url(#clip0_1_1812)">
<path d="M22 12.1839V10.9999C21.9974 10.3817 21.8039 9.77929 21.4459 9.27522C21.0879 8.77115 20.5829 8.39 20 8.18392C20.0524 5.60456 19.4136 3.05816 18.15 0.808919C17.9576 0.5372 17.6987 0.319339 17.3981 0.176135C17.0975 0.0329308 16.7652 -0.0308371 16.433 -0.00908125C16.0871 0.0134159 15.7527 0.123879 15.4615 0.311835C15.1703 0.499791 14.9319 0.759011 14.769 1.06492C14 2.47592 13.24 2.99992 11.962 2.99992H10C8.53439 2.92613 7.09716 3.42284 5.98986 4.38583C4.88256 5.34882 4.19126 6.70324 4.061 8.16492C3.46364 8.36178 2.94326 8.7414 2.57342 9.25013C2.20359 9.75887 2.00299 10.371 2 10.9999V12.1839C1.41709 12.39 0.912091 12.7712 0.554088 13.2752C0.196084 13.7793 0.00256297 14.3817 0 14.9999L0 18.9999C0.00158786 20.3255 0.528882 21.5964 1.46622 22.5337C2.40356 23.471 3.67441 23.9983 5 23.9999H19C20.3256 23.9983 21.5964 23.471 22.5338 22.5337C23.4711 21.5964 23.9984 20.3255 24 18.9999V14.9999C23.9974 14.3817 23.8039 13.7793 23.4459 13.2752C23.0879 12.7712 22.5829 12.39 22 12.1839ZM10 4.99992H11.962C12.9359 5.00102 13.8885 4.71491 14.7007 4.1774C15.5128 3.63988 16.1484 2.87482 16.528 1.97792C17.5203 3.82839 18.0267 5.90038 18 7.99992H6.131C6.29118 7.11015 6.77518 6.31122 7.48963 5.75724C8.20408 5.20326 9.09838 4.93347 10 4.99992ZM4 10.9999C4 10.7347 4.10536 10.4803 4.29289 10.2928C4.48043 10.1053 4.73478 9.99992 5 9.99992H19C19.2652 9.99992 19.5196 10.1053 19.7071 10.2928C19.8946 10.4803 20 10.7347 20 10.9999V11.9999H4V10.9999ZM22 18.9999C22 19.7956 21.6839 20.5586 21.1213 21.1212C20.5587 21.6839 19.7956 21.9999 19 21.9999H5C4.20435 21.9999 3.44129 21.6839 2.87868 21.1212C2.31607 20.5586 2 19.7956 2 18.9999V14.9999C2 14.7347 2.10536 14.4804 2.29289 14.2928C2.48043 14.1053 2.73478 13.9999 3 13.9999H21C21.2652 13.9999 21.5196 14.1053 21.7071 14.2928C21.8946 14.4804 22 14.7347 22 14.9999V18.9999Z" fill="#262626"/>
</g>
<defs>
<clipPath id="clip0_1_1812">
<rect width="24" height="24" fill="white"/>
</clipPath>
</defs>
</svg>
