<svg width="24" height="24" viewBox="0 0 24 24" fill="none" xmlns="http://www.w3.org/2000/svg">
<g clip-path="url(#clip0_1_1826)">
<path d="M22.766 4.56594C22.4006 4.41373 21.9981 4.37372 21.6099 4.45101C21.2217 4.52829 20.8653 4.71939 20.586 4.99994L18 7.58594L13.414 2.99994C13.0389 2.625 12.5303 2.41437 12 2.41437C11.4697 2.41437 10.9611 2.625 10.586 2.99994L6 7.58594L3.414 4.99994C3.1343 4.72032 2.77797 4.52991 2.39006 4.45277C2.00216 4.37564 1.60009 4.41524 1.23469 4.56658C0.869291 4.71792 0.556965 4.9742 0.337197 5.30302C0.117428 5.63184 8.44486e-05 6.01844 0 6.41394L0 16.9999C0.00158786 18.3255 0.528882 19.5964 1.46622 20.5337C2.40356 21.4711 3.67441 21.9984 5 21.9999H19C20.3256 21.9984 21.5964 21.4711 22.5338 20.5337C23.4711 19.5964 23.9984 18.3255 24 16.9999V6.41394C24.0001 6.01841 23.8829 5.63173 23.6633 5.30279C23.4436 4.97385 23.1314 4.71743 22.766 4.56594ZM22 16.9999C22 17.7956 21.6839 18.5587 21.1213 19.1213C20.5587 19.6839 19.7956 19.9999 19 19.9999H5C4.20435 19.9999 3.44129 19.6839 2.87868 19.1213C2.31607 18.5587 2 17.7956 2 16.9999V6.41394L5.293 9.70694C5.48053 9.89441 5.73484 9.99973 6 9.99973C6.26516 9.99973 6.51947 9.89441 6.707 9.70694L12 4.41394L17.293 9.70694C17.4805 9.89441 17.7348 9.99973 18 9.99973C18.2652 9.99973 18.5195 9.89441 18.707 9.70694L22 6.41394V16.9999Z" fill="#262626"/>
</g>
<defs>
<clipPath id="clip0_1_1826">
<rect width="24" height="24" fill="white"/>
</clipPath>
</defs>
</svg>
