<svg width="24" height="24" viewBox="0 0 24 24" fill="none" xmlns="http://www.w3.org/2000/svg">
<path d="M8.7522 17.839C8.44194 18.4536 8.08087 19.0366 7.67716 19.5879L7.6724 19.5944L7.66747 19.6007C7.50011 19.8173 7.20729 19.927 6.92028 19.8394L6.91721 19.8385C5.23162 19.3145 3.51085 18.5223 1.73872 17.2209L1.73108 17.2153L1.72361 17.2094C1.58596 17.1018 1.47892 16.9321 1.46026 16.7274M8.7522 17.839L2.08265 16.6703M8.7522 17.839C8.77687 17.7903 8.79516 17.7406 8.80751 17.6907C10.9165 18.2522 13.0865 18.2539 15.1833 17.6947C15.1957 17.7441 15.2138 17.7929 15.2378 17.8401L15.2378 17.8401L15.2395 17.8435C15.5543 18.4533 15.9131 19.0327 16.3071 19.5811C16.4804 19.8239 16.788 19.925 17.0684 19.8394L17.0706 19.8387C18.7646 19.3147 20.4856 18.5224 22.2578 17.2209L22.2598 17.2194C22.4136 17.1055 22.5174 16.9295 22.5361 16.7301C22.9672 12.2672 21.8113 8.3811 19.4844 4.95186C19.4051 4.82484 19.2942 4.74199 19.1888 4.69441C17.8677 4.08846 16.4509 3.6418 14.9693 3.38568M8.7522 17.839L14.9693 3.38568M1.46026 16.7274C1.46016 16.7263 1.46006 16.7252 1.45997 16.7241L2.08265 16.6703M1.46026 16.7274C1.46029 16.7277 1.46032 16.7281 1.46036 16.7284L2.08265 16.6703M1.46026 16.7274C1.09978 12.8648 1.83937 8.94315 4.51453 4.94413M2.08265 16.6703C1.73421 12.9387 2.44449 9.16033 5.03732 5.28669M4.51453 4.94413C4.51081 4.94984 4.50716 4.95563 4.50359 4.9615L5.03732 5.28669M4.51453 4.94413C4.58921 4.82944 4.69304 4.74539 4.80633 4.69431M4.51453 4.94413C4.51567 4.94243 4.5168 4.94074 4.51794 4.93904L5.03732 5.28669M5.03732 5.28669L4.80633 4.69431M4.80633 4.69431C4.80532 4.69477 4.80431 4.69523 4.80331 4.69569L5.06411 5.26368L4.81667 4.68975C4.81322 4.69124 4.80977 4.69276 4.80633 4.69431ZM4.80633 4.69431C6.12918 4.08719 7.54704 3.64034 9.02896 3.3851L9.04081 3.38306L9.04083 3.38318C9.31275 3.34171 9.59407 3.466 9.74051 3.71735L9.74473 3.72461L9.74469 3.72463C9.85727 3.92397 9.98006 4.15799 10.0923 4.39062M4.80633 4.69431L9.71527 5.0732M10.0923 4.39062C9.93493 4.4098 9.77777 4.43139 9.62084 4.45537L9.71527 5.0732M10.0923 4.39062C10.1653 4.542 10.2339 4.69279 10.2923 4.83306L9.71527 5.0732M10.0923 4.39062C11.3537 4.23687 12.629 4.23735 13.9091 4.39147M9.71527 5.0732C11.221 4.84306 12.7503 4.84306 14.2876 5.0732M13.9091 4.39147C13.837 4.54411 13.7698 4.69377 13.7124 4.82858L14.2876 5.0732M13.9091 4.39147C14.0171 4.16293 14.1361 3.92771 14.2497 3.72568L14.2499 3.7253C14.3937 3.46986 14.6822 3.33447 14.9693 3.38568M13.9091 4.39147C14.066 4.41037 14.223 4.43157 14.3801 4.45509L14.2876 5.0732M14.2876 5.0732C14.4239 4.75258 14.6187 4.34466 14.7945 4.03198L14.9693 3.38568M6.71292 16.5278C6.67327 16.5585 6.63337 16.5888 6.59347 16.6187C6.55721 16.6457 6.56037 16.7021 6.59977 16.7251M6.71292 16.5278L7.11272 16.9605C7.09463 16.9662 7.07631 16.971 7.05784 16.9749C6.95979 16.9242 6.86254 16.8721 6.76603 16.8187L6.94268 16.4236L6.94281 16.4234L6.96794 16.3671L6.94246 16.423L6.94234 16.4232L6.76263 16.8168C6.75079 16.8103 6.73897 16.8037 6.72716 16.7971C6.72666 16.7969 6.72615 16.7966 6.72565 16.7963C6.68355 16.7728 6.64159 16.7491 6.59977 16.7251M6.71292 16.5278L6.63159 16.6696L6.63148 16.6698L6.59977 16.7251M6.71292 16.5278L6.71673 16.5248L6.63192 16.67L6.63181 16.6702L6.59977 16.7251M9.8558 12.3735L9.85573 12.3735V12.3824C9.85573 13.2201 9.27166 13.7732 8.68335 13.7732C8.10743 13.7732 7.51094 13.2164 7.51094 12.3824C7.51094 11.5447 8.09502 10.9916 8.68335 10.9916C9.28372 10.9916 9.86749 11.5558 9.8558 12.3735ZM16.5014 12.3735L16.5014 12.3735V12.3824C16.5014 13.222 15.9235 13.7732 15.329 13.7732C14.7531 13.7732 14.1566 13.2164 14.1566 12.3824C14.1566 11.5447 14.7406 10.9916 15.329 10.9916C15.9293 10.9916 16.5131 11.5558 16.5014 12.3735Z" stroke="#262626" stroke-width="1.25"/>
</svg>
