<svg width="24" height="24" viewBox="0 0 24 24" fill="none" xmlns="http://www.w3.org/2000/svg">
<g clip-path="url(#clip0_1_1923)">
<path d="M22.827 1.17414C22.3418 0.684496 21.7374 0.329697 21.0734 0.144703C20.4093 -0.0402917 19.7085 -0.0491003 19.04 0.119145C13.8576 1.47969 9.11135 4.14825 5.25602 7.86915C4.49762 8.63213 3.90621 9.54453 3.51938 10.5484C3.13254 11.5522 2.95874 12.6255 3.00902 13.7001C3.08065 15.2601 3.62819 16.7607 4.57802 18.0001L0.29302 22.2931C0.19751 22.3854 0.121328 22.4957 0.0689187 22.6177C0.0165097 22.7397 -0.0110765 22.871 -0.0122303 23.0037C-0.0133841 23.1365 0.0119176 23.2682 0.0621985 23.3911C0.112479 23.514 0.186732 23.6257 0.280625 23.7195C0.374518 23.8134 0.48617 23.8877 0.609066 23.938C0.731962 23.9883 0.863642 24.0136 0.996421 24.0124C1.1292 24.0112 1.26042 23.9837 1.38242 23.9312C1.50443 23.8788 1.61477 23.8027 1.70702 23.7071L5.99102 19.4231C7.30412 20.4484 8.92309 21.0036 10.589 21.0001C11.6914 20.9842 12.7798 20.7512 13.7922 20.3145C14.8045 19.8779 15.7209 19.246 16.489 18.4551C20.889 14.0551 23.372 7.00915 23.883 4.93015C24.0491 4.26632 24.0391 3.57064 23.8539 2.91189C23.6687 2.25314 23.3147 1.65414 22.827 1.17414ZM5.00702 13.6081C4.96938 12.8109 5.09796 12.0145 5.3846 11.2696C5.67123 10.5247 6.10966 9.84753 6.67202 9.28115C7.10002 8.85615 7.54502 8.45715 8.00002 8.06715V14.5861L6.01002 16.5761C5.40362 15.7006 5.05602 14.672 5.00702 13.6081ZM15.045 17.0671C14.0926 18.1022 12.8022 18.7636 11.4057 18.9322C10.0093 19.1009 8.59846 18.7658 7.42702 17.9871L9.70602 15.7081L12.414 13.0001H18.176C17.2703 14.4566 16.2214 15.819 15.045 17.0671ZM21.945 4.44715C21.3422 6.72717 20.4694 8.92708 19.345 11.0001H14.414L17.707 7.70715C17.8025 7.6149 17.8787 7.50455 17.9311 7.38255C17.9835 7.26055 18.0111 7.12933 18.0123 6.99655C18.0134 6.86377 17.9881 6.73209 17.9378 6.60919C17.8876 6.4863 17.8133 6.37464 17.7194 6.28075C17.6255 6.18686 17.5139 6.1126 17.391 6.06232C17.2681 6.01204 17.1364 5.98674 17.0036 5.9879C16.8708 5.98905 16.7396 6.01664 16.6176 6.06904C16.4956 6.12145 16.3853 6.19764 16.293 6.29315L11.293 11.2931L10 12.5861V6.51215C12.891 4.48604 16.1133 2.9798 19.522 2.06115C19.6803 2.0213 19.8428 2.00082 20.006 2.00014C20.2681 2.00071 20.5275 2.05303 20.7693 2.15411C21.0111 2.25518 21.2305 2.40303 21.415 2.58914C21.6586 2.82508 21.8355 3.12115 21.9278 3.44742C22.0202 3.77368 22.0248 4.11856 21.941 4.44715H21.945Z" fill="#262626"/>
</g>
<defs>
<clipPath id="clip0_1_1923">
<rect width="24" height="24" fill="white"/>
</clipPath>
</defs>
</svg>
