<svg width="24" height="24" viewBox="0 0 24 24" fill="none" xmlns="http://www.w3.org/2000/svg">
<g clip-path="url(#clip0_1_1970)">
<path d="M24 11.1004C24.0086 10.3529 23.7418 9.62841 23.2505 9.065C22.7592 8.50159 22.0777 8.13866 21.336 8.04539C21.636 7.50039 22.072 6.23239 21.99 3.04539C21.9841 2.72447 21.9044 2.40921 21.7572 2.12398C21.61 1.83875 21.3992 1.59118 21.141 1.40039C20.896 1.2179 20.6123 1.094 20.3119 1.03818C20.0115 0.982361 19.7023 0.996117 19.408 1.07839C17.9192 1.49556 16.5245 2.19528 15.3 3.13939C14.8111 2.32752 14.2685 1.54913 13.676 0.809392C13.4689 0.56758 13.212 0.373461 12.9227 0.240367C12.6335 0.107274 12.3189 0.0383606 12.0005 0.0383606C11.6822 0.0383606 11.3676 0.107274 11.0783 0.240367C10.7891 0.373461 10.5321 0.56758 10.325 0.809392C9.73482 1.54771 9.1943 2.32442 8.70704 3.13439C7.47617 2.19304 6.07773 1.49399 4.58604 1.07439C4.2925 0.992195 3.98395 0.978848 3.68441 1.03539C3.38487 1.09194 3.10242 1.21684 2.85904 1.40039C2.60115 1.59071 2.39046 1.83777 2.24325 2.12248C2.09604 2.40719 2.01625 2.72193 2.01004 3.04239C1.92804 6.23039 2.36704 7.49739 2.66204 8.04239C1.92028 8.13638 1.23903 8.5 0.748111 9.06395C0.25719 9.6279 -0.00907931 10.3528 4.37959e-05 11.1004C4.37959e-05 15.3904 6.38704 18.2854 9.47804 19.4354C9.01335 19.8528 8.61182 20.3355 8.28605 20.8684C8.10013 21.1794 8.00095 21.5345 7.99884 21.8968C7.99673 22.2591 8.09176 22.6153 8.27404 22.9284C8.45989 23.2535 8.72826 23.5239 9.05204 23.7121C9.37581 23.9003 9.74353 23.9998 10.118 24.0004H13.882C14.257 23.9994 14.6249 23.8993 14.9487 23.7104C15.2726 23.5214 15.5407 23.2503 15.726 22.9244C15.9083 22.6115 16.0034 22.2555 16.0015 21.8934C15.9995 21.5313 15.9006 21.1763 15.715 20.8654C15.5268 20.5573 15.3099 20.2676 15.067 20.0004H16C16.5305 20.0004 17.0392 20.2111 17.4143 20.5862C17.7893 20.9613 18 21.47 18 22.0004C18 22.2656 18.1054 22.52 18.2929 22.7075C18.4805 22.895 18.7348 23.0004 19 23.0004C19.2653 23.0004 19.5196 22.895 19.7072 22.7075C19.8947 22.52 20 22.2656 20 22.0004C19.9975 21.173 19.738 20.3669 19.2573 19.6935C18.7767 19.0201 18.0986 18.5127 17.317 18.2414C20.415 16.7404 24 14.3104 24 11.1004ZM16.372 4.88439C17.3993 3.98669 18.6222 3.34153 19.943 3.00039C19.943 3.00039 19.989 3.01939 19.991 3.09339C20.054 5.52739 19.777 6.81339 19.521 7.17639C19.3746 7.39151 19.1853 7.57412 18.965 7.7128C18.7448 7.85148 18.4983 7.94325 18.241 7.98239C17.9959 8.01701 17.7463 8.00041 17.5079 7.93362C17.2695 7.86684 17.0475 7.75133 16.856 7.59439C16.6412 7.45248 16.4575 7.26839 16.316 7.0533C16.1745 6.83821 16.0782 6.59661 16.033 6.34317C15.9877 6.08973 15.9944 5.82973 16.0527 5.57896C16.111 5.3282 16.2196 5.09189 16.372 4.88439ZM11.892 2.05239C11.905 2.03596 11.9214 2.02268 11.9402 2.01355C11.959 2.00441 11.9796 1.99967 12.0005 1.99967C12.0214 1.99967 12.0421 2.00441 12.0609 2.01355C12.0797 2.02268 12.0961 2.03596 12.109 2.05239C12.8711 2.96209 13.5186 3.9619 14.037 5.02939C14.0577 5.06431 14.0807 5.09773 14.106 5.12939C13.9933 5.61943 13.98 6.12713 14.067 6.62239C13.9011 7.01952 13.6244 7.36044 13.2698 7.60438C12.9152 7.84833 12.4979 7.98496 12.0677 7.99793C11.6375 8.01091 11.2127 7.89968 10.844 7.67755C10.4754 7.45542 10.1786 7.1318 9.98905 6.74539C9.96706 6.71346 9.94336 6.68275 9.91805 6.65339C10.012 6.1602 10.0058 5.65317 9.90004 5.16239C9.9053 5.15475 9.90998 5.14673 9.91404 5.13839C10.433 4.02623 11.0982 2.98838 11.892 2.05239ZM4.00904 3.09239C4.00862 3.07526 4.01178 3.05822 4.01832 3.04238C4.02487 3.02653 4.03465 3.01223 4.04704 3.00039C5.37675 3.34007 6.60922 3.98438 7.64704 4.88239C7.79481 5.09406 7.89859 5.33323 7.95223 5.58574C8.00587 5.83825 8.00828 6.09896 7.95932 6.35241C7.91037 6.60587 7.81103 6.84693 7.66721 7.06129C7.52339 7.27566 7.33801 7.45898 7.12205 7.60039C6.93268 7.75649 6.71292 7.8715 6.47673 7.93812C6.24053 8.00474 5.99307 8.02152 5.75004 7.98739C5.49384 7.94861 5.24848 7.85703 5.02952 7.71846C4.81055 7.57989 4.62276 7.39734 4.47804 7.18239C4.22204 6.81439 3.94604 5.52739 4.00904 3.09239ZM13.882 22.0004H10.118C10.056 22.0004 10.018 21.9544 10.006 21.8844C10.5078 21.1254 11.18 20.4943 11.969 20.0414C12.7888 20.4954 13.4826 21.1463 13.988 21.9354C13.9777 21.9546 13.9624 21.9707 13.9438 21.9821C13.9252 21.9936 13.9039 21.9999 13.882 22.0004ZM14.676 17.2094C15.309 16.2901 15.7545 15.255 15.987 14.1634C16.0303 13.9016 15.9677 13.6334 15.8132 13.4177C15.6587 13.2021 15.4248 13.0566 15.163 13.0134C14.9013 12.9702 14.6331 13.0327 14.4174 13.1872C14.2017 13.3418 14.0563 13.5756 14.013 13.8374C13.6321 15.1862 12.9481 16.4302 12.013 17.4744C11.0887 16.3958 10.3957 15.1388 9.97705 13.7814C9.94829 13.6532 9.89456 13.532 9.81894 13.4246C9.74333 13.3172 9.64729 13.2257 9.53632 13.1554C9.42536 13.0851 9.30163 13.0374 9.17221 13.0149C9.0428 12.9924 8.91021 12.9956 8.78204 13.0244C8.65387 13.0532 8.53262 13.1069 8.42522 13.1825C8.31781 13.2581 8.22635 13.3541 8.15605 13.4651C8.08576 13.5761 8.03801 13.6998 8.01553 13.8292C7.99305 13.9586 7.99628 14.0912 8.02504 14.2194C8.30555 15.2933 8.76498 16.3122 9.38404 17.2334C6.30004 15.9654 2.00004 13.6404 2.00004 11.1004C1.99557 10.9562 2.02036 10.8127 2.07292 10.6784C2.12548 10.5441 2.20472 10.4219 2.30585 10.319C2.40698 10.2162 2.5279 10.135 2.66131 10.0802C2.79472 10.0255 2.93785 9.9983 3.08204 10.0004H20.918C21.0622 9.9983 21.2054 10.0255 21.3388 10.0802C21.4722 10.135 21.5931 10.2162 21.6942 10.319C21.7954 10.4219 21.8746 10.5441 21.9272 10.6784C21.9797 10.8127 22.0045 10.9562 22 11.1004C22 13.6234 17.755 15.9354 14.676 17.2094Z" fill="#262626"/>
</g>
<defs>
<clipPath id="clip0_1_1970">
<rect width="24" height="24" fill="white"/>
</clipPath>
</defs>
</svg>
