<svg width="24" height="24" viewBox="0 0 24 24" fill="none" xmlns="http://www.w3.org/2000/svg">
<g clip-path="url(#clip0_1_2027)">
<path d="M22.0568 5.22982L14.6828 1.71682C13.0596 0.747262 11.0393 0.730059 9.39982 1.67182L1.94285 5.22982C1.91486 5.24384 1.88585 5.25884 1.85885 5.27482C0.0892236 6.28667 -0.52512 8.5415 0.486724 10.3111C0.829708 10.911 1.33422 11.4026 1.94285 11.7298L3.99986 12.7099V17.6098C4.00108 19.8009 5.42679 21.7367 7.51886 22.3879C8.97476 22.809 10.4844 23.0152 11.9999 22.9999C13.5152 23.0168 15.0248 22.8124 16.4809 22.3929C18.573 21.7417 19.9987 19.8059 19.9999 17.6149V12.7078L21.9999 11.7518V19.9998C21.9999 20.5521 22.4476 20.9998 22.9999 20.9998C23.5522 20.9998 23.9999 20.5521 23.9999 19.9998V7.99981C24.0065 6.82554 23.0793 5.74076 22.0568 5.22982ZM17.9998 17.6149C18.0003 18.9254 17.15 20.0847 15.8998 20.4778C14.6321 20.8401 13.3183 21.0159 11.9998 20.9998C10.6814 21.0159 9.36761 20.8401 8.09983 20.4778C6.84963 20.0847 5.99932 18.9254 5.99983 17.6149V13.6629L9.31685 15.2429C10.1353 15.7289 11.07 15.9843 12.0219 15.9819C12.9279 15.9883 13.8186 15.7484 14.5989 15.2879L17.9998 13.6628V17.6149ZM21.1998 9.92482L13.6578 13.5248C12.6063 14.1372 11.3028 14.1198 10.2678 13.4798L2.88883 9.96982C2.06632 9.52629 1.7591 8.49996 2.20263 7.6775C2.35263 7.39934 2.57754 7.16876 2.85185 7.01182L10.3468 3.43184C11.3988 2.82087 12.7015 2.83817 13.7368 3.47684L21.1108 6.98984C21.6531 7.29096 21.9924 7.85961 21.9998 8.47986C22.0008 9.06739 21.6983 9.61376 21.1998 9.92482Z" fill="#262626"/>
</g>
<defs>
<clipPath id="clip0_1_2027">
<rect width="24" height="24" fill="white"/>
</clipPath>
</defs>
</svg>
