<svg width="24" height="24" viewBox="0 0 24 24" fill="none" xmlns="http://www.w3.org/2000/svg">
<g clip-path="url(#clip0_1_2067)">
<path d="M23.9999 9.72375V18.9998C23.9984 20.3254 23.4711 21.5962 22.5337 22.5335C21.5964 23.4709 20.3255 23.9982 18.9999 23.9998H17.9999C17.7347 23.9998 17.4804 23.8944 17.2928 23.7069C17.1053 23.5193 16.9999 23.265 16.9999 22.9998C16.9999 22.7345 17.1053 22.4802 17.2928 22.2926C17.4804 22.1051 17.7347 21.9998 17.9999 21.9998H18.9999C19.7956 21.9998 20.5587 21.6837 21.1213 21.1211C21.6839 20.5585 21.9999 19.7954 21.9999 18.9998V9.72375C22 9.23267 21.8794 8.74909 21.6489 8.31547C21.4184 7.88184 21.085 7.51143 20.6779 7.23675L13.6779 2.51375C13.1833 2.17656 12.5986 1.99621 11.9999 1.99621C11.4013 1.99621 10.8166 2.17656 10.3219 2.51375L3.32194 7.23675C2.91486 7.51143 2.58144 7.88184 2.35094 8.31547C2.12044 8.74909 1.99992 9.23267 1.99994 9.72375V18.9998C1.99994 19.7954 2.31601 20.5585 2.87862 21.1211C3.44123 21.6837 4.20429 21.9998 4.99994 21.9998H5.99994C6.26516 21.9998 6.51951 22.1051 6.70705 22.2926C6.89459 22.4802 6.99994 22.7345 6.99994 22.9998C6.99994 23.265 6.89459 23.5193 6.70705 23.7069C6.51951 23.8944 6.26516 23.9998 5.99994 23.9998H4.99994C3.67435 23.9982 2.4035 23.4709 1.46616 22.5335C0.528825 21.5962 0.00153074 20.3254 -5.71181e-05 18.9998V9.72375C-0.00108199 8.90547 0.199022 8.09948 0.582647 7.37669C0.966273 6.65391 1.52166 6.03649 2.19994 5.57875L9.19994 0.854753C10.0252 0.294706 10.9996 -0.00469971 11.9969 -0.00469971C12.9943 -0.00469971 13.9687 0.294706 14.7939 0.854753L21.7939 5.57875C22.4729 6.03625 23.0291 6.65347 23.4138 7.37619C23.7984 8.09892 23.9997 8.90505 23.9999 9.72375ZM18.9999 15.0068C19.0025 15.9263 18.8226 16.8371 18.4708 17.6866C18.1189 18.5361 17.602 19.3074 16.9499 19.9558L13.4349 23.3938C13.0501 23.7663 12.5355 23.9746 11.9999 23.9746C11.4643 23.9746 10.9497 23.7663 10.5649 23.3938L7.05794 19.9638C6.24234 19.1507 5.63993 18.149 5.30413 17.0474C4.96833 15.9458 4.9095 14.7783 5.13287 13.6486C5.35624 12.5188 5.8549 11.4616 6.58465 10.5707C7.31439 9.67974 8.25268 8.98263 9.31633 8.54112C10.38 8.09961 11.5361 7.92735 12.6823 8.03961C13.8284 8.15186 14.9292 8.54517 15.887 9.18466C16.8447 9.82416 17.6299 10.6901 18.1729 11.7057C18.716 12.7212 19 13.8551 18.9999 15.0068ZM16.9999 15.0068C17 14.1845 16.7972 13.375 16.4096 12.6498C16.022 11.9247 15.4616 11.3063 14.778 10.8495C14.0943 10.3926 13.3086 10.1114 12.4903 10.0308C11.6721 9.95015 10.8465 10.0726 10.0869 10.3871C9.3272 10.7017 8.65684 11.1988 8.13517 11.8344C7.6135 12.4699 7.25661 13.2243 7.09612 14.0307C6.93563 14.8371 6.97648 15.6707 7.21507 16.4576C7.45366 17.2444 7.88262 17.9603 8.46394 18.5418L11.9639 21.9638L15.5439 18.5338C16.0076 18.0712 16.3749 17.5213 16.6248 16.9159C16.8747 16.3106 17.0022 15.6617 16.9999 15.0068ZM14.9999 14.9998C14.9999 15.5931 14.824 16.1731 14.4944 16.6665C14.1647 17.1598 13.6962 17.5443 13.148 17.7714C12.5998 17.9985 11.9966 18.0579 11.4147 17.9421C10.8327 17.8264 10.2982 17.5406 9.87862 17.1211C9.45907 16.7015 9.17334 16.167 9.05759 15.585C8.94183 15.0031 9.00124 14.3999 9.2283 13.8517C9.45537 13.3035 9.83989 12.835 10.3332 12.5053C10.8266 12.1757 11.4066 11.9998 11.9999 11.9998C12.7956 11.9998 13.5587 12.3158 14.1213 12.8784C14.6839 13.441 14.9999 14.2041 14.9999 14.9998Z"/>
</g>
<defs>
<clipPath id="clip0_1_2067">
<rect width="24" height="24" fill="white"/>
</clipPath>
</defs>
</svg>
