<svg width="24" height="24" viewBox="0 0 24 24" fill="none" xmlns="http://www.w3.org/2000/svg">
<path fill-rule="evenodd" clip-rule="evenodd" d="M6.9881 2.5C4.50939 2.5 2.5 4.50939 2.5 6.9881V17.4643C2.5 19.943 4.50939 21.9524 6.9881 21.9524H17.4643C19.943 21.9524 21.9524 19.943 21.9524 17.4643V6.9881C21.9524 4.50939 19.943 2.5 17.4643 2.5H6.9881ZM1 6.9881C1 3.68096 3.68096 1 6.9881 1H17.4643C20.7714 1 23.4524 3.68096 23.4524 6.9881V17.4643C23.4524 20.7714 20.7714 23.4524 17.4643 23.4524H6.9881C3.68096 23.4524 1 20.7714 1 17.4643V6.9881ZM12.7762 8.77741C12.0603 8.67126 11.3293 8.79353 10.6869 9.12682C10.0446 9.46012 9.52371 9.98747 9.19836 10.6339C8.87301 11.2803 8.75977 12.0128 8.87473 12.7273C8.9897 13.4417 9.32703 14.1017 9.83873 14.6135C10.3504 15.1252 11.0105 15.4625 11.7249 15.5774C12.4394 15.6924 13.1719 15.5792 13.8183 15.2538C14.4647 14.9285 14.9921 14.4076 15.3254 13.7652C15.6587 13.1229 15.7809 12.3918 15.6748 11.676C15.5665 10.9458 15.2263 10.2698 14.7043 9.74788C14.1823 9.22593 13.5063 8.88568 12.7762 8.77741ZM9.99608 7.79539C10.9185 7.31678 11.9683 7.1412 12.9962 7.29363C14.0447 7.44911 15.0154 7.9377 15.765 8.68722C16.5145 9.43675 17.0031 10.4075 17.1586 11.456C17.311 12.4839 17.1354 13.5337 16.6568 14.4561C16.1782 15.3785 15.4209 16.1265 14.4927 16.5937C13.5645 17.0609 12.5126 17.2235 11.4866 17.0584C10.4607 16.8933 9.51287 16.4089 8.77807 15.6741C8.04327 14.9393 7.55888 13.9915 7.39378 12.9656C7.22869 11.9396 7.39131 10.8877 7.85851 9.95948C8.32571 9.03126 9.07369 8.274 9.99608 7.79539ZM17.9881 5.71429C17.5739 5.71429 17.2381 6.05007 17.2381 6.46429C17.2381 6.8785 17.5739 7.21429 17.9881 7.21429H17.9981C18.4123 7.21429 18.7481 6.8785 18.7481 6.46429C18.7481 6.05007 18.4123 5.71429 17.9981 5.71429H17.9881Z" fill="#222B34"/>
</svg>
