<svg width="24" height="24" viewBox="0 0 24 24" fill="none" xmlns="http://www.w3.org/2000/svg">
<g clip-path="url(#clip0_1_2130)">
<path d="M20.7828 10.3387L18.5842 3.7923C18.5432 3.67018 18.4709 3.56601 18.3741 3.48965C18.2772 3.41329 18.159 3.36725 18.0307 3.3559L11.1521 2.74487C10.7486 2.70901 10.326 2.78876 9.92792 2.97586C9.52987 3.16296 9.17093 3.4506 8.88826 3.80899L2.64171 11.731C1.94225 12.6199 1.57105 13.7082 1.60952 14.7571C1.648 15.806 2.09302 16.7299 2.84695 17.3261L8.54083 21.8157C9.29644 22.4098 10.2986 22.6271 11.3276 22.4198C12.3565 22.2126 13.3282 21.5978 14.0295 20.7103L20.276 12.7883C20.5586 12.4298 20.7546 12.0137 20.8437 11.583C20.9328 11.1523 20.9117 10.7227 20.7828 10.3387ZM12.8907 19.8124C12.4703 20.3455 11.8872 20.7149 11.2696 20.8393C10.652 20.9637 10.0505 20.8329 9.59751 20.4756L3.90363 15.986C3.4506 15.6288 3.18311 15.0744 3.16002 14.4448C3.13693 13.8153 3.36011 13.1621 3.78049 12.6289L10.027 4.70692C10.1213 4.58686 10.2412 4.49046 10.3743 4.42777C10.5074 4.36508 10.6487 4.3384 10.7836 4.3505L17.2413 4.92627L19.3079 11.072C19.351 11.2003 19.3579 11.344 19.3278 11.4879C19.2978 11.6318 19.232 11.7708 19.1372 11.8904L12.8907 19.8124Z" fill="#262626"/>
<path d="M12.8764 10.5649C13.4314 11.0026 14.2363 10.9074 14.6739 10.3523C15.1116 9.79723 15.0165 8.99242 14.4614 8.55473C13.9063 8.11704 13.1015 8.21221 12.6638 8.7673C12.2261 9.32239 12.3213 10.1272 12.8764 10.5649Z" fill="#262626"/>
</g>
<defs>
<clipPath id="clip0_1_2130">
<rect width="24" height="24" fill="white"/>
</clipPath>
</defs>
</svg>
