<svg width="24" height="24" viewBox="0 0 24 24" fill="none" xmlns="http://www.w3.org/2000/svg">
<path d="M6.0192 11.7365C6.19043 12.1137 6.63499 12.2806 7.01216 12.1094C7.38932 11.9382 7.55627 11.4936 7.38505 11.1164L6.0192 11.7365ZM3.97275 9.68021L3.96284 10.4301C3.96772 10.4302 3.9726 10.4302 3.97747 10.4302L3.97275 9.68021ZM1 12.5746L0.25 12.5645V12.5746H1ZM1 18.3661H0.249906L0.250094 18.378L1 18.3661ZM3.97275 21.2536L3.97866 20.5036C3.97338 20.5036 3.9681 20.5036 3.96281 20.5037L3.97275 21.2536ZM7.51183 19.4938C7.64637 19.1021 7.43786 18.6754 7.0461 18.5409C6.65435 18.4063 6.2277 18.6149 6.09316 19.0066L7.51183 19.4938ZM7.38735 11.1215C7.21894 10.7431 6.77564 10.5729 6.3972 10.7413C6.01877 10.9097 5.84852 11.353 6.01693 11.7314L7.38735 11.1215ZM6.94551 12.5746L6.19551 12.5739V12.5746H6.94551ZM6.94551 18.3661H6.1955L6.19553 18.3713L6.94551 18.3661ZM6.0946 19.0243C5.96681 19.4184 6.18262 19.8414 6.57663 19.9691C6.97063 20.0969 7.39364 19.8811 7.52143 19.4871L6.0946 19.0243ZM6.03069 11.0923C5.84613 11.4631 5.99713 11.9134 6.36796 12.0979C6.73879 12.2825 7.18901 12.1315 7.37357 11.7606L6.03069 11.0923ZM7.67563 10.2316L7.23282 9.62627C7.22602 9.63125 7.2193 9.63634 7.21267 9.64154L7.67563 10.2316ZM8.19538 9.4946L8.91423 9.7085C8.91689 9.69956 8.91938 9.69057 8.92171 9.68154L8.19538 9.4946ZM9.68175 3.7196L8.96163 3.51003C8.95944 3.51754 8.95738 3.52508 8.95543 3.53265L9.68175 3.7196ZM12.5954 2.08335L12.3995 2.80732C12.4052 2.80887 12.411 2.81035 12.4167 2.81176L12.5954 2.08335ZM14.0309 3.1474L13.3859 3.53013V3.53014L14.0309 3.1474ZM14.277 4.91722L15.0001 5.11645L15.002 5.10945L14.277 4.91722ZM13.4273 8.00135L12.7041 7.8021L12.7012 7.81351L13.4273 8.00135ZM13.6402 9.01412L13.0513 9.4785V9.4785L13.6402 9.01412ZM14.5754 9.45747V8.70736L14.5621 8.70759L14.5754 9.45747ZM19.4319 9.45747V10.2075L19.4422 10.2074L19.4319 9.45747ZM21.9356 10.4548L22.4587 9.91739L22.4587 9.91739L21.9356 10.4548ZM23 12.9307H23.7501L23.7499 12.9208L23 12.9307ZM23 17.5603L23.75 17.5705V17.5603H23ZM21.9351 20.0354L21.4121 19.4978V19.4978L21.9351 20.0354ZM19.4319 21.0322L19.4422 20.2822H19.4319V21.0322ZM9.91825 21.0322V20.2822L9.91446 20.2822L9.91825 21.0322ZM7.45086 18.8732C7.24265 18.5151 6.78358 18.3937 6.4255 18.6019C6.06742 18.8101 5.94593 19.2691 6.15415 19.6272L7.45086 18.8732ZM7.38505 11.1164C6.77713 9.77735 5.43861 8.92096 3.96803 8.93023L3.97747 10.4302C4.85617 10.4247 5.65596 10.9364 6.0192 11.7365L7.38505 11.1164ZM3.98266 8.93028C1.9485 8.9034 0.277536 10.5303 0.250068 12.5645L1.74993 12.5847C1.76622 11.3787 2.75687 10.4142 3.96284 10.4301L3.98266 8.93028ZM0.25 12.5746V18.3661H1.75V12.5746H0.25ZM0.250094 18.378C0.282275 20.4087 1.95185 22.0304 3.98268 22.0035L3.96281 20.5037C2.75881 20.5196 1.76898 19.5582 1.74991 18.3542L0.250094 18.378ZM3.96684 22.0036C5.5652 22.0162 6.99266 21.0056 7.51183 19.4938L6.09316 19.0066C5.78349 19.9083 4.93204 20.5111 3.97866 20.5036L3.96684 22.0036ZM6.01693 11.7314C6.13494 11.9966 6.19579 12.2836 6.19551 12.5739L7.69551 12.5753C7.69598 12.0745 7.59098 11.5791 7.38735 11.1215L6.01693 11.7314ZM6.19551 12.5746V18.3661H7.69551V12.5746H6.19551ZM6.19553 18.3713C6.19707 18.593 6.16299 18.8135 6.0946 19.0243L7.52143 19.4871C7.63938 19.1235 7.69815 18.7432 7.6955 18.3609L6.19553 18.3713ZM7.37357 11.7606C7.55568 11.3947 7.81702 11.074 8.13859 10.8217L7.21267 9.64154C6.71583 10.0314 6.31206 10.5269 6.03069 11.0923L7.37357 11.7606ZM8.11843 10.8369C8.49991 10.5579 8.77943 10.1615 8.91423 9.7085L7.47653 9.2807C7.43525 9.41943 7.34965 9.54081 7.23282 9.62627L8.11843 10.8369ZM8.92171 9.68154L10.4081 3.90654L8.95543 3.53265L7.46905 9.30765L8.92171 9.68154ZM10.4019 3.92916C10.6509 3.07342 11.5392 2.57457 12.3995 2.80732L12.7912 1.35937C11.142 0.91317 9.43903 1.86951 8.96163 3.51003L10.4019 3.92916ZM12.4167 2.81176C12.8231 2.91142 13.1724 3.1703 13.3859 3.53013L14.6759 2.76466C14.2568 2.05852 13.5715 1.55051 12.774 1.35493L12.4167 2.81176ZM13.3859 3.53014C13.5994 3.88997 13.6593 4.32055 13.5521 4.725L15.002 5.10945C15.2124 4.31577 15.0949 3.4708 14.6759 2.76466L13.3859 3.53014ZM13.5539 4.718L12.7042 7.80213L14.1503 8.20057L15.0001 5.11644L13.5539 4.718ZM12.7012 7.81351C12.5513 8.39272 12.6808 9.00869 13.0513 9.4785L14.2292 8.54975C14.149 8.44801 14.1209 8.31462 14.1534 8.18919L12.7012 7.81351ZM13.0513 9.4785C13.4217 9.94831 13.9905 10.2179 14.5887 10.2074L14.5621 8.70759C14.4326 8.70988 14.3094 8.65149 14.2292 8.54975L13.0513 9.4785ZM14.5754 10.2075H19.4319V8.70747H14.5754V10.2075ZM19.4422 10.2074C20.1771 10.1973 20.8858 10.4796 21.4124 10.9922L22.4587 9.91739C21.6469 9.12717 20.5544 8.69196 19.4216 8.70754L19.4422 10.2074ZM21.4124 10.9922C21.9391 11.5049 22.2404 12.2058 22.2501 12.9406L23.7499 12.9208C23.735 11.788 23.2705 10.7076 22.4587 9.91739L21.4124 10.9922ZM22.25 12.9307V17.5603H23.75V12.9307H22.25ZM22.2501 17.5502C22.2401 18.2848 21.9386 18.9854 21.4121 19.4978L22.4581 20.5729C23.2699 19.783 23.7346 18.703 23.7499 17.5705L22.2501 17.5502ZM21.4121 19.4978C20.8855 20.0102 20.1769 20.2924 19.4422 20.2823L19.4216 21.7822C20.5541 21.7977 21.6464 21.3628 22.4581 20.5729L21.4121 19.4978ZM19.4319 20.2822H9.91825V21.7822H19.4319V20.2822ZM9.91446 20.2822C8.90026 20.2874 7.96068 19.75 7.45086 18.8732L6.15415 19.6272C6.93388 20.9682 8.3709 21.7901 9.92205 21.7822L9.91446 20.2822Z" fill="#262626"/>
</svg>
