<svg width="24" height="24" viewBox="0 0 24 24" fill="none" xmlns="http://www.w3.org/2000/svg">
<g clip-path="url(#clip0_1_2241)">
<path d="M17.9999 18.9997C18.1977 18.9997 18.391 18.941 18.5554 18.8311C18.7198 18.7212 18.8479 18.5651 18.9236 18.3824C18.9993 18.1997 19.0191 17.9986 18.9805 17.8047C18.9419 17.6107 18.8467 17.4326 18.7069 17.2927L12.5349 11.1217C11.5973 10.1844 10.3257 9.65779 8.99992 9.65779C7.6741 9.65779 6.40256 10.1844 5.46492 11.1217L3.29292 13.2927C3.11076 13.4813 3.00997 13.7339 3.01224 13.9961C3.01452 14.2583 3.11969 14.5091 3.3051 14.6945C3.49051 14.88 3.74132 14.9851 4.00352 14.9874C4.26571 14.9897 4.51832 14.8889 4.70692 14.7067L6.87892 12.5357C7.45014 11.9899 8.20982 11.6852 8.99992 11.6852C9.79002 11.6852 10.5497 11.9899 11.1209 12.5357L17.2929 18.7067C17.4804 18.8943 17.7347 18.9997 17.9999 18.9997Z" fill="#262626"/>
<path d="M16.0002 10.4997C16.6924 10.4997 17.3691 10.2944 17.9446 9.9098C18.5202 9.52521 18.9688 8.97858 19.2337 8.33904C19.4986 7.6995 19.568 6.99577 19.4329 6.31683C19.2979 5.6379 18.9645 5.01426 18.475 4.52478C17.9855 4.03529 17.3619 3.70195 16.683 3.5669C16.004 3.43185 15.3003 3.50117 14.6608 3.76607C14.0212 4.03098 13.4746 4.47958 13.09 5.05516C12.7054 5.63073 12.5002 6.30742 12.5002 6.99965C12.5002 7.92791 12.8689 8.81815 13.5253 9.47452C14.1817 10.1309 15.0719 10.4997 16.0002 10.4997ZM16.0002 5.49965C16.2968 5.49965 16.5868 5.58762 16.8335 5.75245C17.0802 5.91727 17.2724 6.15154 17.386 6.42563C17.4995 6.69972 17.5292 7.00132 17.4713 7.29229C17.4135 7.58326 17.2706 7.85053 17.0608 8.06031C16.851 8.27009 16.5838 8.41295 16.2928 8.47083C16.0018 8.52871 15.7002 8.499 15.4261 8.38547C15.152 8.27194 14.9178 8.07968 14.7529 7.83301C14.5881 7.58633 14.5002 7.29632 14.5002 6.99965C14.5002 6.60183 14.6582 6.2203 14.9395 5.93899C15.2208 5.65769 15.6023 5.49965 16.0002 5.49965Z" fill="#262626"/>
<path d="M22.9998 16.0003C22.7346 16.0003 22.4803 16.1057 22.2927 16.2932C22.1052 16.4807 21.9998 16.7351 21.9998 17.0003V19.0003C21.9998 19.796 21.6838 20.559 21.1212 21.1216C20.5586 21.6842 19.7955 22.0003 18.9998 22.0003H16.9998C16.7346 22.0003 16.4803 22.1057 16.2927 22.2932C16.1052 22.4807 15.9998 22.7351 15.9998 23.0003C15.9998 23.2655 16.1052 23.5199 16.2927 23.7074C16.4803 23.8949 16.7346 24.0003 16.9998 24.0003H18.9998C20.3254 23.9987 21.5963 23.4714 22.5336 22.5341C23.471 21.5968 23.9982 20.3259 23.9998 19.0003V17.0003C23.9998 16.7351 23.8945 16.4807 23.7069 16.2932C23.5194 16.1057 23.265 16.0003 22.9998 16.0003Z" fill="#262626"/>
<path d="M1 8C1.26522 8 1.51957 7.89464 1.70711 7.70711C1.89464 7.51957 2 7.26522 2 7V5C2 4.20435 2.31607 3.44129 2.87868 2.87868C3.44129 2.31607 4.20435 2 5 2H7C7.26522 2 7.51957 1.89464 7.70711 1.70711C7.89464 1.51957 8 1.26522 8 1C8 0.734784 7.89464 0.48043 7.70711 0.292893C7.51957 0.105357 7.26522 0 7 0L5 0C3.67441 0.00158786 2.40356 0.528882 1.46622 1.46622C0.528882 2.40356 0.00158786 3.67441 0 5L0 7C0 7.26522 0.105357 7.51957 0.292893 7.70711C0.48043 7.89464 0.734784 8 1 8Z" fill="#262626"/>
<path d="M7 22.0003H5C4.20435 22.0003 3.44129 21.6842 2.87868 21.1216C2.31607 20.559 2 19.796 2 19.0003V17.0003C2 16.7351 1.89464 16.4807 1.70711 16.2932C1.51957 16.1057 1.26522 16.0003 1 16.0003C0.734784 16.0003 0.48043 16.1057 0.292893 16.2932C0.105357 16.4807 0 16.7351 0 17.0003L0 19.0003C0.00158786 20.3259 0.528882 21.5968 1.46622 22.5341C2.40356 23.4714 3.67441 23.9987 5 24.0003H7C7.26522 24.0003 7.51957 23.8949 7.70711 23.7074C7.89464 23.5199 8 23.2655 8 23.0003C8 22.7351 7.89464 22.4807 7.70711 22.2932C7.51957 22.1057 7.26522 22.0003 7 22.0003Z" fill="#262626"/>
<path d="M18.9998 0H16.9998C16.7346 0 16.4803 0.105357 16.2927 0.292893C16.1052 0.48043 15.9998 0.734784 15.9998 1C15.9998 1.26522 16.1052 1.51957 16.2927 1.70711C16.4803 1.89464 16.7346 2 16.9998 2H18.9998C19.7955 2 20.5586 2.31607 21.1212 2.87868C21.6838 3.44129 21.9998 4.20435 21.9998 5V7C21.9998 7.26522 22.1052 7.51957 22.2927 7.70711C22.4803 7.89464 22.7346 8 22.9998 8C23.265 8 23.5194 7.89464 23.7069 7.70711C23.8945 7.51957 23.9998 7.26522 23.9998 7V5C23.9982 3.67441 23.471 2.40356 22.5336 1.46622C21.5963 0.528882 20.3254 0.00158786 18.9998 0V0Z" fill="#262626"/>
</g>
<defs>
<clipPath id="clip0_1_2241">
<rect width="24" height="24" fill="white"/>
</clipPath>
</defs>
</svg>
