<svg width="24" height="24" viewBox="0 0 24 24" fill="none" xmlns="http://www.w3.org/2000/svg">
<g clip-path="url(#clip0_1_2285)">
<path d="M23.0999 0.899679C22.5162 0.343701 21.741 0.0335846 20.9349 0.0335846C20.1288 0.0335846 19.3536 0.343701 18.7699 0.899679L7.5629 12.0997C7.21425 12.0326 6.85995 11.9991 6.5049 11.9997C5.7831 11.9976 5.06807 12.1387 4.4012 12.4149C3.73433 12.6911 3.12887 13.0969 2.6199 13.6087C1.2679 14.9617 0.3139 18.5917 0.0309004 20.5627C-0.0318798 20.989 -0.00205158 21.424 0.118355 21.8378C0.238761 22.2516 0.446918 22.6346 0.728655 22.9608C1.01039 23.2869 1.3591 23.5485 1.75103 23.7278C2.14296 23.9071 2.56892 23.9998 2.9999 23.9997C3.14678 23.9997 3.29349 23.9894 3.4389 23.9687C5.4099 23.6857 9.0389 22.7317 10.3929 21.3797C11.0287 20.742 11.498 19.958 11.7596 19.0964C12.0211 18.2348 12.0669 17.3221 11.8929 16.4387L23.0999 5.22967C23.6726 4.65467 23.9941 3.8762 23.9941 3.06468C23.9941 2.25315 23.6726 1.47468 23.0999 0.899679ZM8.9769 19.9657C8.2519 20.6907 5.4769 21.6547 3.1529 21.9887C2.99759 22.0111 2.83918 21.9972 2.69014 21.9481C2.54109 21.899 2.40546 21.816 2.2939 21.7057C2.18273 21.5947 2.09927 21.4591 2.05028 21.3098C2.00129 21.1606 1.98814 21.0019 2.0119 20.8467C2.3449 18.5237 3.3119 15.7467 4.0339 15.0227C4.70014 14.4226 5.57127 14.1011 6.4676 14.1245C7.36392 14.1479 8.21708 14.5145 8.85109 15.1485C9.48511 15.7825 9.85162 16.6356 9.87503 17.532C9.89844 18.4283 9.57696 19.2994 8.9769 19.9657ZM21.6879 3.81568L11.0669 14.4377C10.6723 13.8401 10.1623 13.3275 9.5669 12.9297L20.1839 2.31168C20.3859 2.11875 20.6545 2.0111 20.9339 2.0111C21.2133 2.0111 21.4819 2.11875 21.6839 2.31168C21.7831 2.41007 21.8619 2.52707 21.9158 2.65596C21.9697 2.78486 21.9976 2.92313 21.998 3.06285C21.9984 3.20256 21.9712 3.34098 21.918 3.47016C21.8648 3.59934 21.7866 3.71676 21.6879 3.81568Z" fill="#262626"/>
</g>
<defs>
<clipPath id="clip0_1_2285">
<rect width="24" height="24" fill="white"/>
</clipPath>
</defs>
</svg>
