<svg width="24" height="24" viewBox="0 0 24 24" fill="none" xmlns="http://www.w3.org/2000/svg">
<g clip-path="url(#clip0_1_2287)">
<path d="M17.1151 8.05017C16.8284 8.12635 16.5707 8.28582 16.3746 8.50844C16.1785 8.73105 16.0529 9.0068 16.0135 9.30083C15.9741 9.59486 16.0228 9.89395 16.1535 10.1603C16.2841 10.4267 16.4907 10.6483 16.7473 10.7972C17.0039 10.9461 17.2988 11.0156 17.5949 10.9969C17.891 10.9782 18.1748 10.8721 18.4106 10.692C18.6464 10.512 18.8235 10.2661 18.9195 9.98543C19.0155 9.70475 19.0262 9.4019 18.9501 9.11517C18.8996 8.92474 18.812 8.74613 18.6924 8.58953C18.5729 8.43294 18.4236 8.30144 18.2532 8.20255C18.0828 8.10365 17.8946 8.03929 17.6993 8.01314C17.504 7.987 17.3055 7.99958 17.1151 8.05017Z" fill="#262626"/>
<path d="M12.1149 5.05019C11.8282 5.12636 11.5705 5.28584 11.3744 5.50845C11.1784 5.73107 11.0527 6.00682 11.0133 6.30085C10.974 6.59488 11.0227 6.89397 11.1533 7.16032C11.2839 7.42668 11.4905 7.64832 11.7471 7.79723C12.0037 7.94613 12.2986 8.01562 12.5947 7.9969C12.8908 7.97819 13.1746 7.8721 13.4104 7.69207C13.6462 7.51203 13.8233 7.26613 13.9193 6.98545C14.0153 6.70477 14.026 6.40192 13.9499 6.11519C13.8994 5.92476 13.8118 5.74614 13.6922 5.58955C13.5727 5.43296 13.4234 5.30146 13.253 5.20256C13.0826 5.10366 12.8944 5.0393 12.6991 5.01316C12.5038 4.98701 12.3053 4.9996 12.1149 5.05019Z" fill="#262626"/>
<path d="M7.11519 8.05017C6.82849 8.12635 6.57081 8.28582 6.37474 8.50844C6.17866 8.73105 6.053 9.0068 6.01363 9.30083C5.97427 9.59486 6.02297 9.89395 6.15358 10.1603C6.28419 10.4267 6.49085 10.6483 6.74742 10.7972C7.00399 10.9461 7.29895 11.0156 7.59501 10.9969C7.89107 10.9782 8.17493 10.8721 8.4107 10.692C8.64648 10.512 8.82357 10.2661 8.9196 9.98543C9.01563 9.70475 9.02627 9.4019 8.95019 9.11517C8.89966 8.92474 8.81211 8.74613 8.69253 8.58953C8.57296 8.43294 8.42371 8.30144 8.25331 8.20255C8.08291 8.10365 7.89469 8.03929 7.69941 8.01314C7.50413 7.987 7.30561 7.99958 7.11519 8.05017Z" fill="#262626"/>
<path d="M7.11519 14.0502C6.82849 14.1264 6.57081 14.2859 6.37474 14.5085C6.17866 14.7311 6.053 15.0068 6.01363 15.3009C5.97427 15.5949 6.02297 15.894 6.15358 16.1603C6.28419 16.4267 6.49085 16.6483 6.74742 16.7972C7.00399 16.9462 7.29895 17.0156 7.59501 16.9969C7.89107 16.9782 8.17493 16.8721 8.4107 16.6921C8.64648 16.512 8.82357 16.2661 8.9196 15.9855C9.01563 15.7048 9.02627 15.4019 8.95019 15.1152C8.89966 14.9248 8.81211 14.7462 8.69253 14.5896C8.57296 14.433 8.42371 14.3015 8.25331 14.2026C8.08291 14.1037 7.89469 14.0393 7.69941 14.0132C7.50413 13.987 7.30561 13.9996 7.11519 14.0502Z" fill="#262626"/>
<path d="M12.5001 0.00660711C10.8901 -0.0493746 9.28532 0.219397 7.7814 0.796899C6.27748 1.3744 4.90525 2.24881 3.74649 3.36799C2.58774 4.48717 1.66621 5.82822 1.03682 7.31117C0.40744 8.79412 0.0830967 10.3886 0.0831299 11.9996C0.0868351 15.1811 1.35231 18.2312 3.60194 20.4808C5.85157 22.7304 8.90167 23.9959 12.0831 23.9996C12.4211 23.9996 12.7531 23.9776 13.0831 23.9496C13.3335 23.9285 13.5668 23.8139 13.7365 23.6286C13.9063 23.4433 14 23.2009 13.9991 22.9496L13.9671 19.3616C13.959 18.6526 14.1624 17.9572 14.5514 17.3643C14.9403 16.7715 15.4971 16.3079 16.1507 16.033C16.8043 15.758 17.525 15.6841 18.2208 15.8206C18.9166 15.9572 19.5559 16.298 20.0571 16.7996L20.1571 16.8996C20.3841 17.1286 20.6654 17.2964 20.9747 17.3875C21.284 17.4786 21.6113 17.49 21.9261 17.4206C22.2359 17.3556 22.5244 17.2137 22.765 17.008C23.0056 16.8024 23.1907 16.5395 23.3031 16.2436C23.8552 14.7939 24.1192 13.2504 24.0801 11.6996C23.9676 8.65362 22.7147 5.76109 20.5699 3.59534C18.4251 1.42959 15.5449 0.14872 12.5001 0.00660711ZM21.4821 15.4066L21.4681 15.3926C20.6865 14.6123 19.6904 14.082 18.6065 13.8694C17.5226 13.6568 16.4 13.7715 15.3815 14.1987C14.363 14.626 13.4946 15.3465 12.8867 16.2687C12.2789 17.191 11.9592 18.2731 11.9681 19.3776L11.9921 21.9996C9.33996 21.9877 6.80117 20.9227 4.93424 19.0389C3.06732 17.1551 2.0252 14.6068 2.03713 11.9546C2.04906 9.30244 3.11408 6.76364 4.99788 4.89672C6.88168 3.02979 9.42996 1.98767 12.0821 1.99961C12.1991 1.99961 12.3171 1.99961 12.4351 2.00561C14.9715 2.12474 17.3706 3.19235 19.157 4.99687C20.9433 6.8014 21.9866 9.21115 22.0801 11.7486C22.1131 12.9922 21.9113 14.2308 21.4851 15.3996L21.4821 15.4066Z" fill="#262626"/>
</g>
<defs>
<clipPath id="clip0_1_2287">
<rect width="24" height="24" fill="white"/>
</clipPath>
</defs>
</svg>
