<svg width="24" height="24" viewBox="0 0 24 24" fill="none" xmlns="http://www.w3.org/2000/svg">
<g clip-path="url(#clip0_1_2342)">
<path d="M21.0001 22H6.88412C7.65603 20.812 8.0455 19.416 8.00012 18V14H15.0001C15.2653 14 15.5197 13.8946 15.7072 13.7071C15.8948 13.5196 16.0001 13.2652 16.0001 13C16.0001 12.7348 15.8948 12.4804 15.7072 12.2929C15.5197 12.1053 15.2653 12 15.0001 12H8.00012V7.99999C8.00012 6.40869 8.63226 4.88257 9.75748 3.75735C10.8827 2.63213 12.4088 1.99999 14.0001 1.99999C15.5914 1.99999 17.1175 2.63213 18.2428 3.75735C19.368 4.88257 20.0001 6.40869 20.0001 7.99999C20.0001 8.26521 20.1055 8.51956 20.293 8.7071C20.4806 8.89464 20.7349 8.99999 21.0001 8.99999C21.2653 8.99999 21.5197 8.89464 21.7072 8.7071C21.8948 8.51956 22.0001 8.26521 22.0001 7.99999C22.0001 5.87826 21.1573 3.84343 19.657 2.34314C18.1567 0.842847 16.1219 -7.62939e-06 14.0001 -7.62939e-06C11.8784 -7.62939e-06 9.84356 0.842847 8.34327 2.34314C6.84298 3.84343 6.00012 5.87826 6.00012 7.99999V12H4.00012C3.73491 12 3.48055 12.1053 3.29302 12.2929C3.10548 12.4804 3.00012 12.7348 3.00012 13C3.00012 13.2652 3.10548 13.5196 3.29302 13.7071C3.48055 13.8946 3.73491 14 4.00012 14H6.00012V18C6.00012 19.2 5.70812 22 3.00012 22C2.73491 22 2.48055 22.1053 2.29302 22.2929C2.10548 22.4804 2.00012 22.7348 2.00012 23C2.00012 23.2652 2.10548 23.5196 2.29302 23.7071C2.48055 23.8946 2.73491 24 3.00012 24H21.0001C21.2653 24 21.5197 23.8946 21.7072 23.7071C21.8948 23.5196 22.0001 23.2652 22.0001 23C22.0001 22.7348 21.8948 22.4804 21.7072 22.2929C21.5197 22.1053 21.2653 22 21.0001 22Z" fill="#262626"/>
</g>
<defs>
<clipPath id="clip0_1_2342">
<rect width="24" height="24" fill="white"/>
</clipPath>
</defs>
</svg>
