<svg width="24" height="24" viewBox="0 0 24 24" fill="none" xmlns="http://www.w3.org/2000/svg">
<g clip-path="url(#clip0_1_2344)">
<path d="M14.9998 3.84859C15.0029 4.04745 15.0642 4.24106 15.1759 4.40558C15.2877 4.57011 15.4451 4.69837 15.6288 4.77459C17.271 5.49717 18.6598 6.69409 19.6168 8.21169C20.5738 9.72929 21.0555 11.4983 20.9998 13.2916C20.9611 15.6785 19.9757 17.9523 18.2605 19.6128C16.5453 21.2732 14.2407 22.1843 11.8538 22.1456C9.46685 22.1069 7.19305 21.1215 5.5326 19.4063C3.87215 17.6911 2.96108 15.3865 2.9998 12.9996C3.00211 11.2558 3.51094 9.55026 4.46445 8.09026C5.41795 6.63027 6.77506 5.47871 8.3708 4.77559C8.55459 4.69891 8.712 4.57026 8.82373 4.40542C8.93547 4.24057 8.99666 4.0467 8.9998 3.84759C9.00005 3.68379 8.96008 3.52245 8.88338 3.37773C8.80667 3.23301 8.6956 3.10934 8.55991 3.0176C8.42423 2.92586 8.26808 2.86885 8.10521 2.85158C7.94233 2.83432 7.7777 2.85733 7.6258 2.91858C5.30508 3.92473 3.40202 5.69993 2.23716 7.94518C1.0723 10.1904 0.716826 12.7685 1.23061 15.2452C1.74439 17.7219 3.09603 19.9459 5.05787 21.5425C7.01971 23.1392 9.47186 24.0109 12.0013 24.0109C14.5307 24.0109 16.9829 23.1392 18.9447 21.5425C20.9066 19.9459 22.2582 17.7219 22.772 15.2452C23.2858 12.7685 22.9303 10.1904 21.7654 7.94518C20.6006 5.69993 18.6975 3.92473 16.3768 2.91858C16.2247 2.85666 16.0596 2.83316 15.8963 2.85017C15.7329 2.86718 15.5762 2.92416 15.4401 3.01609C15.304 3.10802 15.1926 3.23207 15.1158 3.37726C15.039 3.52246 14.9992 3.68433 14.9998 3.84859Z" fill="#262626"/>
<path d="M13.0002 0.999992C13.0002 0.447708 12.5524 -7.62939e-06 12.0002 -7.62939e-06C11.4479 -7.62939e-06 11.0002 0.447708 11.0002 0.999992V6.99999C11.0002 7.55228 11.4479 7.99999 12.0002 7.99999C12.5524 7.99999 13.0002 7.55228 13.0002 6.99999V0.999992Z" fill="#262626"/>
</g>
<defs>
<clipPath id="clip0_1_2344">
<rect width="24" height="24" fill="white"/>
</clipPath>
</defs>
</svg>
