<svg width="24" height="24" viewBox="0 0 24 24" fill="none" xmlns="http://www.w3.org/2000/svg">
<g clip-path="url(#clip0_1_2363)">
<path d="M12.9999 23.9991C11.4091 23.9976 9.88387 23.3649 8.75899 22.24C7.63412 21.1152 7.00147 19.59 6.99988 17.9991C6.99988 16.4391 8.19988 13.9541 10.5519 10.6111C10.8311 10.2222 11.199 9.90526 11.625 9.68666C12.0511 9.46807 12.523 9.35405 13.0019 9.35405C13.4807 9.35405 13.9527 9.46807 14.3787 9.68666C14.8048 9.90526 15.1726 10.2222 15.4519 10.6111C17.8049 13.9541 18.9999 16.4391 18.9999 17.9991C18.9983 19.59 18.3656 21.1152 17.2408 22.24C16.1159 23.3649 14.5907 23.9976 12.9999 23.9991ZM12.9999 11.3421C12.8402 11.3409 12.6827 11.3788 12.541 11.4523C12.3993 11.5259 12.2778 11.6329 12.1869 11.7641C9.31088 15.8431 8.99988 17.4831 8.99988 17.9991C8.99988 19.06 9.42131 20.0774 10.1715 20.8276C10.9216 21.5777 11.939 21.9991 12.9999 21.9991C14.0607 21.9991 15.0782 21.5777 15.8283 20.8276C16.5785 20.0774 16.9999 19.06 16.9999 17.9991C16.9999 17.4831 16.6889 15.8431 13.8129 11.7641C13.722 11.6329 13.6004 11.5259 13.4587 11.4523C13.317 11.3788 13.1595 11.3409 12.9999 11.3421Z" fill="#262626"/>
<path d="M5 11.0009C3.67441 10.9993 2.40356 10.472 1.46622 9.53469C0.528882 8.59735 0.00158786 7.3265 0 6.00091C0 4.74091 0.842 3.14591 2.574 1.12391C2.87441 0.774659 3.24669 0.49439 3.66538 0.302257C4.08408 0.110124 4.53932 0.0106583 5 0.0106583C5.46068 0.0106583 5.91592 0.110124 6.33462 0.302257C6.75331 0.49439 7.12559 0.774659 7.426 1.12391C9.158 3.14391 10 4.73891 10 6.00091C9.99841 7.3265 9.47112 8.59735 8.53378 9.53469C7.59644 10.472 6.32559 10.9993 5 11.0009ZM5 2.00091C4.8273 2.00006 4.65655 2.03736 4.49994 2.11013C4.34333 2.18291 4.20471 2.28937 4.094 2.42191C2.151 4.68991 2 5.73291 2 6.00091C2 6.79656 2.31607 7.55962 2.87868 8.12223C3.44129 8.68484 4.20435 9.00091 5 9.00091C5.79565 9.00091 6.55871 8.68484 7.12132 8.12223C7.68393 7.55962 8 6.79656 8 6.00091C8 5.73491 7.849 4.69191 5.906 2.42491C5.79567 2.29171 5.6572 2.18461 5.50055 2.1113C5.3439 2.03799 5.17296 2.00029 5 2.00091Z" fill="#262626"/>
<path d="M19.5 9.96316C18.3069 9.96184 17.1631 9.48731 16.3195 8.64368C15.4759 7.80005 15.0013 6.65623 15 5.46316C15 4.37216 15.7 2.95716 17.146 1.13716C17.429 0.785018 17.7874 0.500857 18.1948 0.30561C18.6022 0.110363 19.0482 0.0090065 19.5 0.0090065C19.9518 0.0090065 20.3978 0.110363 20.8052 0.30561C21.2126 0.500857 21.571 0.785018 21.854 1.13716C23.3 2.95716 24 4.37216 24 5.46316C23.9987 6.65623 23.5241 7.80005 22.6805 8.64368C21.8369 9.48731 20.6931 9.96184 19.5 9.96316ZM19.5 1.99916C19.3485 1.99892 19.199 2.03308 19.0627 2.09909C18.9263 2.16509 18.8068 2.2612 18.713 2.38016C17.123 4.38416 17 5.24616 17 5.46316C17 6.1262 17.2634 6.76209 17.7322 7.23093C18.2011 7.69977 18.837 7.96316 19.5 7.96316C20.163 7.96316 20.7989 7.69977 21.2678 7.23093C21.7366 6.76209 22 6.1262 22 5.46316C22 5.24616 21.877 4.38416 20.287 2.38116C20.1933 2.26201 20.0738 2.16571 19.9375 2.09954C19.8011 2.03336 19.6516 1.99904 19.5 1.99916Z" fill="#262626"/>
</g>
<defs>
<clipPath id="clip0_1_2363">
<rect width="24" height="24" fill="white"/>
</clipPath>
</defs>
</svg>
