<svg width="24" height="24" viewBox="0 0 24 24" fill="none" xmlns="http://www.w3.org/2000/svg">
<g clip-path="url(#clip0_1_2398)">
<path d="M10.4201 20.656C9.61648 20.6553 8.83409 20.3978 8.18712 19.921L1.54612 15.051C1.06742 14.6995 0.678173 14.2402 0.409886 13.7104C0.141599 13.1805 0.00180054 12.5949 0.00180054 12.001C0.00180054 11.4071 0.141599 10.8215 0.409886 10.2917C0.678173 9.76182 1.06742 9.30255 1.54612 8.95103L8.18712 4.08103C8.7318 3.68078 9.37376 3.43377 10.0462 3.3657C10.7187 3.29763 11.3972 3.41098 12.011 3.69396C12.6248 3.97693 13.1517 4.41921 13.5366 4.97478C13.9216 5.53034 14.1507 6.17891 14.2001 6.85303L17.9821 4.07903C18.546 3.66658 19.213 3.41828 19.9094 3.36164C20.6057 3.30501 21.3041 3.44225 21.9272 3.75815C22.5503 4.07406 23.0738 4.5563 23.4397 5.15144C23.8056 5.74659 23.9995 6.43141 24.0001 7.13003V16.87C23.9999 17.5691 23.8061 18.2546 23.4401 18.8502C23.074 19.4458 22.5501 19.9284 21.9265 20.2444C21.3029 20.5605 20.6039 20.6975 19.9071 20.6404C19.2103 20.5833 18.543 20.3343 17.9791 19.921L14.2001 17.147C14.1292 18.1005 13.7006 18.9919 13.0002 19.6427C12.2997 20.2934 11.3792 20.6554 10.4231 20.656H10.4201ZM13.2071 14.181C13.4201 14.181 13.6275 14.249 13.7991 14.375L19.1621 18.308C19.4279 18.5027 19.7425 18.6199 20.0708 18.6467C20.3992 18.6736 20.7286 18.609 21.0225 18.46C21.3164 18.3111 21.5633 18.0838 21.7358 17.8031C21.9084 17.5224 21.9999 17.1995 22.0001 16.87V7.13003C21.9996 6.80055 21.908 6.47763 21.7353 6.19704C21.5626 5.91644 21.3156 5.68912 21.0217 5.54024C20.7278 5.39136 20.3984 5.32674 20.07 5.35353C19.7416 5.38032 19.427 5.49748 19.1611 5.69203L13.8001 9.62503C13.6511 9.73447 13.4747 9.80047 13.2905 9.81569C13.1062 9.83092 12.9214 9.79477 12.7564 9.71126C12.5915 9.62776 12.4529 9.50017 12.3561 9.34266C12.2593 9.18515 12.2081 9.0039 12.2081 8.81903V7.13003C12.208 6.8004 12.1166 6.47725 11.944 6.19643C11.7713 5.91561 11.5243 5.68811 11.2302 5.53916C10.9362 5.39022 10.6066 5.32565 10.2781 5.35264C9.94956 5.37962 9.63494 5.4971 9.36912 5.69203L2.72912 10.562C2.50323 10.7276 2.31952 10.9441 2.19289 11.1939C2.06627 11.4438 2.00028 11.7199 2.00028 12C2.00028 12.2801 2.06627 12.5563 2.19289 12.8061C2.31952 13.0559 2.50323 13.2724 2.72912 13.438L9.36912 18.308C9.63494 18.5027 9.94946 18.6199 10.2778 18.6467C10.6062 18.6736 10.9356 18.609 11.2295 18.46C11.5234 18.3111 11.7703 18.0838 11.9428 17.8031C12.1154 17.5224 12.2069 17.1995 12.2071 16.87V15.181C12.2071 14.9158 12.3125 14.6615 12.5 14.4739C12.6876 14.2864 12.9419 14.181 13.2071 14.181Z" fill="#262626"/>
</g>
<defs>
<clipPath id="clip0_1_2398">
<rect width="24" height="24" fill="white"/>
</clipPath>
</defs>
</svg>
