<svg width="24" height="24" viewBox="0 0 24 24" fill="none" xmlns="http://www.w3.org/2000/svg">
<path d="M23.7197 22.3002L17.7593 16.3399C21.2558 12.0636 20.6236 5.76255 16.3473 2.26615C12.0711 -1.23026 5.77009 -0.598195 2.27363 3.67807C-1.22282 7.95434 -0.590663 14.2554 3.6856 17.7518C7.36895 20.7635 12.664 20.7635 16.3474 17.7518L22.3078 23.7122C22.7045 24.0953 23.3366 24.0844 23.7197 23.6876C24.0934 23.3007 24.0934 22.6872 23.7197 22.3002ZM2.04395 10.0249C2.04395 5.61302 5.62051 2.03646 10.0324 2.03646C14.4444 2.03646 18.0209 5.61302 18.0209 10.0249C18.0209 14.4369 14.4444 18.0134 10.0324 18.0134C5.62257 18.0085 2.04891 14.4348 2.04395 10.0249ZM12.0296 6.03068C11.2836 6.03405 10.5679 6.32604 10.0325 6.84551C9.49707 6.32609 8.78134 6.03405 8.03537 6.03068C6.32757 6.08984 4.98863 7.51802 5.03968 9.22605C5.03968 11.2232 7.07776 13.2832 8.78827 14.6582C9.51638 15.2381 10.5486 15.2381 11.2767 14.6582C12.9872 13.2832 15.0253 11.2232 15.0253 9.22605C15.0763 7.51802 13.7374 6.08984 12.0296 6.03068ZM10.0384 13.1005C8.1871 11.6126 7.03674 10.1248 7.03674 9.2261C6.98691 8.62113 7.43124 8.08788 8.03532 8.02784C8.63935 8.08788 9.08373 8.62113 9.0339 9.2261C9.0339 9.77759 9.48095 10.2247 10.0325 10.2247C10.584 10.2247 11.0311 9.77763 11.0311 9.2261C10.9812 8.62113 11.4256 8.08788 12.0296 8.02784C12.6337 8.08788 13.078 8.62113 13.0282 9.2261C13.0281 10.1248 11.8778 11.6126 10.0384 13.1005Z" fill="#262626"/>
</svg>
