<svg width="24" height="24" viewBox="0 0 24 24" fill="none" xmlns="http://www.w3.org/2000/svg">
<g clip-path="url(#clip0_1_2431)">
<path d="M16.0001 5.99999C16.2653 5.99999 16.5197 6.10535 16.7072 6.29289C16.8948 6.48042 17.0001 6.73478 17.0001 6.99999C17.0001 7.26521 16.8948 7.51956 16.7072 7.7071C16.5197 7.89464 16.2653 7.99999 16.0001 7.99999H8.00012C7.73491 7.99999 7.48055 7.89464 7.29302 7.7071C7.10548 7.51956 7.00012 7.26521 7.00012 6.99999C7.00012 6.73478 7.10548 6.48042 7.29302 6.29289C7.48055 6.10535 7.73491 5.99999 8.00012 5.99999H16.0001ZM23.7071 23.707C23.5196 23.8945 23.2653 23.9998 23.0001 23.9998C22.735 23.9998 22.4806 23.8945 22.2931 23.707L19.8861 21.3C19.1733 21.755 18.3458 21.9977 17.5001 22C16.6101 22 15.7401 21.7361 15.0001 21.2416C14.26 20.7471 13.6833 20.0443 13.3427 19.2221C13.0021 18.3998 12.913 17.495 13.0866 16.6221C13.2602 15.7492 13.6888 14.9473 14.3181 14.318C14.9475 13.6887 15.7493 13.2601 16.6222 13.0865C17.4951 12.9128 18.3999 13.0019 19.2222 13.3425C20.0445 13.6831 20.7473 14.2599 21.2417 14.9999C21.7362 15.7399 22.0001 16.61 22.0001 17.5C21.9979 18.3456 21.7551 19.1732 21.3001 19.886L23.7071 22.293C23.8946 22.4805 23.9999 22.7348 23.9999 23C23.9999 23.2652 23.8946 23.5195 23.7071 23.707ZM17.5001 20C17.9946 20 18.4779 19.8534 18.889 19.5787C19.3002 19.304 19.6206 18.9135 19.8098 18.4567C19.999 17.9999 20.0485 17.4972 19.9521 17.0123C19.8556 16.5273 19.6175 16.0819 19.2679 15.7322C18.9183 15.3826 18.4728 15.1445 17.9878 15.048C17.5029 14.9516 17.0002 15.0011 16.5434 15.1903C16.0866 15.3795 15.6962 15.6999 15.4214 16.1111C15.1467 16.5222 15.0001 17.0055 15.0001 17.5C15.0001 18.163 15.2635 18.7989 15.7324 19.2678C16.2012 19.7366 16.8371 20 17.5001 20ZM13.0001 22H7.00012C6.20447 22 5.44141 21.6839 4.8788 21.1213C4.31619 20.5587 4.00012 19.7956 4.00012 19V4.99999C4.00012 4.20434 4.31619 3.44128 4.8788 2.87867C5.44141 2.31606 6.20447 1.99999 7.00012 1.99999H19.0001C19.2653 1.99999 19.5197 2.10535 19.7072 2.29289C19.8948 2.48042 20.0001 2.73478 20.0001 2.99999V11C20.0001 11.2652 20.1055 11.5196 20.293 11.7071C20.4806 11.8946 20.7349 12 21.0001 12C21.2653 12 21.5197 11.8946 21.7072 11.7071C21.8948 11.5196 22.0001 11.2652 22.0001 11V2.99999C22.0001 2.20434 21.6841 1.44128 21.1214 0.878672C20.5588 0.316063 19.7958 -7.62939e-06 19.0001 -7.62939e-06L7.00012 -7.62939e-06C5.67453 0.00158023 4.40368 0.528874 3.46634 1.46621C2.529 2.40355 2.00171 3.6744 2.00012 4.99999V19C2.00171 20.3256 2.529 21.5964 3.46634 22.5338C4.40368 23.4711 5.67453 23.9984 7.00012 24H13.0001C13.2653 24 13.5197 23.8946 13.7072 23.7071C13.8948 23.5196 14.0001 23.2652 14.0001 23C14.0001 22.7348 13.8948 22.4804 13.7072 22.2929C13.5197 22.1053 13.2653 22 13.0001 22Z" fill="#262626"/>
</g>
<defs>
<clipPath id="clip0_1_2431">
<rect width="24" height="24" fill="white"/>
</clipPath>
</defs>
</svg>
