<svg width="24" height="24" viewBox="0 0 24 24" fill="none" xmlns="http://www.w3.org/2000/svg">
<g clip-path="url(#clip0_1_2456)">
<path d="M18.5811 2.14068L12.3161 0.0516833C12.111 -0.0166378 11.8893 -0.0166378 11.6841 0.0516833L5.41812 2.14068C4.42222 2.47174 3.55594 3.10819 2.94236 3.95962C2.32878 4.81106 1.99909 5.83419 2.00012 6.88368V12.0007C2.00012 19.5637 11.2001 23.7407 11.5941 23.9147C11.7219 23.9715 11.8603 24.0008 12.0001 24.0008C12.14 24.0008 12.2783 23.9715 12.4061 23.9147C12.8001 23.7407 22.0001 19.5637 22.0001 12.0007V6.88368C22.0011 5.83407 21.6713 4.81085 21.0575 3.95939C20.4437 3.10794 19.5772 2.47156 18.5811 2.14068ZM20.0001 12.0007C20.0001 17.4557 13.6811 21.0337 12.0001 21.8897C10.3171 21.0367 4.00012 17.4697 4.00012 12.0007V6.88368C4.00011 6.25408 4.19818 5.64044 4.56628 5.12966C4.93438 4.61887 5.45386 4.23685 6.05112 4.03768L12.0001 2.05468L17.9481 4.03768C18.5456 4.23668 19.0653 4.61863 19.4336 5.12943C19.8018 5.64022 20.0001 6.25396 20.0001 6.88368V12.0007Z" fill="#262626"/>
</g>
<defs>
<clipPath id="clip0_1_2456">
<rect width="24" height="24" fill="white"/>
</clipPath>
</defs>
</svg>
