<svg width="24" height="24" viewBox="0 0 24 24" fill="none" xmlns="http://www.w3.org/2000/svg">
<g clip-path="url(#clip0_1_2483)">
<path d="M23.4212 16.5821L20.1302 13.2911C20.0385 13.1934 19.928 13.1152 19.8055 13.061C19.6829 13.0069 19.5507 12.9779 19.4167 12.9758C19.2828 12.9737 19.1497 12.9986 19.0256 13.0489C18.9014 13.0993 18.7886 13.174 18.6939 13.2688C18.5991 13.3636 18.5244 13.4765 18.4742 13.6007C18.4239 13.7249 18.3992 13.8579 18.4013 13.9919C18.4035 14.1259 18.4326 14.2581 18.4869 14.3806C18.5411 14.5031 18.6194 14.6135 18.7172 14.7051L21.0072 16.9991C19.7623 17.002 18.5295 16.7557 17.3812 16.2748C16.233 15.7939 15.1925 15.0882 14.3212 14.1991C14.2244 14.11 14.1108 14.0413 13.9869 13.9969C13.8631 13.9526 13.7316 13.9336 13.6003 13.9411C13.4689 13.9485 13.3404 13.9823 13.2224 14.0404C13.1044 14.0984 12.9992 14.1796 12.9132 14.2791L12.9002 14.2991C12.7321 14.4947 12.646 14.7477 12.66 15.0052C12.674 15.2627 12.7869 15.5049 12.9752 15.6811C14.025 16.7428 15.2769 17.5834 16.6569 18.1533C18.0369 18.7232 19.5172 19.0108 21.0102 18.9991L18.7172 21.2921C18.6127 21.382 18.5279 21.4925 18.4682 21.6167C18.4084 21.7409 18.375 21.8761 18.3699 22.0138C18.3649 22.1515 18.3884 22.2888 18.439 22.417C18.4895 22.5452 18.566 22.6616 18.6637 22.7589C18.7613 22.8561 18.878 22.9321 19.0065 22.9821C19.1349 23.0321 19.2723 23.055 19.41 23.0494C19.5477 23.0438 19.6827 23.0098 19.8067 22.9495C19.9306 22.8892 20.0408 22.804 20.1302 22.6991L23.4212 19.4081C23.7955 19.0332 24.0057 18.525 24.0057 17.9951C24.0057 17.4653 23.7955 16.9571 23.4212 16.5821Z" fill="#262626"/>
<path d="M21.007 6.99956L18.717 9.28956C18.6975 9.31588 18.6795 9.34326 18.663 9.37156C18.5016 9.56831 18.4221 9.81955 18.4407 10.0733C18.4593 10.3271 18.5748 10.564 18.7632 10.7351C18.9516 10.9061 19.1985 10.9983 19.4529 10.9924C19.7073 10.9865 19.9497 10.8831 20.13 10.7036L21.836 8.99956L23.422 7.41456C23.6902 7.14432 23.8756 6.80316 23.9566 6.43116C24.0375 6.05917 24.0106 5.6718 23.879 5.31456C23.7819 5.04111 23.6255 4.79251 23.421 4.58656L20.13 1.29956C20.0387 1.20037 19.9283 1.12067 19.8054 1.06523C19.6825 1.0098 19.5497 0.979783 19.4149 0.976991C19.2802 0.974198 19.1462 0.998686 19.0211 1.04898C18.8961 1.09928 18.7824 1.17435 18.6871 1.26967C18.5918 1.36499 18.5167 1.47861 18.4664 1.60368C18.4161 1.72876 18.3917 1.86271 18.3944 1.99749C18.3972 2.13227 18.4273 2.26509 18.4827 2.38798C18.5381 2.51086 18.6178 2.62127 18.717 2.71256L21.01 5.00456C16.077 5.01656 13.373 7.67856 10.921 10.4786C8.66903 7.93656 6.00004 5.39956 1.48704 5.04556L1.00604 4.99956C0.740825 4.99956 0.486471 5.10492 0.298935 5.29246C0.111399 5.47999 0.00604248 5.73435 0.00604248 5.99956C0.0111626 6.26318 0.118163 6.51457 0.304601 6.701C0.491039 6.88744 0.742428 6.99444 1.00604 6.99956C1.07804 6.99956 1.29304 7.03256 1.29304 7.03256C5.18904 7.32756 7.42503 9.52156 9.60003 11.9996C7.43803 14.4656 5.21704 16.6996 1.35304 16.9596L0.953041 16.9806C0.689814 16.997 0.4439 17.1173 0.269398 17.3151C0.0948957 17.5129 0.00609906 17.7718 0.0225425 18.0351C0.0389859 18.2983 0.159322 18.5442 0.357079 18.7187C0.554836 18.8932 0.813814 18.982 1.07704 18.9656C1.23304 18.9586 1.48704 18.9526 1.61204 18.9426C6.63203 18.5556 9.35503 15.3426 11.783 12.5336C14.235 9.69956 16.551 7.01756 21.007 6.99956Z" fill="#262626"/>
</g>
<defs>
<clipPath id="clip0_1_2483">
<rect width="24" height="24" fill="white"/>
</clipPath>
</defs>
</svg>
