<svg width="24" height="24" viewBox="0 0 24 24" fill="none" xmlns="http://www.w3.org/2000/svg">
<g clip-path="url(#clip0_1_2510)">
<path d="M21.835 2.16565C21.1488 1.47932 20.3342 0.934872 19.4376 0.563419C18.541 0.191965 17.58 0.000778198 16.6095 0.000778198C15.639 0.000778198 14.678 0.191965 13.7814 0.563419C12.8848 0.934872 12.0701 1.47932 11.384 2.16565L2.16496 11.3847C1.47569 12.0702 0.928456 12.885 0.554609 13.7824C0.180762 14.6798 -0.0123504 15.6421 -0.0136651 16.6143C-0.0149798 17.5864 0.175529 18.5493 0.546948 19.4477C0.918366 20.3461 1.46339 21.1624 2.15081 21.8498C2.83822 22.5372 3.65451 23.0823 4.55291 23.4537C5.45132 23.8251 6.41417 24.0156 7.38632 24.0143C8.35847 24.013 9.32081 23.8199 10.2182 23.446C11.1156 23.0722 11.9304 22.5249 12.616 21.8357L21.835 12.6167C22.5213 11.9305 23.0657 11.1159 23.4372 10.2193C23.8087 9.32265 23.9998 8.36166 23.9998 7.39115C23.9998 6.42065 23.8087 5.45966 23.4372 4.56306C23.0657 3.66646 22.5213 2.85181 21.835 2.16565ZM20.421 11.2007L11.2 20.4217C10.7034 20.9391 10.1086 21.3522 9.45031 21.6368C8.79206 21.9214 8.08363 22.0719 7.36651 22.0792C6.6494 22.0866 5.93803 21.9508 5.27406 21.6798C4.6101 21.4087 4.0069 21.0079 3.4998 20.5008C2.9927 19.9937 2.59189 19.3905 2.32086 18.7266C2.04983 18.0626 1.91402 17.3512 1.92139 16.6341C1.92876 15.917 2.07917 15.2086 2.36379 14.5503C2.64842 13.8921 3.06154 13.2972 3.57896 12.8007L12.8 3.57965C13.2965 3.06223 13.8914 2.64911 14.5496 2.36448C15.2079 2.07986 15.9163 1.92945 16.6334 1.92208C17.3505 1.91471 18.0619 2.05052 18.7259 2.32155C19.3898 2.59258 19.993 2.99339 20.5001 3.50049C21.0072 4.00759 21.408 4.61079 21.6791 5.27476C21.9501 5.93872 22.0859 6.65009 22.0785 7.36721C22.0712 8.08432 21.9208 8.79275 21.6361 9.451C21.3515 10.1093 20.9384 10.7041 20.421 11.2007ZM19.707 8.29165C19.8944 8.47918 19.9997 8.73349 19.9997 8.99865C19.9997 9.26382 19.8944 9.51813 19.707 9.70565L16.707 12.7057C16.5184 12.8878 16.2658 12.9886 16.0036 12.9863C15.7414 12.984 15.4906 12.8789 15.3051 12.6935C15.1197 12.5081 15.0146 12.2573 15.0123 11.9951C15.01 11.7329 15.1108 11.4803 15.293 11.2917L16.086 10.4987L13.5 7.91465L12.707 8.70765C12.5184 8.88981 12.2658 8.99061 12.0036 8.98833C11.7414 8.98605 11.4906 8.88088 11.3051 8.69547C11.1197 8.51007 11.0146 8.25925 11.0123 7.99706C11.01 7.73486 11.1108 7.48226 11.293 7.29365L14.293 4.29365C14.3852 4.19814 14.4956 4.12196 14.6176 4.06955C14.7396 4.01714 14.8708 3.98956 15.0036 3.9884C15.1363 3.98725 15.268 4.01255 15.3909 4.06283C15.5138 4.11311 15.6255 4.18737 15.7194 4.28126C15.8132 4.37515 15.8875 4.4868 15.9378 4.6097C15.9881 4.7326 16.0134 4.86428 16.0122 4.99706C16.0111 5.12983 15.9835 5.26105 15.9311 5.38306C15.8787 5.50506 15.8025 5.61541 15.707 5.70765L14.914 6.50065L17.5 9.08665L18.293 8.29365C18.4805 8.10618 18.7348 8.00087 19 8.00087C19.2651 8.00087 19.5194 8.10618 19.707 8.29365V8.29165ZM12.707 15.2917C12.8944 15.4792 12.9997 15.7335 12.9997 15.9987C12.9997 16.2638 12.8944 16.5181 12.707 16.7057L9.70696 19.7057C9.51836 19.8878 9.26576 19.9886 9.00356 19.9863C8.74136 19.984 8.49055 19.8789 8.30514 19.6935C8.11974 19.5081 8.01457 19.2573 8.01229 18.9951C8.01001 18.7329 8.1108 18.4803 8.29296 18.2917L9.08596 17.4987L6.49996 14.9147L5.70696 15.7077C5.51836 15.8898 5.26576 15.9906 5.00356 15.9883C4.74136 15.986 4.49055 15.8809 4.30514 15.6955C4.11973 15.5101 4.01457 15.2593 4.01229 14.9971C4.01001 14.7349 4.1108 14.4823 4.29296 14.2937L7.29296 11.2937C7.48156 11.1115 7.73417 11.0107 7.99636 11.013C8.25856 11.0153 8.50937 11.1204 8.69478 11.3058C8.88019 11.4912 8.98536 11.7421 8.98764 12.0043C8.98991 12.2664 8.88912 12.5191 8.70696 12.7077L7.91396 13.5007L10.5 16.0867L11.293 15.2937C11.4805 15.1062 11.7348 15.0009 12 15.0009C12.2651 15.0009 12.5194 15.1062 12.707 15.2937V15.2917Z" fill="#262626"/>
</g>
<defs>
<clipPath id="clip0_1_2510">
<rect width="24" height="24" fill="white"/>
</clipPath>
</defs>
</svg>
