<svg width="24" height="24" viewBox="0 0 24 24" fill="none" xmlns="http://www.w3.org/2000/svg">
<g clip-path="url(#clip0_1_2536)">
<path d="M12 24C9.86522 23.9995 7.76922 23.4295 5.92818 22.3489C4.08713 21.2683 2.56769 19.716 1.52656 17.8524C0.485432 15.9887 -0.039689 13.881 0.00535817 11.7467C0.0504054 9.61245 0.663989 7.52881 1.78283 5.71072C2.90166 3.89264 4.48525 2.40593 6.37025 1.40394C8.25525 0.401941 10.3734 -0.0790648 12.5063 0.0105292C14.6392 0.100123 16.7096 0.757073 18.5039 1.91362C20.2982 3.07017 21.7516 4.68445 22.714 6.58996C22.7779 6.70762 22.8176 6.83692 22.8306 6.97019C22.8436 7.10347 22.8297 7.238 22.7898 7.3658C22.7498 7.49361 22.6846 7.61209 22.598 7.71421C22.5113 7.81633 22.4051 7.90002 22.2855 7.96031C22.166 8.0206 22.0355 8.05625 21.9019 8.06517C21.7683 8.07408 21.6342 8.05607 21.5077 8.01221C21.3812 7.96834 21.2648 7.89951 21.1654 7.8098C21.066 7.72009 20.9856 7.61132 20.929 7.48996C19.9155 5.48317 18.2553 3.87647 16.2164 2.92916C14.1775 1.98186 11.8789 1.74924 9.69159 2.26885C7.50426 2.78846 5.55584 4.02997 4.16081 5.79301C2.76579 7.55605 2.00555 9.73773 2.00281 11.9859C2.00008 14.2341 2.755 16.4177 4.14573 18.1841C5.53646 19.9505 7.48186 21.1968 9.66792 21.7217C11.854 22.2466 14.1531 22.0196 16.1943 21.0773C18.2355 20.1349 19.8996 18.5323 20.918 16.528C21.043 16.2999 21.2519 16.1295 21.5004 16.053C21.7489 15.9764 22.0174 15.9996 22.2491 16.1177C22.4808 16.2358 22.6573 16.4395 22.7413 16.6856C22.8253 16.9317 22.8101 17.2009 22.699 17.436C21.6995 19.4144 20.1696 21.0759 18.2803 22.2351C16.3909 23.3942 14.2165 24.0052 12 24Z" fill="#262626"/>
</g>
<defs>
<clipPath id="clip0_1_2536">
<rect width="24" height="24" fill="white"/>
</clipPath>
</defs>
</svg>
