<svg width="24" height="24" viewBox="0 0 24 24" fill="none" xmlns="http://www.w3.org/2000/svg">
<g clip-path="url(#clip0_1_2570)">
<path d="M19.9998 0.010262C16.1878 0.010262 11.8748 2.04826 8.46077 5.46126C5.02747 8.86509 2.2666 12.8856 0.322766 17.3123C0.00492892 18.0475 -0.0838797 18.8616 0.0679296 19.6481C0.219739 20.4346 0.605115 21.1571 1.17377 21.7213L2.27977 22.8263C2.84287 23.3936 3.56371 23.7783 4.34848 23.9302C5.13325 24.0822 5.94559 23.9944 6.67977 23.6783C11.1091 21.7373 15.1312 18.9757 18.5338 15.5393C21.9518 12.1263 23.9898 7.81326 23.9898 4.00026C24.046 3.46247 23.9814 2.91891 23.8008 2.40926C23.6202 1.8996 23.328 1.43671 22.9457 1.05436C22.5633 0.672011 22.1004 0.379859 21.5908 0.199225C21.0811 0.0185908 20.5376 -0.0459675 19.9998 0.010262ZM17.1248 14.1253C13.9027 17.3813 10.0941 19.9989 5.89977 21.8403C5.56626 21.9769 5.20211 22.0211 4.84559 21.9683C4.48908 21.9155 4.15338 21.7677 3.87377 21.5403L16.7068 8.70726C16.8023 8.61502 16.8785 8.50467 16.9309 8.38267C16.9833 8.26066 17.0109 8.12944 17.012 7.99666C17.0132 7.86388 16.9879 7.7322 16.9376 7.60931C16.8873 7.48641 16.8131 7.37476 16.7192 7.28087C16.6253 7.18697 16.5136 7.11272 16.3907 7.06244C16.2678 7.01216 16.1361 6.98686 16.0034 6.98801C15.8706 6.98917 15.7394 7.01675 15.6174 7.06916C15.4954 7.12157 15.385 7.19775 15.2928 7.29326L2.45677 20.1293C2.2291 19.8494 2.08109 19.5133 2.0283 19.1565C1.9755 18.7996 2.01988 18.4351 2.15677 18.1013C4.00086 13.9074 6.61928 10.0988 9.87477 6.87526C13.4628 3.28826 17.4578 2.01026 19.9998 2.01026C21.4508 2.01026 21.9898 2.54926 21.9898 4.00026C21.9898 6.54326 20.7118 10.5383 17.1248 14.1253Z" fill="#262626"/>
</g>
<defs>
<clipPath id="clip0_1_2570">
<rect width="24" height="24" fill="white"/>
</clipPath>
</defs>
</svg>
