<svg width="24" height="24" viewBox="0 0 24 24" fill="none" xmlns="http://www.w3.org/2000/svg">
<path fill-rule="evenodd" clip-rule="evenodd" d="M2.71344 9.76132L11.1707 1.68159C11.6674 1.20709 12.3543 0.960523 13.0551 1.00516L18.96 1.38125C20.1775 1.45879 21.1472 2.38514 21.2284 3.54838L21.622 9.18966C21.6687 9.85922 21.4106 10.5155 20.914 10.99L12.4567 19.0697C11.5055 19.9785 9.9632 19.9785 9.01195 19.0697L2.71344 13.0523C1.76219 12.1435 1.76219 10.6701 2.71344 9.76132ZM18.0418 5.5891C18.0418 6.23171 17.4965 6.75264 16.8239 6.75264C16.1513 6.75264 15.606 6.23171 15.606 5.5891C15.606 4.94649 16.1513 4.42555 16.8239 4.42555C17.4965 4.42555 18.0418 4.94649 18.0418 5.5891Z" fill="#262626"/>
<path d="M21.7126 14.3693C22.08 14.0389 22.0975 13.4867 21.7517 13.1357C21.406 12.7847 20.8279 12.768 20.4605 13.0983L11.8291 20.8594C11.2299 21.3981 10.2911 21.3846 9.70924 20.8287L4.68171 16.0256C4.32499 15.6848 3.74664 15.6848 3.38992 16.0256C3.0332 16.3664 3.0332 16.9189 3.38992 17.2597L8.41745 22.0628C9.69748 23.2857 11.763 23.3156 13.0812 22.1303L21.7126 14.3693Z" fill="#262626"/>
</svg>
