<svg width="24" height="24" viewBox="0 0 24 24" fill="none" xmlns="http://www.w3.org/2000/svg">
<path d="M20.4849 3.51587C18.8071 1.8396 16.6699 0.698397 14.3436 0.236514C12.0173 -0.225369 9.60633 0.0128065 7.41536 0.920933C5.2244 1.82906 3.35185 3.36637 2.03443 5.33853C0.717008 7.31069 0.013855 9.62916 0.013855 12.0009C0.013855 14.3726 0.717008 16.6911 2.03443 18.6632C3.35185 20.6354 5.2244 22.1727 7.41536 23.0808C9.60633 23.9889 12.0173 24.2271 14.3436 23.7652C16.6699 23.3033 18.8071 22.1621 20.4849 20.4859C22.732 18.2338 23.994 15.1823 23.994 12.0009C23.994 8.81947 22.732 5.76797 20.4849 3.51587ZM21.9339 10.9329C20.7348 11.0783 19.5182 10.9491 18.3764 10.555C17.2345 10.1608 16.1973 9.51212 15.3431 8.65791C14.489 7.8037 13.8404 6.76639 13.4464 5.6245C13.0524 4.4826 12.9233 3.26603 13.0689 2.06687C15.3387 2.3055 17.4576 3.3163 19.0713 4.93018C20.685 6.54405 21.6956 8.66312 21.9339 10.9329ZM2.06593 13.0689C3.2651 12.9234 4.48166 13.0526 5.62351 13.4468C6.76537 13.8409 7.8026 14.4896 8.65671 15.3438C9.51083 16.198 10.1594 17.2353 10.5534 18.3772C10.9474 19.5191 11.0765 20.7357 10.9309 21.9349C8.6612 21.6962 6.54225 20.6854 4.92856 19.0716C3.31487 17.4577 2.3043 15.3386 2.06593 13.0689ZM19.0709 19.0689C17.428 20.7154 15.2601 21.7341 12.9439 21.9479C13.0874 20.4811 12.904 19.0008 12.4069 17.6135C11.9098 16.2261 11.1113 14.9662 10.0689 13.9244C9.02656 12.8827 7.76622 12.0849 6.3786 11.5885C4.99097 11.0922 3.51058 10.9096 2.04393 11.0539C2.26144 8.73816 3.28102 6.57117 4.92651 4.92733C6.57199 3.28349 8.74 2.26607 11.0559 2.05087C10.9215 3.43743 11.0786 4.83678 11.5172 6.15899C11.9558 7.4812 12.6662 8.69701 13.6027 9.72828C14.5392 10.7596 15.6812 11.5835 16.9551 12.1471C18.2291 12.7107 19.6069 13.0015 20.9999 13.0009C21.3169 13.0009 21.6349 12.9849 21.9529 12.9549C21.7357 15.2678 20.7162 17.4318 19.0709 19.0719V19.0689Z" fill="#262626"/>
</svg>
