<svg width="24" height="24" viewBox="0 0 24 24" fill="none" xmlns="http://www.w3.org/2000/svg">
<path d="M20.4401 16.8543L18.9591 14.6333C19.2017 14.4724 19.4101 14.2653 19.5725 14.0237C19.7349 13.7822 19.8481 13.511 19.9056 13.2257C19.9631 12.9403 19.9638 12.6465 19.9076 12.3609C19.8514 12.0753 19.7394 11.8036 19.5781 11.5613L17.4871 8.42632C17.6702 8.2596 17.8243 8.06359 17.9431 7.84632C18.1332 7.49745 18.2257 7.1038 18.2109 6.70679C18.1961 6.30978 18.0746 5.92409 17.8591 5.59032C17.8341 5.55253 17.8071 5.51614 17.7781 5.48132L13.6781 0.69933C13.4531 0.476454 13.1859 0.300717 12.8922 0.182413C12.5984 0.0641096 12.284 0.00561939 11.9674 0.010369C11.6507 0.0151187 11.3382 0.0830128 11.0482 0.210074C10.7581 0.337134 10.4963 0.520807 10.2781 0.75033L6.20611 5.47732C6.17652 5.51095 6.14944 5.54672 6.12511 5.58432C5.83764 6.027 5.71794 6.55788 5.78763 7.08108C5.85732 7.60428 6.11179 8.08532 6.50511 8.43732L4.42211 11.5613C4.26079 11.8036 4.14884 12.0753 4.09264 12.3609C4.03644 12.6465 4.03711 12.9403 4.09461 13.2257C4.1521 13.511 4.26529 13.7822 4.4277 14.0237C4.59011 14.2653 4.79856 14.4724 5.04111 14.6333L3.56011 16.8543C3.22781 17.3526 3.03696 17.9317 3.00792 18.5299C2.97888 19.1281 3.11273 19.7229 3.39521 20.251C3.67768 20.7791 4.09819 21.2206 4.61188 21.5285C5.12558 21.8364 5.71321 21.9991 6.31211 21.9993H11.0001V22.9993C11.0001 23.2645 11.1055 23.5189 11.293 23.7064C11.4805 23.8939 11.7349 23.9993 12.0001 23.9993C12.2653 23.9993 12.5197 23.8939 12.7072 23.7064C12.8947 23.5189 13.0001 23.2645 13.0001 22.9993V21.9993H17.6871C18.2861 21.9993 18.8738 21.8367 19.3877 21.5289C19.9015 21.2211 20.3222 20.7796 20.6048 20.2515C20.8874 19.7233 21.0213 19.1284 20.9923 18.5301C20.9633 17.9318 20.7725 17.3526 20.4401 16.8543ZM18.8401 19.3083C18.7298 19.5182 18.5639 19.6937 18.3605 19.8156C18.1572 19.9374 17.9242 20.001 17.6871 19.9993H6.31211C6.07529 19.9991 5.84297 19.9346 5.6399 19.8128C5.43683 19.691 5.27061 19.5163 5.15896 19.3075C5.0473 19.0986 4.99439 18.8634 5.00587 18.6269C5.01734 18.3904 5.09276 18.1614 5.22411 17.9643L7.50011 14.5543C7.60068 14.4036 7.6584 14.2283 7.6671 14.0473C7.67581 13.8663 7.63516 13.6864 7.54951 13.5267C7.46386 13.367 7.33643 13.2336 7.18083 13.1407C7.02523 13.0478 6.84732 12.9989 6.66611 12.9993H6.26111C6.22272 13.0006 6.18476 12.9909 6.15178 12.9712C6.1188 12.9515 6.09218 12.9227 6.07511 12.8883C6.05583 12.8549 6.04662 12.8167 6.04857 12.7782C6.05052 12.7397 6.06356 12.7026 6.08611 12.6713L8.83111 8.55432C8.9301 8.40278 8.9861 8.22722 8.99314 8.04635C9.00019 7.86549 8.95801 7.6861 8.87111 7.52732C8.78342 7.36742 8.65435 7.23404 8.49742 7.14115C8.34049 7.04826 8.16147 6.99927 7.97911 6.99932C7.94082 7.00073 7.90294 6.99111 7.86997 6.97161C7.837 6.95211 7.81032 6.92355 7.79311 6.88932C7.77763 6.86253 7.76858 6.8325 7.76667 6.80162C7.76476 6.77073 7.77004 6.73982 7.78211 6.71132L11.7441 2.11133C11.7709 2.07709 11.8043 2.04854 11.8422 2.02735C11.8802 2.00616 11.922 1.99275 11.9652 1.98791C12.0084 1.98307 12.0521 1.98689 12.0938 1.99915C12.1355 2.01142 12.1744 2.03187 12.2081 2.05933L16.2001 6.71232C16.2122 6.74082 16.2175 6.77173 16.2155 6.80262C16.2136 6.8335 16.2046 6.86353 16.1891 6.89032C16.1715 6.92484 16.1443 6.95352 16.1108 6.97286C16.0772 6.99221 16.0388 7.00141 16.0001 6.99932C15.8191 6.9993 15.6414 7.04842 15.4861 7.14145C15.3308 7.23448 15.2036 7.36793 15.1182 7.52756C15.0328 7.68719 14.9924 7.86701 15.0011 8.04784C15.0099 8.22867 15.0676 8.40372 15.1681 8.55432L17.9131 12.6713C17.9357 12.7026 17.9487 12.7397 17.9506 12.7782C17.9526 12.8167 17.9434 12.8549 17.9241 12.8883C17.907 12.9227 17.8804 12.9515 17.8474 12.9712C17.8145 12.9909 17.7765 13.0006 17.7381 12.9993H17.3331C17.1521 12.9993 16.9744 13.0484 16.8191 13.1414C16.6638 13.2345 16.5366 13.3679 16.4512 13.5275C16.3658 13.6872 16.3254 13.867 16.3341 14.0478C16.3429 14.2287 16.4006 14.4037 16.5011 14.5543L18.7751 17.9643C18.9088 18.1605 18.9858 18.3899 18.9974 18.627C19.009 18.8642 18.955 19.0999 18.8411 19.3083H18.8401Z" fill="#262626"/>
<path d="M9.00012 17.9994C9.5524 17.9994 10.0001 17.5517 10.0001 16.9994C10.0001 16.4471 9.5524 15.9994 9.00012 15.9994C8.44784 15.9994 8.00012 16.4471 8.00012 16.9994C8.00012 17.5517 8.44784 17.9994 9.00012 17.9994Z" fill="#262626"/>
<path d="M13.9999 17.9994C14.5522 17.9994 14.9999 17.5517 14.9999 16.9994C14.9999 16.4471 14.5522 15.9994 13.9999 15.9994C13.4476 15.9994 12.9999 16.4471 12.9999 16.9994C12.9999 17.5517 13.4476 17.9994 13.9999 17.9994Z" fill="#262626"/>
<path d="M10.9999 14C11.5522 14 11.9999 13.5523 11.9999 13C11.9999 12.4477 11.5522 12 10.9999 12C10.4476 12 9.99988 12.4477 9.99988 13C9.99988 13.5523 10.4476 14 10.9999 14Z" fill="#262626"/>
<path d="M13 11C13.5523 11 14 10.5523 14 10C14 9.44771 13.5523 9 13 9C12.4477 9 12 9.44771 12 10C12 10.5523 12.4477 11 13 11Z" fill="#262626"/>
<path d="M10.9999 8C11.5522 8 11.9999 7.55228 11.9999 7C11.9999 6.44771 11.5522 6 10.9999 6C10.4476 6 9.99988 6.44771 9.99988 7C9.99988 7.55228 10.4476 8 10.9999 8Z" fill="#262626"/>
</svg>
